G75*
%MOIN*%
%OFA0B0*%
%FSLAX25Y25*%
%IPPOS*%
%LPD*%
%AMOC8*
5,1,8,0,0,1.08239X$1,22.5*
%
%ADD10C,0.00000*%
%ADD11C,0.00600*%
%ADD12C,0.03000*%
%ADD13R,0.02000X0.03000*%
%ADD14R,0.04000X0.03000*%
%ADD15C,0.00500*%
%ADD16C,0.01200*%
%ADD17C,0.00800*%
%ADD18R,0.03000X0.02000*%
%ADD19R,0.03000X0.04000*%
D10*
X0046300Y0041300D02*
X0046300Y0236261D01*
X0365001Y0236261D01*
X0365001Y0041300D01*
X0046300Y0041300D01*
X0170300Y0146300D02*
X0170302Y0146454D01*
X0170308Y0146609D01*
X0170318Y0146763D01*
X0170332Y0146917D01*
X0170350Y0147070D01*
X0170371Y0147223D01*
X0170397Y0147376D01*
X0170427Y0147527D01*
X0170460Y0147678D01*
X0170498Y0147828D01*
X0170539Y0147977D01*
X0170584Y0148125D01*
X0170633Y0148271D01*
X0170686Y0148417D01*
X0170742Y0148560D01*
X0170802Y0148703D01*
X0170866Y0148843D01*
X0170933Y0148983D01*
X0171004Y0149120D01*
X0171078Y0149255D01*
X0171156Y0149389D01*
X0171237Y0149520D01*
X0171322Y0149649D01*
X0171410Y0149777D01*
X0171501Y0149901D01*
X0171595Y0150024D01*
X0171693Y0150144D01*
X0171793Y0150261D01*
X0171897Y0150376D01*
X0172003Y0150488D01*
X0172112Y0150597D01*
X0172224Y0150703D01*
X0172339Y0150807D01*
X0172456Y0150907D01*
X0172576Y0151005D01*
X0172699Y0151099D01*
X0172823Y0151190D01*
X0172951Y0151278D01*
X0173080Y0151363D01*
X0173211Y0151444D01*
X0173345Y0151522D01*
X0173480Y0151596D01*
X0173617Y0151667D01*
X0173757Y0151734D01*
X0173897Y0151798D01*
X0174040Y0151858D01*
X0174183Y0151914D01*
X0174329Y0151967D01*
X0174475Y0152016D01*
X0174623Y0152061D01*
X0174772Y0152102D01*
X0174922Y0152140D01*
X0175073Y0152173D01*
X0175224Y0152203D01*
X0175377Y0152229D01*
X0175530Y0152250D01*
X0175683Y0152268D01*
X0175837Y0152282D01*
X0175991Y0152292D01*
X0176146Y0152298D01*
X0176300Y0152300D01*
X0176454Y0152298D01*
X0176609Y0152292D01*
X0176763Y0152282D01*
X0176917Y0152268D01*
X0177070Y0152250D01*
X0177223Y0152229D01*
X0177376Y0152203D01*
X0177527Y0152173D01*
X0177678Y0152140D01*
X0177828Y0152102D01*
X0177977Y0152061D01*
X0178125Y0152016D01*
X0178271Y0151967D01*
X0178417Y0151914D01*
X0178560Y0151858D01*
X0178703Y0151798D01*
X0178843Y0151734D01*
X0178983Y0151667D01*
X0179120Y0151596D01*
X0179255Y0151522D01*
X0179389Y0151444D01*
X0179520Y0151363D01*
X0179649Y0151278D01*
X0179777Y0151190D01*
X0179901Y0151099D01*
X0180024Y0151005D01*
X0180144Y0150907D01*
X0180261Y0150807D01*
X0180376Y0150703D01*
X0180488Y0150597D01*
X0180597Y0150488D01*
X0180703Y0150376D01*
X0180807Y0150261D01*
X0180907Y0150144D01*
X0181005Y0150024D01*
X0181099Y0149901D01*
X0181190Y0149777D01*
X0181278Y0149649D01*
X0181363Y0149520D01*
X0181444Y0149389D01*
X0181522Y0149255D01*
X0181596Y0149120D01*
X0181667Y0148983D01*
X0181734Y0148843D01*
X0181798Y0148703D01*
X0181858Y0148560D01*
X0181914Y0148417D01*
X0181967Y0148271D01*
X0182016Y0148125D01*
X0182061Y0147977D01*
X0182102Y0147828D01*
X0182140Y0147678D01*
X0182173Y0147527D01*
X0182203Y0147376D01*
X0182229Y0147223D01*
X0182250Y0147070D01*
X0182268Y0146917D01*
X0182282Y0146763D01*
X0182292Y0146609D01*
X0182298Y0146454D01*
X0182300Y0146300D01*
X0182298Y0146146D01*
X0182292Y0145991D01*
X0182282Y0145837D01*
X0182268Y0145683D01*
X0182250Y0145530D01*
X0182229Y0145377D01*
X0182203Y0145224D01*
X0182173Y0145073D01*
X0182140Y0144922D01*
X0182102Y0144772D01*
X0182061Y0144623D01*
X0182016Y0144475D01*
X0181967Y0144329D01*
X0181914Y0144183D01*
X0181858Y0144040D01*
X0181798Y0143897D01*
X0181734Y0143757D01*
X0181667Y0143617D01*
X0181596Y0143480D01*
X0181522Y0143345D01*
X0181444Y0143211D01*
X0181363Y0143080D01*
X0181278Y0142951D01*
X0181190Y0142823D01*
X0181099Y0142699D01*
X0181005Y0142576D01*
X0180907Y0142456D01*
X0180807Y0142339D01*
X0180703Y0142224D01*
X0180597Y0142112D01*
X0180488Y0142003D01*
X0180376Y0141897D01*
X0180261Y0141793D01*
X0180144Y0141693D01*
X0180024Y0141595D01*
X0179901Y0141501D01*
X0179777Y0141410D01*
X0179649Y0141322D01*
X0179520Y0141237D01*
X0179389Y0141156D01*
X0179255Y0141078D01*
X0179120Y0141004D01*
X0178983Y0140933D01*
X0178843Y0140866D01*
X0178703Y0140802D01*
X0178560Y0140742D01*
X0178417Y0140686D01*
X0178271Y0140633D01*
X0178125Y0140584D01*
X0177977Y0140539D01*
X0177828Y0140498D01*
X0177678Y0140460D01*
X0177527Y0140427D01*
X0177376Y0140397D01*
X0177223Y0140371D01*
X0177070Y0140350D01*
X0176917Y0140332D01*
X0176763Y0140318D01*
X0176609Y0140308D01*
X0176454Y0140302D01*
X0176300Y0140300D01*
X0176146Y0140302D01*
X0175991Y0140308D01*
X0175837Y0140318D01*
X0175683Y0140332D01*
X0175530Y0140350D01*
X0175377Y0140371D01*
X0175224Y0140397D01*
X0175073Y0140427D01*
X0174922Y0140460D01*
X0174772Y0140498D01*
X0174623Y0140539D01*
X0174475Y0140584D01*
X0174329Y0140633D01*
X0174183Y0140686D01*
X0174040Y0140742D01*
X0173897Y0140802D01*
X0173757Y0140866D01*
X0173617Y0140933D01*
X0173480Y0141004D01*
X0173345Y0141078D01*
X0173211Y0141156D01*
X0173080Y0141237D01*
X0172951Y0141322D01*
X0172823Y0141410D01*
X0172699Y0141501D01*
X0172576Y0141595D01*
X0172456Y0141693D01*
X0172339Y0141793D01*
X0172224Y0141897D01*
X0172112Y0142003D01*
X0172003Y0142112D01*
X0171897Y0142224D01*
X0171793Y0142339D01*
X0171693Y0142456D01*
X0171595Y0142576D01*
X0171501Y0142699D01*
X0171410Y0142823D01*
X0171322Y0142951D01*
X0171237Y0143080D01*
X0171156Y0143211D01*
X0171078Y0143345D01*
X0171004Y0143480D01*
X0170933Y0143617D01*
X0170866Y0143757D01*
X0170802Y0143897D01*
X0170742Y0144040D01*
X0170686Y0144183D01*
X0170633Y0144329D01*
X0170584Y0144475D01*
X0170539Y0144623D01*
X0170498Y0144772D01*
X0170460Y0144922D01*
X0170427Y0145073D01*
X0170397Y0145224D01*
X0170371Y0145377D01*
X0170350Y0145530D01*
X0170332Y0145683D01*
X0170318Y0145837D01*
X0170308Y0145991D01*
X0170302Y0146146D01*
X0170300Y0146300D01*
X0295300Y0146300D02*
X0295302Y0146454D01*
X0295308Y0146609D01*
X0295318Y0146763D01*
X0295332Y0146917D01*
X0295350Y0147070D01*
X0295371Y0147223D01*
X0295397Y0147376D01*
X0295427Y0147527D01*
X0295460Y0147678D01*
X0295498Y0147828D01*
X0295539Y0147977D01*
X0295584Y0148125D01*
X0295633Y0148271D01*
X0295686Y0148417D01*
X0295742Y0148560D01*
X0295802Y0148703D01*
X0295866Y0148843D01*
X0295933Y0148983D01*
X0296004Y0149120D01*
X0296078Y0149255D01*
X0296156Y0149389D01*
X0296237Y0149520D01*
X0296322Y0149649D01*
X0296410Y0149777D01*
X0296501Y0149901D01*
X0296595Y0150024D01*
X0296693Y0150144D01*
X0296793Y0150261D01*
X0296897Y0150376D01*
X0297003Y0150488D01*
X0297112Y0150597D01*
X0297224Y0150703D01*
X0297339Y0150807D01*
X0297456Y0150907D01*
X0297576Y0151005D01*
X0297699Y0151099D01*
X0297823Y0151190D01*
X0297951Y0151278D01*
X0298080Y0151363D01*
X0298211Y0151444D01*
X0298345Y0151522D01*
X0298480Y0151596D01*
X0298617Y0151667D01*
X0298757Y0151734D01*
X0298897Y0151798D01*
X0299040Y0151858D01*
X0299183Y0151914D01*
X0299329Y0151967D01*
X0299475Y0152016D01*
X0299623Y0152061D01*
X0299772Y0152102D01*
X0299922Y0152140D01*
X0300073Y0152173D01*
X0300224Y0152203D01*
X0300377Y0152229D01*
X0300530Y0152250D01*
X0300683Y0152268D01*
X0300837Y0152282D01*
X0300991Y0152292D01*
X0301146Y0152298D01*
X0301300Y0152300D01*
X0301454Y0152298D01*
X0301609Y0152292D01*
X0301763Y0152282D01*
X0301917Y0152268D01*
X0302070Y0152250D01*
X0302223Y0152229D01*
X0302376Y0152203D01*
X0302527Y0152173D01*
X0302678Y0152140D01*
X0302828Y0152102D01*
X0302977Y0152061D01*
X0303125Y0152016D01*
X0303271Y0151967D01*
X0303417Y0151914D01*
X0303560Y0151858D01*
X0303703Y0151798D01*
X0303843Y0151734D01*
X0303983Y0151667D01*
X0304120Y0151596D01*
X0304255Y0151522D01*
X0304389Y0151444D01*
X0304520Y0151363D01*
X0304649Y0151278D01*
X0304777Y0151190D01*
X0304901Y0151099D01*
X0305024Y0151005D01*
X0305144Y0150907D01*
X0305261Y0150807D01*
X0305376Y0150703D01*
X0305488Y0150597D01*
X0305597Y0150488D01*
X0305703Y0150376D01*
X0305807Y0150261D01*
X0305907Y0150144D01*
X0306005Y0150024D01*
X0306099Y0149901D01*
X0306190Y0149777D01*
X0306278Y0149649D01*
X0306363Y0149520D01*
X0306444Y0149389D01*
X0306522Y0149255D01*
X0306596Y0149120D01*
X0306667Y0148983D01*
X0306734Y0148843D01*
X0306798Y0148703D01*
X0306858Y0148560D01*
X0306914Y0148417D01*
X0306967Y0148271D01*
X0307016Y0148125D01*
X0307061Y0147977D01*
X0307102Y0147828D01*
X0307140Y0147678D01*
X0307173Y0147527D01*
X0307203Y0147376D01*
X0307229Y0147223D01*
X0307250Y0147070D01*
X0307268Y0146917D01*
X0307282Y0146763D01*
X0307292Y0146609D01*
X0307298Y0146454D01*
X0307300Y0146300D01*
X0307298Y0146146D01*
X0307292Y0145991D01*
X0307282Y0145837D01*
X0307268Y0145683D01*
X0307250Y0145530D01*
X0307229Y0145377D01*
X0307203Y0145224D01*
X0307173Y0145073D01*
X0307140Y0144922D01*
X0307102Y0144772D01*
X0307061Y0144623D01*
X0307016Y0144475D01*
X0306967Y0144329D01*
X0306914Y0144183D01*
X0306858Y0144040D01*
X0306798Y0143897D01*
X0306734Y0143757D01*
X0306667Y0143617D01*
X0306596Y0143480D01*
X0306522Y0143345D01*
X0306444Y0143211D01*
X0306363Y0143080D01*
X0306278Y0142951D01*
X0306190Y0142823D01*
X0306099Y0142699D01*
X0306005Y0142576D01*
X0305907Y0142456D01*
X0305807Y0142339D01*
X0305703Y0142224D01*
X0305597Y0142112D01*
X0305488Y0142003D01*
X0305376Y0141897D01*
X0305261Y0141793D01*
X0305144Y0141693D01*
X0305024Y0141595D01*
X0304901Y0141501D01*
X0304777Y0141410D01*
X0304649Y0141322D01*
X0304520Y0141237D01*
X0304389Y0141156D01*
X0304255Y0141078D01*
X0304120Y0141004D01*
X0303983Y0140933D01*
X0303843Y0140866D01*
X0303703Y0140802D01*
X0303560Y0140742D01*
X0303417Y0140686D01*
X0303271Y0140633D01*
X0303125Y0140584D01*
X0302977Y0140539D01*
X0302828Y0140498D01*
X0302678Y0140460D01*
X0302527Y0140427D01*
X0302376Y0140397D01*
X0302223Y0140371D01*
X0302070Y0140350D01*
X0301917Y0140332D01*
X0301763Y0140318D01*
X0301609Y0140308D01*
X0301454Y0140302D01*
X0301300Y0140300D01*
X0301146Y0140302D01*
X0300991Y0140308D01*
X0300837Y0140318D01*
X0300683Y0140332D01*
X0300530Y0140350D01*
X0300377Y0140371D01*
X0300224Y0140397D01*
X0300073Y0140427D01*
X0299922Y0140460D01*
X0299772Y0140498D01*
X0299623Y0140539D01*
X0299475Y0140584D01*
X0299329Y0140633D01*
X0299183Y0140686D01*
X0299040Y0140742D01*
X0298897Y0140802D01*
X0298757Y0140866D01*
X0298617Y0140933D01*
X0298480Y0141004D01*
X0298345Y0141078D01*
X0298211Y0141156D01*
X0298080Y0141237D01*
X0297951Y0141322D01*
X0297823Y0141410D01*
X0297699Y0141501D01*
X0297576Y0141595D01*
X0297456Y0141693D01*
X0297339Y0141793D01*
X0297224Y0141897D01*
X0297112Y0142003D01*
X0297003Y0142112D01*
X0296897Y0142224D01*
X0296793Y0142339D01*
X0296693Y0142456D01*
X0296595Y0142576D01*
X0296501Y0142699D01*
X0296410Y0142823D01*
X0296322Y0142951D01*
X0296237Y0143080D01*
X0296156Y0143211D01*
X0296078Y0143345D01*
X0296004Y0143480D01*
X0295933Y0143617D01*
X0295866Y0143757D01*
X0295802Y0143897D01*
X0295742Y0144040D01*
X0295686Y0144183D01*
X0295633Y0144329D01*
X0295584Y0144475D01*
X0295539Y0144623D01*
X0295498Y0144772D01*
X0295460Y0144922D01*
X0295427Y0145073D01*
X0295397Y0145224D01*
X0295371Y0145377D01*
X0295350Y0145530D01*
X0295332Y0145683D01*
X0295318Y0145837D01*
X0295308Y0145991D01*
X0295302Y0146146D01*
X0295300Y0146300D01*
D11*
X0348800Y0181300D02*
X0358800Y0181300D01*
X0358800Y0191300D01*
X0358800Y0201300D01*
X0358800Y0211300D01*
X0348800Y0211300D01*
X0348800Y0201300D01*
X0348800Y0191300D01*
X0348800Y0181300D01*
X0348800Y0191300D02*
X0358800Y0191300D01*
X0358800Y0201300D02*
X0348800Y0201300D01*
X0326300Y0218800D02*
X0326300Y0228800D01*
X0316300Y0228800D01*
X0306300Y0228800D01*
X0296300Y0228800D01*
X0286300Y0228800D01*
X0286300Y0218800D01*
X0296300Y0218800D01*
X0306300Y0218800D01*
X0316300Y0218800D01*
X0326300Y0218800D01*
X0316300Y0218800D02*
X0316300Y0228800D01*
X0306300Y0228800D02*
X0306300Y0218800D01*
X0296300Y0218800D02*
X0296300Y0228800D01*
X0261300Y0228800D02*
X0261300Y0218800D01*
X0251300Y0218800D01*
X0251300Y0228800D01*
X0261300Y0228800D01*
X0251300Y0228800D02*
X0241300Y0228800D01*
X0231300Y0228800D01*
X0221300Y0228800D01*
X0221300Y0218800D01*
X0231300Y0218800D01*
X0241300Y0218800D01*
X0251300Y0218800D01*
X0241300Y0218800D02*
X0241300Y0228800D01*
X0231300Y0228800D02*
X0231300Y0218800D01*
X0186300Y0218800D02*
X0186300Y0228800D01*
X0176300Y0228800D01*
X0166300Y0228800D01*
X0156300Y0228800D01*
X0146300Y0228800D01*
X0146300Y0218800D01*
X0156300Y0218800D01*
X0166300Y0218800D01*
X0176300Y0218800D01*
X0186300Y0218800D01*
X0176300Y0218800D02*
X0176300Y0228800D01*
X0166300Y0228800D02*
X0166300Y0218800D01*
X0156300Y0218800D02*
X0156300Y0228800D01*
X0126300Y0228800D02*
X0126300Y0218800D01*
X0116300Y0218800D01*
X0116300Y0228800D01*
X0126300Y0228800D01*
X0116300Y0228800D02*
X0106300Y0228800D01*
X0096300Y0228800D01*
X0086300Y0228800D01*
X0086300Y0218800D01*
X0096300Y0218800D01*
X0106300Y0218800D01*
X0116300Y0218800D01*
X0106300Y0218800D02*
X0106300Y0228800D01*
X0096300Y0228800D02*
X0096300Y0218800D01*
X0058800Y0211300D02*
X0058800Y0201300D01*
X0048800Y0201300D01*
X0048800Y0211300D01*
X0058800Y0211300D01*
X0058800Y0201300D02*
X0058800Y0191300D01*
X0048800Y0191300D01*
X0048800Y0201300D01*
X0048800Y0191300D02*
X0048800Y0181300D01*
X0058800Y0181300D01*
X0058800Y0191300D01*
X0056730Y0190523D02*
X0056730Y0187320D01*
X0057797Y0186252D01*
X0059932Y0186252D01*
X0061000Y0187320D01*
X0061000Y0190523D01*
X0054595Y0190523D01*
X0056730Y0184084D02*
X0056730Y0183016D01*
X0058865Y0180881D01*
X0061000Y0180881D02*
X0056730Y0180881D01*
X0057797Y0178706D02*
X0056730Y0177638D01*
X0056730Y0175503D01*
X0058865Y0175503D02*
X0059932Y0174436D01*
X0061000Y0175503D01*
X0061000Y0178706D01*
X0057797Y0178706D01*
X0058865Y0178706D02*
X0058865Y0175503D01*
X0059932Y0172261D02*
X0057797Y0172261D01*
X0056730Y0171193D01*
X0056730Y0169058D01*
X0057797Y0167990D01*
X0059932Y0167990D01*
X0061000Y0169058D01*
X0061000Y0171193D01*
X0059932Y0172261D01*
X0059932Y0165815D02*
X0061000Y0164747D01*
X0061000Y0161545D01*
X0054595Y0161545D01*
X0054595Y0164747D01*
X0055662Y0165815D01*
X0056730Y0165815D01*
X0057797Y0164747D01*
X0057797Y0161545D01*
X0057797Y0164747D02*
X0058865Y0165815D01*
X0059932Y0165815D01*
X0061000Y0152924D02*
X0061000Y0149721D01*
X0059932Y0148654D01*
X0056730Y0148654D01*
X0056730Y0146479D02*
X0056730Y0143276D01*
X0057797Y0142208D01*
X0058865Y0143276D01*
X0058865Y0145411D01*
X0059932Y0146479D01*
X0061000Y0145411D01*
X0061000Y0142208D01*
X0061000Y0140033D02*
X0057797Y0140033D01*
X0056730Y0138965D01*
X0056730Y0135763D01*
X0061000Y0135763D01*
X0058865Y0133588D02*
X0058865Y0129317D01*
X0059932Y0129317D02*
X0057797Y0129317D01*
X0056730Y0130385D01*
X0056730Y0132520D01*
X0057797Y0133588D01*
X0058865Y0133588D01*
X0061000Y0132520D02*
X0061000Y0130385D01*
X0059932Y0129317D01*
X0058865Y0127142D02*
X0058865Y0122872D01*
X0059932Y0122872D02*
X0057797Y0122872D01*
X0056730Y0123939D01*
X0056730Y0126074D01*
X0057797Y0127142D01*
X0058865Y0127142D01*
X0061000Y0126074D02*
X0061000Y0123939D01*
X0059932Y0122872D01*
X0054595Y0120697D02*
X0054595Y0116426D01*
X0054595Y0118561D02*
X0061000Y0118561D01*
X0059932Y0107806D02*
X0055662Y0107806D01*
X0054595Y0106738D01*
X0054595Y0104603D01*
X0055662Y0103535D01*
X0059932Y0103535D01*
X0061000Y0104603D01*
X0061000Y0106738D01*
X0059932Y0107806D01*
X0061000Y0101360D02*
X0054595Y0101360D01*
X0056730Y0099225D01*
X0054595Y0097090D01*
X0061000Y0097090D01*
X0059932Y0094915D02*
X0055662Y0094915D01*
X0054595Y0093847D01*
X0054595Y0091712D01*
X0055662Y0090644D01*
X0059932Y0090644D01*
X0061000Y0091712D01*
X0061000Y0093847D01*
X0059932Y0094915D01*
X0059932Y0088469D02*
X0061000Y0087401D01*
X0061000Y0085266D01*
X0059932Y0084199D01*
X0055662Y0084199D01*
X0054595Y0085266D01*
X0054595Y0087401D01*
X0055662Y0088469D01*
X0069595Y0078807D02*
X0070662Y0079875D01*
X0074932Y0075605D01*
X0076000Y0076672D01*
X0076000Y0078807D01*
X0074932Y0079875D01*
X0070662Y0079875D01*
X0069595Y0078807D02*
X0069595Y0076672D01*
X0070662Y0075605D01*
X0074932Y0075605D01*
X0074932Y0073450D02*
X0076000Y0073450D01*
X0076000Y0072382D01*
X0074932Y0072382D01*
X0074932Y0073450D01*
X0076000Y0070207D02*
X0076000Y0065936D01*
X0076000Y0068072D02*
X0069595Y0068072D01*
X0071730Y0065936D01*
X0071730Y0063761D02*
X0076000Y0061626D01*
X0071730Y0059491D01*
X0072797Y0057316D02*
X0073865Y0057316D01*
X0073865Y0053045D01*
X0074932Y0053045D02*
X0072797Y0053045D01*
X0071730Y0054113D01*
X0071730Y0056248D01*
X0072797Y0057316D01*
X0076000Y0056248D02*
X0076000Y0054113D01*
X0074932Y0053045D01*
X0076000Y0050870D02*
X0073865Y0048735D01*
X0073865Y0049803D02*
X0073865Y0046600D01*
X0076000Y0046600D02*
X0069595Y0046600D01*
X0069595Y0049803D01*
X0070662Y0050870D01*
X0072797Y0050870D01*
X0073865Y0049803D01*
X0086300Y0048800D02*
X0086300Y0058800D01*
X0096300Y0058800D01*
X0096300Y0048800D01*
X0086300Y0048800D01*
X0096300Y0048800D02*
X0106300Y0048800D01*
X0116300Y0048800D01*
X0126300Y0048800D01*
X0126300Y0058800D01*
X0116300Y0058800D01*
X0106300Y0058800D01*
X0096300Y0058800D01*
X0106300Y0058800D02*
X0106300Y0048800D01*
X0116300Y0048800D02*
X0116300Y0058800D01*
X0150300Y0059300D02*
X0150300Y0049300D01*
X0160300Y0049300D01*
X0170300Y0049300D01*
X0180300Y0049300D01*
X0190300Y0049300D01*
X0190300Y0059300D01*
X0180300Y0059300D01*
X0170300Y0059300D01*
X0160300Y0059300D01*
X0150300Y0059300D01*
X0160300Y0059300D02*
X0160300Y0049300D01*
X0170300Y0049300D02*
X0170300Y0059300D01*
X0180300Y0059300D02*
X0180300Y0049300D01*
X0221300Y0048800D02*
X0231300Y0048800D01*
X0241300Y0048800D01*
X0251300Y0048800D01*
X0261300Y0048800D01*
X0261300Y0058800D01*
X0251300Y0058800D01*
X0241300Y0058800D01*
X0231300Y0058800D01*
X0221300Y0058800D01*
X0221300Y0048800D01*
X0231300Y0048800D02*
X0231300Y0058800D01*
X0241300Y0058800D02*
X0241300Y0048800D01*
X0251300Y0048800D02*
X0251300Y0058800D01*
X0286300Y0058800D02*
X0286300Y0048800D01*
X0296300Y0048800D01*
X0306300Y0048800D01*
X0316300Y0048800D01*
X0326300Y0048800D01*
X0326300Y0058800D01*
X0316300Y0058800D01*
X0306300Y0058800D01*
X0296300Y0058800D01*
X0286300Y0058800D01*
X0296300Y0058800D02*
X0296300Y0048800D01*
X0306300Y0048800D02*
X0306300Y0058800D01*
X0316300Y0058800D02*
X0316300Y0048800D01*
X0349595Y0051600D02*
X0353865Y0051600D01*
X0356000Y0053735D01*
X0353865Y0055870D01*
X0349595Y0055870D01*
X0350662Y0058045D02*
X0354932Y0058045D01*
X0356000Y0059113D01*
X0356000Y0061248D01*
X0354932Y0062316D01*
X0354932Y0064491D02*
X0356000Y0065559D01*
X0356000Y0067694D01*
X0354932Y0068761D01*
X0350662Y0068761D02*
X0349595Y0067694D01*
X0349595Y0065559D01*
X0350662Y0064491D01*
X0354932Y0064491D01*
X0350662Y0062316D02*
X0349595Y0061248D01*
X0349595Y0059113D01*
X0350662Y0058045D01*
X0354932Y0077382D02*
X0353865Y0078450D01*
X0353865Y0081652D01*
X0352797Y0081652D02*
X0356000Y0081652D01*
X0356000Y0078450D01*
X0354932Y0077382D01*
X0351730Y0078450D02*
X0351730Y0080585D01*
X0352797Y0081652D01*
X0351730Y0083827D02*
X0351730Y0085963D01*
X0350662Y0084895D02*
X0354932Y0084895D01*
X0356000Y0085963D01*
X0356000Y0094570D02*
X0351730Y0094570D01*
X0351730Y0097773D01*
X0352797Y0098840D01*
X0356000Y0098840D01*
X0354932Y0101015D02*
X0353865Y0102083D01*
X0353865Y0105286D01*
X0352797Y0105286D02*
X0356000Y0105286D01*
X0356000Y0102083D01*
X0354932Y0101015D01*
X0351730Y0102083D02*
X0351730Y0104218D01*
X0352797Y0105286D01*
X0351730Y0107461D02*
X0351730Y0108529D01*
X0352797Y0109596D01*
X0351730Y0110664D01*
X0352797Y0111731D01*
X0356000Y0111731D01*
X0356000Y0109596D02*
X0352797Y0109596D01*
X0351730Y0107461D02*
X0356000Y0107461D01*
X0354932Y0113906D02*
X0352797Y0113906D01*
X0351730Y0114974D01*
X0351730Y0117109D01*
X0352797Y0118177D01*
X0353865Y0118177D01*
X0353865Y0113906D01*
X0354932Y0113906D02*
X0356000Y0114974D01*
X0356000Y0117109D01*
X0063135Y0150789D02*
X0063135Y0151856D01*
X0062068Y0152924D01*
X0056730Y0152924D01*
X0056730Y0075585D02*
X0056730Y0074517D01*
X0058865Y0072382D01*
X0061000Y0072382D02*
X0056730Y0072382D01*
X0057797Y0070207D02*
X0056730Y0069139D01*
X0056730Y0067004D01*
X0057797Y0065936D01*
X0059932Y0065936D01*
X0061000Y0067004D01*
X0061000Y0069139D01*
X0058865Y0070207D02*
X0058865Y0065936D01*
X0059932Y0063761D02*
X0061000Y0062694D01*
X0061000Y0059491D01*
X0063135Y0059491D02*
X0056730Y0059491D01*
X0056730Y0062694D01*
X0057797Y0063761D01*
X0059932Y0063761D01*
X0061000Y0057316D02*
X0056730Y0057316D01*
X0061000Y0057316D02*
X0061000Y0054113D01*
X0059932Y0053045D01*
X0056730Y0053045D01*
X0055662Y0050870D02*
X0054595Y0049803D01*
X0054595Y0047668D01*
X0055662Y0046600D01*
X0056730Y0046600D01*
X0057797Y0047668D01*
X0057797Y0049803D01*
X0058865Y0050870D01*
X0059932Y0050870D01*
X0061000Y0049803D01*
X0061000Y0047668D01*
X0059932Y0046600D01*
X0058865Y0070207D02*
X0057797Y0070207D01*
D12*
X0091300Y0046300D02*
X0091300Y0023800D01*
X0101300Y0023800D02*
X0101300Y0046300D01*
X0111300Y0046300D02*
X0111300Y0023800D01*
X0121300Y0023800D02*
X0121300Y0046300D01*
X0155300Y0046800D02*
X0155300Y0024300D01*
X0165300Y0024300D02*
X0165300Y0046800D01*
X0175300Y0046800D02*
X0175300Y0024300D01*
X0185300Y0024300D02*
X0185300Y0046800D01*
X0226300Y0046300D02*
X0226300Y0023800D01*
X0236300Y0023800D02*
X0236300Y0046300D01*
X0246300Y0046300D02*
X0246300Y0023800D01*
X0256300Y0023800D02*
X0256300Y0046300D01*
X0291300Y0046300D02*
X0291300Y0023800D01*
X0301300Y0023800D02*
X0301300Y0046300D01*
X0311300Y0046300D02*
X0311300Y0023800D01*
X0321300Y0023800D02*
X0321300Y0046300D01*
X0361300Y0186300D02*
X0383800Y0186300D01*
X0383800Y0196300D02*
X0361300Y0196300D01*
X0361300Y0206300D02*
X0383800Y0206300D01*
X0321300Y0231300D02*
X0321300Y0253800D01*
X0311300Y0253800D02*
X0311300Y0231300D01*
X0301300Y0231300D02*
X0301300Y0253800D01*
X0291300Y0253800D02*
X0291300Y0231300D01*
X0256300Y0231300D02*
X0256300Y0253800D01*
X0246300Y0253800D02*
X0246300Y0231300D01*
X0236300Y0231300D02*
X0236300Y0253800D01*
X0226300Y0253800D02*
X0226300Y0231300D01*
X0181300Y0231300D02*
X0181300Y0253800D01*
X0171300Y0253800D02*
X0171300Y0231300D01*
X0161300Y0231300D02*
X0161300Y0253800D01*
X0151300Y0253800D02*
X0151300Y0231300D01*
X0121300Y0231300D02*
X0121300Y0253800D01*
X0111300Y0253800D02*
X0111300Y0231300D01*
X0101300Y0231300D02*
X0101300Y0253800D01*
X0091300Y0253800D02*
X0091300Y0231300D01*
X0046300Y0206300D02*
X0023800Y0206300D01*
X0023800Y0196300D02*
X0046300Y0196300D01*
X0046300Y0186300D02*
X0023800Y0186300D01*
D13*
X0047800Y0186300D03*
X0047800Y0196300D03*
X0047800Y0206300D03*
X0359800Y0206300D03*
X0359800Y0196300D03*
X0359800Y0186300D03*
D14*
X0346800Y0186300D03*
X0346800Y0196300D03*
X0346800Y0206300D03*
X0060800Y0206300D03*
X0060800Y0196300D03*
X0060800Y0186300D03*
D15*
X0062738Y0178554D02*
X0062738Y0174050D01*
X0065741Y0174050D01*
X0067342Y0174050D02*
X0067342Y0178554D01*
X0070345Y0174050D01*
X0070345Y0178554D01*
X0071946Y0177803D02*
X0071946Y0174801D01*
X0072697Y0174050D01*
X0074198Y0174050D01*
X0074949Y0174801D01*
X0074949Y0177803D02*
X0074198Y0178554D01*
X0072697Y0178554D01*
X0071946Y0177803D01*
X0065741Y0178554D02*
X0062738Y0178554D01*
X0062738Y0176302D02*
X0064239Y0176302D01*
X0061137Y0173299D02*
X0058134Y0173299D01*
X0056533Y0174050D02*
X0053530Y0174050D01*
X0053530Y0178554D01*
X0051929Y0177803D02*
X0051929Y0177053D01*
X0051178Y0176302D01*
X0048926Y0176302D01*
X0048926Y0174050D02*
X0048926Y0178554D01*
X0051178Y0178554D01*
X0051929Y0177803D01*
X0051178Y0176302D02*
X0051929Y0175551D01*
X0051929Y0174801D01*
X0051178Y0174050D01*
X0048926Y0174050D01*
X0083800Y0158800D02*
X0083800Y0153800D01*
X0090050Y0153800D01*
X0090118Y0153802D01*
X0090185Y0153807D01*
X0090252Y0153816D01*
X0090319Y0153829D01*
X0090384Y0153846D01*
X0090449Y0153865D01*
X0090513Y0153889D01*
X0090575Y0153916D01*
X0090636Y0153946D01*
X0090694Y0153979D01*
X0090751Y0154015D01*
X0090806Y0154055D01*
X0090859Y0154097D01*
X0090910Y0154143D01*
X0090957Y0154190D01*
X0091003Y0154241D01*
X0091045Y0154294D01*
X0091085Y0154349D01*
X0091121Y0154406D01*
X0091154Y0154464D01*
X0091184Y0154525D01*
X0091211Y0154587D01*
X0091235Y0154651D01*
X0091254Y0154716D01*
X0091271Y0154781D01*
X0091284Y0154848D01*
X0091293Y0154915D01*
X0091298Y0154982D01*
X0091300Y0155050D01*
X0091300Y0157550D01*
X0091298Y0157618D01*
X0091293Y0157685D01*
X0091284Y0157752D01*
X0091271Y0157819D01*
X0091254Y0157884D01*
X0091235Y0157949D01*
X0091211Y0158013D01*
X0091184Y0158075D01*
X0091154Y0158136D01*
X0091121Y0158194D01*
X0091085Y0158251D01*
X0091045Y0158306D01*
X0091003Y0158359D01*
X0090957Y0158410D01*
X0090910Y0158457D01*
X0090859Y0158503D01*
X0090806Y0158545D01*
X0090751Y0158585D01*
X0090694Y0158621D01*
X0090636Y0158654D01*
X0090575Y0158684D01*
X0090513Y0158711D01*
X0090449Y0158735D01*
X0090384Y0158754D01*
X0090319Y0158771D01*
X0090252Y0158784D01*
X0090185Y0158793D01*
X0090118Y0158798D01*
X0090050Y0158800D01*
X0083800Y0158800D01*
X0088800Y0161300D02*
X0088800Y0166300D01*
X0093800Y0166300D01*
X0093800Y0161300D01*
X0096300Y0158800D02*
X0098131Y0158800D01*
X0099171Y0158243D02*
X0101300Y0155050D01*
X0101300Y0153800D02*
X0106300Y0153800D01*
X0106300Y0158800D01*
X0101300Y0158800D01*
X0099171Y0158243D02*
X0099132Y0158299D01*
X0099089Y0158353D01*
X0099044Y0158404D01*
X0098996Y0158452D01*
X0098946Y0158498D01*
X0098893Y0158541D01*
X0098837Y0158581D01*
X0098780Y0158618D01*
X0098721Y0158652D01*
X0098660Y0158683D01*
X0098597Y0158710D01*
X0098533Y0158734D01*
X0098468Y0158754D01*
X0098402Y0158770D01*
X0098335Y0158783D01*
X0098267Y0158793D01*
X0098199Y0158798D01*
X0098131Y0158800D01*
X0096300Y0158800D02*
X0096300Y0151300D01*
X0101300Y0151300D01*
X0106300Y0151300D01*
X0106300Y0148800D02*
X0101300Y0148800D01*
X0101300Y0146300D02*
X0106300Y0146300D01*
X0106300Y0143800D02*
X0101300Y0143800D01*
X0101300Y0141300D02*
X0096300Y0141300D01*
X0096300Y0133800D01*
X0098131Y0133800D01*
X0099171Y0134357D02*
X0101300Y0137550D01*
X0101300Y0138800D02*
X0106300Y0138800D01*
X0106300Y0133800D01*
X0101300Y0133800D01*
X0099171Y0134357D02*
X0099132Y0134301D01*
X0099089Y0134247D01*
X0099044Y0134196D01*
X0098996Y0134148D01*
X0098946Y0134102D01*
X0098893Y0134059D01*
X0098837Y0134019D01*
X0098780Y0133982D01*
X0098721Y0133948D01*
X0098660Y0133917D01*
X0098597Y0133890D01*
X0098533Y0133866D01*
X0098468Y0133846D01*
X0098402Y0133830D01*
X0098335Y0133817D01*
X0098267Y0133807D01*
X0098199Y0133802D01*
X0098131Y0133800D01*
X0093800Y0131300D02*
X0093800Y0126300D01*
X0088800Y0126300D01*
X0088800Y0131300D01*
X0090050Y0133800D02*
X0083800Y0133800D01*
X0083800Y0138800D01*
X0090050Y0138800D01*
X0090118Y0138798D01*
X0090185Y0138793D01*
X0090252Y0138784D01*
X0090319Y0138771D01*
X0090384Y0138754D01*
X0090449Y0138735D01*
X0090513Y0138711D01*
X0090575Y0138684D01*
X0090636Y0138654D01*
X0090694Y0138621D01*
X0090751Y0138585D01*
X0090806Y0138545D01*
X0090859Y0138503D01*
X0090910Y0138457D01*
X0090957Y0138410D01*
X0091003Y0138359D01*
X0091045Y0138306D01*
X0091085Y0138251D01*
X0091121Y0138194D01*
X0091154Y0138136D01*
X0091184Y0138075D01*
X0091211Y0138013D01*
X0091235Y0137949D01*
X0091254Y0137884D01*
X0091271Y0137819D01*
X0091284Y0137752D01*
X0091293Y0137685D01*
X0091298Y0137618D01*
X0091300Y0137550D01*
X0091300Y0135050D01*
X0091298Y0134982D01*
X0091293Y0134915D01*
X0091284Y0134848D01*
X0091271Y0134781D01*
X0091254Y0134716D01*
X0091235Y0134651D01*
X0091211Y0134587D01*
X0091184Y0134525D01*
X0091154Y0134464D01*
X0091121Y0134406D01*
X0091085Y0134349D01*
X0091045Y0134294D01*
X0091003Y0134241D01*
X0090957Y0134190D01*
X0090910Y0134143D01*
X0090859Y0134097D01*
X0090806Y0134055D01*
X0090751Y0134015D01*
X0090694Y0133979D01*
X0090636Y0133946D01*
X0090575Y0133916D01*
X0090513Y0133889D01*
X0090449Y0133865D01*
X0090384Y0133846D01*
X0090319Y0133829D01*
X0090252Y0133816D01*
X0090185Y0133807D01*
X0090118Y0133802D01*
X0090050Y0133800D01*
X0101300Y0141300D02*
X0106300Y0141300D01*
X0111300Y0133800D02*
X0111300Y0123800D01*
X0121300Y0123800D01*
X0121300Y0133800D01*
X0161300Y0133800D01*
X0161300Y0123800D01*
X0121300Y0123800D01*
X0121300Y0133800D02*
X0111300Y0133800D01*
X0148800Y0142300D02*
X0148800Y0150300D01*
X0148802Y0150360D01*
X0148807Y0150421D01*
X0148816Y0150480D01*
X0148829Y0150539D01*
X0148845Y0150598D01*
X0148865Y0150655D01*
X0148888Y0150710D01*
X0148915Y0150765D01*
X0148944Y0150817D01*
X0148977Y0150868D01*
X0149013Y0150917D01*
X0149051Y0150963D01*
X0149093Y0151007D01*
X0149137Y0151049D01*
X0149183Y0151087D01*
X0149232Y0151123D01*
X0149283Y0151156D01*
X0149335Y0151185D01*
X0149390Y0151212D01*
X0149445Y0151235D01*
X0149502Y0151255D01*
X0149561Y0151271D01*
X0149620Y0151284D01*
X0149679Y0151293D01*
X0149740Y0151298D01*
X0149800Y0151300D01*
X0157800Y0151300D01*
X0157860Y0151298D01*
X0157921Y0151293D01*
X0157980Y0151284D01*
X0158039Y0151271D01*
X0158098Y0151255D01*
X0158155Y0151235D01*
X0158210Y0151212D01*
X0158265Y0151185D01*
X0158317Y0151156D01*
X0158368Y0151123D01*
X0158417Y0151087D01*
X0158463Y0151049D01*
X0158507Y0151007D01*
X0158549Y0150963D01*
X0158587Y0150917D01*
X0158623Y0150868D01*
X0158656Y0150817D01*
X0158685Y0150765D01*
X0158712Y0150710D01*
X0158735Y0150655D01*
X0158755Y0150598D01*
X0158771Y0150539D01*
X0158784Y0150480D01*
X0158793Y0150421D01*
X0158798Y0150360D01*
X0158800Y0150300D01*
X0158800Y0142300D01*
X0158798Y0142240D01*
X0158793Y0142179D01*
X0158784Y0142120D01*
X0158771Y0142061D01*
X0158755Y0142002D01*
X0158735Y0141945D01*
X0158712Y0141890D01*
X0158685Y0141835D01*
X0158656Y0141783D01*
X0158623Y0141732D01*
X0158587Y0141683D01*
X0158549Y0141637D01*
X0158507Y0141593D01*
X0158463Y0141551D01*
X0158417Y0141513D01*
X0158368Y0141477D01*
X0158317Y0141444D01*
X0158265Y0141415D01*
X0158210Y0141388D01*
X0158155Y0141365D01*
X0158098Y0141345D01*
X0158039Y0141329D01*
X0157980Y0141316D01*
X0157921Y0141307D01*
X0157860Y0141302D01*
X0157800Y0141300D01*
X0149800Y0141300D01*
X0149740Y0141302D01*
X0149679Y0141307D01*
X0149620Y0141316D01*
X0149561Y0141329D01*
X0149502Y0141345D01*
X0149445Y0141365D01*
X0149390Y0141388D01*
X0149335Y0141415D01*
X0149283Y0141444D01*
X0149232Y0141477D01*
X0149183Y0141513D01*
X0149137Y0141551D01*
X0149093Y0141593D01*
X0149051Y0141637D01*
X0149013Y0141683D01*
X0148977Y0141732D01*
X0148944Y0141783D01*
X0148915Y0141835D01*
X0148888Y0141890D01*
X0148865Y0141945D01*
X0148845Y0142002D01*
X0148829Y0142061D01*
X0148816Y0142120D01*
X0148807Y0142179D01*
X0148802Y0142240D01*
X0148800Y0142300D01*
X0167550Y0133800D02*
X0168800Y0133800D01*
X0168800Y0131300D01*
X0167550Y0131300D01*
X0168800Y0131300D02*
X0168800Y0128800D01*
X0167550Y0128800D01*
X0168800Y0128800D02*
X0168800Y0126300D01*
X0167550Y0126300D01*
X0168800Y0126300D02*
X0168800Y0124800D01*
X0168802Y0124740D01*
X0168807Y0124679D01*
X0168816Y0124620D01*
X0168829Y0124561D01*
X0168845Y0124502D01*
X0168865Y0124445D01*
X0168888Y0124390D01*
X0168915Y0124335D01*
X0168944Y0124283D01*
X0168977Y0124232D01*
X0169013Y0124183D01*
X0169051Y0124137D01*
X0169093Y0124093D01*
X0169137Y0124051D01*
X0169183Y0124013D01*
X0169232Y0123977D01*
X0169283Y0123944D01*
X0169335Y0123915D01*
X0169390Y0123888D01*
X0169445Y0123865D01*
X0169502Y0123845D01*
X0169561Y0123829D01*
X0169620Y0123816D01*
X0169679Y0123807D01*
X0169740Y0123802D01*
X0169800Y0123800D01*
X0171300Y0123800D01*
X0171300Y0122550D01*
X0171300Y0123800D02*
X0173800Y0123800D01*
X0173800Y0122550D01*
X0173800Y0123800D02*
X0176300Y0123800D01*
X0176300Y0122550D01*
X0176300Y0123800D02*
X0178800Y0123800D01*
X0178800Y0122550D01*
X0178800Y0123800D02*
X0180300Y0123800D01*
X0180360Y0123802D01*
X0180421Y0123807D01*
X0180480Y0123816D01*
X0180539Y0123829D01*
X0180598Y0123845D01*
X0180655Y0123865D01*
X0180710Y0123888D01*
X0180765Y0123915D01*
X0180817Y0123944D01*
X0180868Y0123977D01*
X0180917Y0124013D01*
X0180963Y0124051D01*
X0181007Y0124093D01*
X0181049Y0124137D01*
X0181087Y0124183D01*
X0181123Y0124232D01*
X0181156Y0124283D01*
X0181185Y0124335D01*
X0181212Y0124390D01*
X0181235Y0124445D01*
X0181255Y0124502D01*
X0181271Y0124561D01*
X0181284Y0124620D01*
X0181293Y0124679D01*
X0181298Y0124740D01*
X0181300Y0124800D01*
X0181300Y0126300D01*
X0182550Y0126300D01*
X0181300Y0126300D02*
X0181300Y0128800D01*
X0182550Y0128800D01*
X0181300Y0128800D02*
X0181300Y0131300D01*
X0182550Y0131300D01*
X0181300Y0131300D02*
X0181300Y0133800D01*
X0182550Y0133800D01*
X0181300Y0133800D02*
X0181300Y0135300D01*
X0181298Y0135360D01*
X0181293Y0135421D01*
X0181284Y0135480D01*
X0181271Y0135539D01*
X0181255Y0135598D01*
X0181235Y0135655D01*
X0181212Y0135710D01*
X0181185Y0135765D01*
X0181156Y0135817D01*
X0181123Y0135868D01*
X0181087Y0135917D01*
X0181049Y0135963D01*
X0181007Y0136007D01*
X0180963Y0136049D01*
X0180917Y0136087D01*
X0180868Y0136123D01*
X0180817Y0136156D01*
X0180765Y0136185D01*
X0180710Y0136212D01*
X0180655Y0136235D01*
X0180598Y0136255D01*
X0180539Y0136271D01*
X0180480Y0136284D01*
X0180421Y0136293D01*
X0180360Y0136298D01*
X0180300Y0136300D01*
X0178800Y0136300D01*
X0178800Y0137550D01*
X0178800Y0136300D02*
X0176300Y0136300D01*
X0176300Y0137550D01*
X0176300Y0136300D02*
X0173800Y0136300D01*
X0173800Y0137550D01*
X0173800Y0136300D02*
X0171300Y0136300D01*
X0171300Y0137550D01*
X0171300Y0136300D02*
X0169800Y0136300D01*
X0169740Y0136298D01*
X0169679Y0136293D01*
X0169620Y0136284D01*
X0169561Y0136271D01*
X0169502Y0136255D01*
X0169445Y0136235D01*
X0169390Y0136212D01*
X0169335Y0136185D01*
X0169283Y0136156D01*
X0169232Y0136123D01*
X0169183Y0136087D01*
X0169137Y0136049D01*
X0169093Y0136007D01*
X0169051Y0135963D01*
X0169013Y0135917D01*
X0168977Y0135868D01*
X0168944Y0135817D01*
X0168915Y0135765D01*
X0168888Y0135710D01*
X0168865Y0135655D01*
X0168845Y0135598D01*
X0168829Y0135539D01*
X0168816Y0135480D01*
X0168807Y0135421D01*
X0168802Y0135360D01*
X0168800Y0135300D01*
X0168800Y0133800D01*
X0251300Y0137300D02*
X0251300Y0155300D01*
X0251302Y0155360D01*
X0251307Y0155421D01*
X0251316Y0155480D01*
X0251329Y0155539D01*
X0251345Y0155598D01*
X0251365Y0155655D01*
X0251388Y0155710D01*
X0251415Y0155765D01*
X0251444Y0155817D01*
X0251477Y0155868D01*
X0251513Y0155917D01*
X0251551Y0155963D01*
X0251593Y0156007D01*
X0251637Y0156049D01*
X0251683Y0156087D01*
X0251732Y0156123D01*
X0251783Y0156156D01*
X0251835Y0156185D01*
X0251890Y0156212D01*
X0251945Y0156235D01*
X0252002Y0156255D01*
X0252061Y0156271D01*
X0252120Y0156284D01*
X0252179Y0156293D01*
X0252240Y0156298D01*
X0252300Y0156300D01*
X0265300Y0156300D01*
X0265360Y0156298D01*
X0265421Y0156293D01*
X0265480Y0156284D01*
X0265539Y0156271D01*
X0265598Y0156255D01*
X0265655Y0156235D01*
X0265710Y0156212D01*
X0265765Y0156185D01*
X0265817Y0156156D01*
X0265868Y0156123D01*
X0265917Y0156087D01*
X0265963Y0156049D01*
X0266007Y0156007D01*
X0266049Y0155963D01*
X0266087Y0155917D01*
X0266123Y0155868D01*
X0266156Y0155817D01*
X0266185Y0155765D01*
X0266212Y0155710D01*
X0266235Y0155655D01*
X0266255Y0155598D01*
X0266271Y0155539D01*
X0266284Y0155480D01*
X0266293Y0155421D01*
X0266298Y0155360D01*
X0266300Y0155300D01*
X0266300Y0137300D01*
X0266298Y0137240D01*
X0266293Y0137179D01*
X0266284Y0137120D01*
X0266271Y0137061D01*
X0266255Y0137002D01*
X0266235Y0136945D01*
X0266212Y0136890D01*
X0266185Y0136835D01*
X0266156Y0136783D01*
X0266123Y0136732D01*
X0266087Y0136683D01*
X0266049Y0136637D01*
X0266007Y0136593D01*
X0265963Y0136551D01*
X0265917Y0136513D01*
X0265868Y0136477D01*
X0265817Y0136444D01*
X0265765Y0136415D01*
X0265710Y0136388D01*
X0265655Y0136365D01*
X0265598Y0136345D01*
X0265539Y0136329D01*
X0265480Y0136316D01*
X0265421Y0136307D01*
X0265360Y0136302D01*
X0265300Y0136300D01*
X0252300Y0136300D01*
X0252240Y0136302D01*
X0252179Y0136307D01*
X0252120Y0136316D01*
X0252061Y0136329D01*
X0252002Y0136345D01*
X0251945Y0136365D01*
X0251890Y0136388D01*
X0251835Y0136415D01*
X0251783Y0136444D01*
X0251732Y0136477D01*
X0251683Y0136513D01*
X0251637Y0136551D01*
X0251593Y0136593D01*
X0251551Y0136637D01*
X0251513Y0136683D01*
X0251477Y0136732D01*
X0251444Y0136783D01*
X0251415Y0136835D01*
X0251388Y0136890D01*
X0251365Y0136945D01*
X0251345Y0137002D01*
X0251329Y0137061D01*
X0251316Y0137120D01*
X0251307Y0137179D01*
X0251302Y0137240D01*
X0251300Y0137300D01*
X0280050Y0137800D02*
X0280050Y0136050D01*
X0280052Y0135990D01*
X0280057Y0135929D01*
X0280066Y0135870D01*
X0280079Y0135811D01*
X0280095Y0135752D01*
X0280115Y0135695D01*
X0280138Y0135640D01*
X0280165Y0135585D01*
X0280194Y0135533D01*
X0280227Y0135482D01*
X0280263Y0135433D01*
X0280301Y0135387D01*
X0280343Y0135343D01*
X0280387Y0135301D01*
X0280433Y0135263D01*
X0280482Y0135227D01*
X0280533Y0135194D01*
X0280585Y0135165D01*
X0280640Y0135138D01*
X0280695Y0135115D01*
X0280752Y0135095D01*
X0280811Y0135079D01*
X0280870Y0135066D01*
X0280929Y0135057D01*
X0280990Y0135052D01*
X0281050Y0135050D01*
X0285300Y0135050D01*
X0285360Y0135052D01*
X0285421Y0135057D01*
X0285480Y0135066D01*
X0285539Y0135079D01*
X0285598Y0135095D01*
X0285655Y0135115D01*
X0285710Y0135138D01*
X0285765Y0135165D01*
X0285817Y0135194D01*
X0285868Y0135227D01*
X0285917Y0135263D01*
X0285963Y0135301D01*
X0286007Y0135343D01*
X0286049Y0135387D01*
X0286087Y0135433D01*
X0286123Y0135482D01*
X0286156Y0135533D01*
X0286185Y0135585D01*
X0286212Y0135640D01*
X0286235Y0135695D01*
X0286255Y0135752D01*
X0286271Y0135811D01*
X0286284Y0135870D01*
X0286293Y0135929D01*
X0286298Y0135990D01*
X0286300Y0136050D01*
X0286300Y0137800D01*
X0286298Y0137860D01*
X0286293Y0137921D01*
X0286284Y0137980D01*
X0286271Y0138039D01*
X0286255Y0138098D01*
X0286235Y0138155D01*
X0286212Y0138210D01*
X0286185Y0138265D01*
X0286156Y0138317D01*
X0286123Y0138368D01*
X0286087Y0138417D01*
X0286049Y0138463D01*
X0286007Y0138507D01*
X0285963Y0138549D01*
X0285917Y0138587D01*
X0285868Y0138623D01*
X0285817Y0138656D01*
X0285765Y0138685D01*
X0285710Y0138712D01*
X0285655Y0138735D01*
X0285598Y0138755D01*
X0285539Y0138771D01*
X0285480Y0138784D01*
X0285421Y0138793D01*
X0285360Y0138798D01*
X0285300Y0138800D01*
X0281050Y0138800D01*
X0280990Y0138798D01*
X0280929Y0138793D01*
X0280870Y0138784D01*
X0280811Y0138771D01*
X0280752Y0138755D01*
X0280695Y0138735D01*
X0280640Y0138712D01*
X0280585Y0138685D01*
X0280533Y0138656D01*
X0280482Y0138623D01*
X0280433Y0138587D01*
X0280387Y0138549D01*
X0280343Y0138507D01*
X0280301Y0138463D01*
X0280263Y0138417D01*
X0280227Y0138368D01*
X0280194Y0138317D01*
X0280165Y0138265D01*
X0280138Y0138210D01*
X0280115Y0138155D01*
X0280095Y0138098D01*
X0280079Y0138039D01*
X0280066Y0137980D01*
X0280057Y0137921D01*
X0280052Y0137860D01*
X0280050Y0137800D01*
X0280050Y0131300D02*
X0280050Y0125050D01*
X0286300Y0125050D01*
X0316300Y0126300D02*
X0322800Y0126300D01*
X0322860Y0126302D01*
X0322921Y0126307D01*
X0322980Y0126316D01*
X0323039Y0126329D01*
X0323098Y0126345D01*
X0323155Y0126365D01*
X0323210Y0126388D01*
X0323265Y0126415D01*
X0323317Y0126444D01*
X0323368Y0126477D01*
X0323417Y0126513D01*
X0323463Y0126551D01*
X0323507Y0126593D01*
X0323549Y0126637D01*
X0323587Y0126683D01*
X0323623Y0126732D01*
X0323656Y0126783D01*
X0323685Y0126835D01*
X0323712Y0126890D01*
X0323735Y0126945D01*
X0323755Y0127002D01*
X0323771Y0127061D01*
X0323784Y0127120D01*
X0323793Y0127179D01*
X0323798Y0127240D01*
X0323800Y0127300D01*
X0323800Y0127800D01*
X0323798Y0127860D01*
X0323793Y0127921D01*
X0323784Y0127980D01*
X0323771Y0128039D01*
X0323755Y0128098D01*
X0323735Y0128155D01*
X0323712Y0128210D01*
X0323685Y0128265D01*
X0323656Y0128317D01*
X0323623Y0128368D01*
X0323587Y0128417D01*
X0323549Y0128463D01*
X0323507Y0128507D01*
X0323463Y0128549D01*
X0323417Y0128587D01*
X0323368Y0128623D01*
X0323317Y0128656D01*
X0323265Y0128685D01*
X0323210Y0128712D01*
X0323155Y0128735D01*
X0323098Y0128755D01*
X0323039Y0128771D01*
X0322980Y0128784D01*
X0322921Y0128793D01*
X0322860Y0128798D01*
X0322800Y0128800D01*
X0316300Y0128800D01*
X0316300Y0131300D02*
X0322800Y0131300D01*
X0322860Y0131302D01*
X0322921Y0131307D01*
X0322980Y0131316D01*
X0323039Y0131329D01*
X0323098Y0131345D01*
X0323155Y0131365D01*
X0323210Y0131388D01*
X0323265Y0131415D01*
X0323317Y0131444D01*
X0323368Y0131477D01*
X0323417Y0131513D01*
X0323463Y0131551D01*
X0323507Y0131593D01*
X0323549Y0131637D01*
X0323587Y0131683D01*
X0323623Y0131732D01*
X0323656Y0131783D01*
X0323685Y0131835D01*
X0323712Y0131890D01*
X0323735Y0131945D01*
X0323755Y0132002D01*
X0323771Y0132061D01*
X0323784Y0132120D01*
X0323793Y0132179D01*
X0323798Y0132240D01*
X0323800Y0132300D01*
X0323800Y0132800D01*
X0323798Y0132860D01*
X0323793Y0132921D01*
X0323784Y0132980D01*
X0323771Y0133039D01*
X0323755Y0133098D01*
X0323735Y0133155D01*
X0323712Y0133210D01*
X0323685Y0133265D01*
X0323656Y0133317D01*
X0323623Y0133368D01*
X0323587Y0133417D01*
X0323549Y0133463D01*
X0323507Y0133507D01*
X0323463Y0133549D01*
X0323417Y0133587D01*
X0323368Y0133623D01*
X0323317Y0133656D01*
X0323265Y0133685D01*
X0323210Y0133712D01*
X0323155Y0133735D01*
X0323098Y0133755D01*
X0323039Y0133771D01*
X0322980Y0133784D01*
X0322921Y0133793D01*
X0322860Y0133798D01*
X0322800Y0133800D01*
X0316300Y0133800D01*
X0316300Y0136300D02*
X0322800Y0136300D01*
X0322860Y0136302D01*
X0322921Y0136307D01*
X0322980Y0136316D01*
X0323039Y0136329D01*
X0323098Y0136345D01*
X0323155Y0136365D01*
X0323210Y0136388D01*
X0323265Y0136415D01*
X0323317Y0136444D01*
X0323368Y0136477D01*
X0323417Y0136513D01*
X0323463Y0136551D01*
X0323507Y0136593D01*
X0323549Y0136637D01*
X0323587Y0136683D01*
X0323623Y0136732D01*
X0323656Y0136783D01*
X0323685Y0136835D01*
X0323712Y0136890D01*
X0323735Y0136945D01*
X0323755Y0137002D01*
X0323771Y0137061D01*
X0323784Y0137120D01*
X0323793Y0137179D01*
X0323798Y0137240D01*
X0323800Y0137300D01*
X0323800Y0137800D01*
X0323798Y0137860D01*
X0323793Y0137921D01*
X0323784Y0137980D01*
X0323771Y0138039D01*
X0323755Y0138098D01*
X0323735Y0138155D01*
X0323712Y0138210D01*
X0323685Y0138265D01*
X0323656Y0138317D01*
X0323623Y0138368D01*
X0323587Y0138417D01*
X0323549Y0138463D01*
X0323507Y0138507D01*
X0323463Y0138549D01*
X0323417Y0138587D01*
X0323368Y0138623D01*
X0323317Y0138656D01*
X0323265Y0138685D01*
X0323210Y0138712D01*
X0323155Y0138735D01*
X0323098Y0138755D01*
X0323039Y0138771D01*
X0322980Y0138784D01*
X0322921Y0138793D01*
X0322860Y0138798D01*
X0322800Y0138800D01*
X0316300Y0138800D01*
X0316300Y0141300D02*
X0322800Y0141300D01*
X0322860Y0141302D01*
X0322921Y0141307D01*
X0322980Y0141316D01*
X0323039Y0141329D01*
X0323098Y0141345D01*
X0323155Y0141365D01*
X0323210Y0141388D01*
X0323265Y0141415D01*
X0323317Y0141444D01*
X0323368Y0141477D01*
X0323417Y0141513D01*
X0323463Y0141551D01*
X0323507Y0141593D01*
X0323549Y0141637D01*
X0323587Y0141683D01*
X0323623Y0141732D01*
X0323656Y0141783D01*
X0323685Y0141835D01*
X0323712Y0141890D01*
X0323735Y0141945D01*
X0323755Y0142002D01*
X0323771Y0142061D01*
X0323784Y0142120D01*
X0323793Y0142179D01*
X0323798Y0142240D01*
X0323800Y0142300D01*
X0323800Y0142800D01*
X0323798Y0142860D01*
X0323793Y0142921D01*
X0323784Y0142980D01*
X0323771Y0143039D01*
X0323755Y0143098D01*
X0323735Y0143155D01*
X0323712Y0143210D01*
X0323685Y0143265D01*
X0323656Y0143317D01*
X0323623Y0143368D01*
X0323587Y0143417D01*
X0323549Y0143463D01*
X0323507Y0143507D01*
X0323463Y0143549D01*
X0323417Y0143587D01*
X0323368Y0143623D01*
X0323317Y0143656D01*
X0323265Y0143685D01*
X0323210Y0143712D01*
X0323155Y0143735D01*
X0323098Y0143755D01*
X0323039Y0143771D01*
X0322980Y0143784D01*
X0322921Y0143793D01*
X0322860Y0143798D01*
X0322800Y0143800D01*
X0316300Y0143800D01*
X0316300Y0146300D02*
X0322800Y0146300D01*
X0322860Y0146302D01*
X0322921Y0146307D01*
X0322980Y0146316D01*
X0323039Y0146329D01*
X0323098Y0146345D01*
X0323155Y0146365D01*
X0323210Y0146388D01*
X0323265Y0146415D01*
X0323317Y0146444D01*
X0323368Y0146477D01*
X0323417Y0146513D01*
X0323463Y0146551D01*
X0323507Y0146593D01*
X0323549Y0146637D01*
X0323587Y0146683D01*
X0323623Y0146732D01*
X0323656Y0146783D01*
X0323685Y0146835D01*
X0323712Y0146890D01*
X0323735Y0146945D01*
X0323755Y0147002D01*
X0323771Y0147061D01*
X0323784Y0147120D01*
X0323793Y0147179D01*
X0323798Y0147240D01*
X0323800Y0147300D01*
X0323800Y0147800D01*
X0323798Y0147860D01*
X0323793Y0147921D01*
X0323784Y0147980D01*
X0323771Y0148039D01*
X0323755Y0148098D01*
X0323735Y0148155D01*
X0323712Y0148210D01*
X0323685Y0148265D01*
X0323656Y0148317D01*
X0323623Y0148368D01*
X0323587Y0148417D01*
X0323549Y0148463D01*
X0323507Y0148507D01*
X0323463Y0148549D01*
X0323417Y0148587D01*
X0323368Y0148623D01*
X0323317Y0148656D01*
X0323265Y0148685D01*
X0323210Y0148712D01*
X0323155Y0148735D01*
X0323098Y0148755D01*
X0323039Y0148771D01*
X0322980Y0148784D01*
X0322921Y0148793D01*
X0322860Y0148798D01*
X0322800Y0148800D01*
X0316300Y0148800D01*
X0316300Y0151300D02*
X0322800Y0151300D01*
X0322860Y0151302D01*
X0322921Y0151307D01*
X0322980Y0151316D01*
X0323039Y0151329D01*
X0323098Y0151345D01*
X0323155Y0151365D01*
X0323210Y0151388D01*
X0323265Y0151415D01*
X0323317Y0151444D01*
X0323368Y0151477D01*
X0323417Y0151513D01*
X0323463Y0151551D01*
X0323507Y0151593D01*
X0323549Y0151637D01*
X0323587Y0151683D01*
X0323623Y0151732D01*
X0323656Y0151783D01*
X0323685Y0151835D01*
X0323712Y0151890D01*
X0323735Y0151945D01*
X0323755Y0152002D01*
X0323771Y0152061D01*
X0323784Y0152120D01*
X0323793Y0152179D01*
X0323798Y0152240D01*
X0323800Y0152300D01*
X0323800Y0152800D01*
X0323798Y0152860D01*
X0323793Y0152921D01*
X0323784Y0152980D01*
X0323771Y0153039D01*
X0323755Y0153098D01*
X0323735Y0153155D01*
X0323712Y0153210D01*
X0323685Y0153265D01*
X0323656Y0153317D01*
X0323623Y0153368D01*
X0323587Y0153417D01*
X0323549Y0153463D01*
X0323507Y0153507D01*
X0323463Y0153549D01*
X0323417Y0153587D01*
X0323368Y0153623D01*
X0323317Y0153656D01*
X0323265Y0153685D01*
X0323210Y0153712D01*
X0323155Y0153735D01*
X0323098Y0153755D01*
X0323039Y0153771D01*
X0322980Y0153784D01*
X0322921Y0153793D01*
X0322860Y0153798D01*
X0322800Y0153800D01*
X0316300Y0153800D01*
X0316300Y0156300D02*
X0322800Y0156300D01*
X0322860Y0156302D01*
X0322921Y0156307D01*
X0322980Y0156316D01*
X0323039Y0156329D01*
X0323098Y0156345D01*
X0323155Y0156365D01*
X0323210Y0156388D01*
X0323265Y0156415D01*
X0323317Y0156444D01*
X0323368Y0156477D01*
X0323417Y0156513D01*
X0323463Y0156551D01*
X0323507Y0156593D01*
X0323549Y0156637D01*
X0323587Y0156683D01*
X0323623Y0156732D01*
X0323656Y0156783D01*
X0323685Y0156835D01*
X0323712Y0156890D01*
X0323735Y0156945D01*
X0323755Y0157002D01*
X0323771Y0157061D01*
X0323784Y0157120D01*
X0323793Y0157179D01*
X0323798Y0157240D01*
X0323800Y0157300D01*
X0323800Y0157800D01*
X0323798Y0157860D01*
X0323793Y0157921D01*
X0323784Y0157980D01*
X0323771Y0158039D01*
X0323755Y0158098D01*
X0323735Y0158155D01*
X0323712Y0158210D01*
X0323685Y0158265D01*
X0323656Y0158317D01*
X0323623Y0158368D01*
X0323587Y0158417D01*
X0323549Y0158463D01*
X0323507Y0158507D01*
X0323463Y0158549D01*
X0323417Y0158587D01*
X0323368Y0158623D01*
X0323317Y0158656D01*
X0323265Y0158685D01*
X0323210Y0158712D01*
X0323155Y0158735D01*
X0323098Y0158755D01*
X0323039Y0158771D01*
X0322980Y0158784D01*
X0322921Y0158793D01*
X0322860Y0158798D01*
X0322800Y0158800D01*
X0316300Y0158800D01*
X0315050Y0166300D02*
X0311300Y0166300D01*
X0311232Y0166302D01*
X0311165Y0166307D01*
X0311098Y0166316D01*
X0311031Y0166329D01*
X0310966Y0166346D01*
X0310901Y0166365D01*
X0310837Y0166389D01*
X0310775Y0166416D01*
X0310714Y0166446D01*
X0310656Y0166479D01*
X0310599Y0166515D01*
X0310544Y0166555D01*
X0310491Y0166597D01*
X0310440Y0166643D01*
X0310393Y0166690D01*
X0310347Y0166741D01*
X0310305Y0166794D01*
X0310265Y0166849D01*
X0310229Y0166906D01*
X0310196Y0166964D01*
X0310166Y0167025D01*
X0310139Y0167087D01*
X0310115Y0167151D01*
X0310096Y0167216D01*
X0310079Y0167281D01*
X0310066Y0167348D01*
X0310057Y0167415D01*
X0310052Y0167482D01*
X0310050Y0167550D01*
X0310050Y0171300D01*
X0315050Y0167550D02*
X0315050Y0166300D01*
X0315050Y0167550D02*
X0315052Y0167618D01*
X0315057Y0167685D01*
X0315066Y0167752D01*
X0315079Y0167819D01*
X0315096Y0167884D01*
X0315115Y0167949D01*
X0315139Y0168013D01*
X0315166Y0168075D01*
X0315196Y0168136D01*
X0315229Y0168194D01*
X0315265Y0168251D01*
X0315305Y0168306D01*
X0315347Y0168359D01*
X0315393Y0168410D01*
X0315440Y0168457D01*
X0315491Y0168503D01*
X0315544Y0168545D01*
X0315599Y0168585D01*
X0315656Y0168621D01*
X0315714Y0168654D01*
X0315775Y0168684D01*
X0315837Y0168711D01*
X0315901Y0168735D01*
X0315966Y0168754D01*
X0316031Y0168771D01*
X0316098Y0168784D01*
X0316165Y0168793D01*
X0316232Y0168798D01*
X0316300Y0168800D01*
X0317550Y0168800D01*
X0301300Y0171300D02*
X0293800Y0171300D01*
X0286300Y0171300D02*
X0277300Y0171300D01*
X0277240Y0171298D01*
X0277179Y0171293D01*
X0277120Y0171284D01*
X0277061Y0171271D01*
X0277002Y0171255D01*
X0276945Y0171235D01*
X0276890Y0171212D01*
X0276835Y0171185D01*
X0276783Y0171156D01*
X0276732Y0171123D01*
X0276683Y0171087D01*
X0276637Y0171049D01*
X0276593Y0171007D01*
X0276551Y0170963D01*
X0276513Y0170917D01*
X0276477Y0170868D01*
X0276444Y0170817D01*
X0276415Y0170765D01*
X0276388Y0170710D01*
X0276365Y0170655D01*
X0276345Y0170598D01*
X0276329Y0170539D01*
X0276316Y0170480D01*
X0276307Y0170421D01*
X0276302Y0170360D01*
X0276300Y0170300D01*
X0276300Y0166300D01*
X0279046Y0211550D02*
X0282799Y0211550D01*
X0283550Y0212301D01*
X0283550Y0213802D01*
X0282799Y0214553D01*
X0279046Y0214553D01*
X0279797Y0216154D02*
X0280547Y0216154D01*
X0281298Y0216905D01*
X0281298Y0218406D01*
X0282049Y0219156D01*
X0282799Y0219156D01*
X0283550Y0218406D01*
X0283550Y0216905D01*
X0282799Y0216154D01*
X0279797Y0216154D02*
X0279046Y0216905D01*
X0279046Y0218406D01*
X0279797Y0219156D01*
X0279797Y0220758D02*
X0280547Y0220758D01*
X0281298Y0221508D01*
X0281298Y0223010D01*
X0282049Y0223760D01*
X0282799Y0223760D01*
X0283550Y0223010D01*
X0283550Y0221508D01*
X0282799Y0220758D01*
X0282049Y0220758D01*
X0281298Y0221508D01*
X0281298Y0223010D02*
X0280547Y0223760D01*
X0279797Y0223760D01*
X0279046Y0223010D01*
X0279046Y0221508D01*
X0279797Y0220758D01*
X0336550Y0218554D02*
X0336550Y0214050D01*
X0338802Y0214050D01*
X0339553Y0214801D01*
X0339553Y0215551D01*
X0338802Y0216302D01*
X0336550Y0216302D01*
X0336550Y0218554D02*
X0338802Y0218554D01*
X0339553Y0217803D01*
X0339553Y0217053D01*
X0338802Y0216302D01*
X0341154Y0215551D02*
X0343406Y0215551D01*
X0344156Y0216302D01*
X0344156Y0217803D01*
X0343406Y0218554D01*
X0341154Y0218554D01*
X0341154Y0214050D01*
X0342655Y0215551D02*
X0344156Y0214050D01*
X0345758Y0213299D02*
X0348760Y0213299D01*
X0350362Y0214050D02*
X0353364Y0214050D01*
X0354966Y0214050D02*
X0354966Y0218554D01*
X0357968Y0214050D01*
X0357968Y0218554D01*
X0359570Y0217803D02*
X0359570Y0214801D01*
X0360320Y0214050D01*
X0361822Y0214050D01*
X0362572Y0214801D01*
X0362572Y0217803D02*
X0361822Y0218554D01*
X0360320Y0218554D01*
X0359570Y0217803D01*
X0353364Y0218554D02*
X0350362Y0218554D01*
X0350362Y0214050D01*
X0350362Y0216302D02*
X0351863Y0216302D01*
X0218550Y0216905D02*
X0217799Y0216154D01*
X0218550Y0216905D02*
X0218550Y0218406D01*
X0217799Y0219156D01*
X0217049Y0219156D01*
X0216298Y0218406D01*
X0216298Y0216905D01*
X0215547Y0216154D01*
X0214797Y0216154D01*
X0214046Y0216905D01*
X0214046Y0218406D01*
X0214797Y0219156D01*
X0214046Y0220758D02*
X0214046Y0223760D01*
X0214797Y0223760D01*
X0217799Y0220758D01*
X0218550Y0220758D01*
X0217799Y0214553D02*
X0214046Y0214553D01*
X0214046Y0211550D02*
X0217799Y0211550D01*
X0218550Y0212301D01*
X0218550Y0213802D01*
X0217799Y0214553D01*
X0143550Y0213802D02*
X0143550Y0212301D01*
X0142799Y0211550D01*
X0139046Y0211550D01*
X0139046Y0214553D02*
X0142799Y0214553D01*
X0143550Y0213802D01*
X0142799Y0216154D02*
X0143550Y0216905D01*
X0143550Y0218406D01*
X0142799Y0219156D01*
X0142049Y0219156D01*
X0141298Y0218406D01*
X0141298Y0216905D01*
X0140547Y0216154D01*
X0139797Y0216154D01*
X0139046Y0216905D01*
X0139046Y0218406D01*
X0139797Y0219156D01*
X0141298Y0220758D02*
X0139797Y0222259D01*
X0139046Y0223760D01*
X0141298Y0223010D02*
X0141298Y0220758D01*
X0142799Y0220758D01*
X0143550Y0221508D01*
X0143550Y0223010D01*
X0142799Y0223760D01*
X0142049Y0223760D01*
X0141298Y0223010D01*
X0083550Y0223010D02*
X0083550Y0221508D01*
X0082799Y0220758D01*
X0081298Y0220758D02*
X0080547Y0222259D01*
X0080547Y0223010D01*
X0081298Y0223760D01*
X0082799Y0223760D01*
X0083550Y0223010D01*
X0081298Y0220758D02*
X0079046Y0220758D01*
X0079046Y0223760D01*
X0079797Y0219156D02*
X0079046Y0218406D01*
X0079046Y0216905D01*
X0079797Y0216154D01*
X0080547Y0216154D01*
X0081298Y0216905D01*
X0081298Y0218406D01*
X0082049Y0219156D01*
X0082799Y0219156D01*
X0083550Y0218406D01*
X0083550Y0216905D01*
X0082799Y0216154D01*
X0082799Y0214553D02*
X0079046Y0214553D01*
X0079046Y0211550D02*
X0082799Y0211550D01*
X0083550Y0212301D01*
X0083550Y0213802D01*
X0082799Y0214553D01*
X0193797Y0065449D02*
X0193046Y0064698D01*
X0193046Y0063197D01*
X0193797Y0062446D01*
X0193797Y0060845D02*
X0193046Y0060094D01*
X0193046Y0058593D01*
X0193797Y0057842D01*
X0194547Y0057842D01*
X0195298Y0058593D01*
X0195298Y0060094D01*
X0196049Y0060845D01*
X0196799Y0060845D01*
X0197550Y0060094D01*
X0197550Y0058593D01*
X0196799Y0057842D01*
X0196799Y0056241D02*
X0193046Y0056241D01*
X0193046Y0053238D02*
X0196799Y0053238D01*
X0197550Y0053989D01*
X0197550Y0055490D01*
X0196799Y0056241D01*
X0197550Y0062446D02*
X0194547Y0065449D01*
X0193797Y0065449D01*
X0197550Y0065449D02*
X0197550Y0062446D01*
X0133550Y0061946D02*
X0133550Y0064949D01*
X0133550Y0063447D02*
X0129046Y0063447D01*
X0130547Y0061946D01*
X0129797Y0060345D02*
X0129046Y0059594D01*
X0129046Y0058093D01*
X0129797Y0057342D01*
X0130547Y0057342D01*
X0131298Y0058093D01*
X0131298Y0059594D01*
X0132049Y0060345D01*
X0132799Y0060345D01*
X0133550Y0059594D01*
X0133550Y0058093D01*
X0132799Y0057342D01*
X0132799Y0055741D02*
X0129046Y0055741D01*
X0129046Y0052738D02*
X0132799Y0052738D01*
X0133550Y0053489D01*
X0133550Y0054990D01*
X0132799Y0055741D01*
X0264046Y0055741D02*
X0267799Y0055741D01*
X0268550Y0054990D01*
X0268550Y0053489D01*
X0267799Y0052738D01*
X0264046Y0052738D01*
X0264797Y0057342D02*
X0264046Y0058093D01*
X0264046Y0059594D01*
X0264797Y0060345D01*
X0264797Y0061946D02*
X0264046Y0062697D01*
X0264046Y0064198D01*
X0264797Y0064949D01*
X0265547Y0064949D01*
X0266298Y0064198D01*
X0267049Y0064949D01*
X0267799Y0064949D01*
X0268550Y0064198D01*
X0268550Y0062697D01*
X0267799Y0061946D01*
X0267799Y0060345D02*
X0268550Y0059594D01*
X0268550Y0058093D01*
X0267799Y0057342D01*
X0266298Y0058093D02*
X0266298Y0059594D01*
X0267049Y0060345D01*
X0267799Y0060345D01*
X0266298Y0058093D02*
X0265547Y0057342D01*
X0264797Y0057342D01*
X0266298Y0063447D02*
X0266298Y0064198D01*
X0329046Y0064198D02*
X0331298Y0061946D01*
X0331298Y0064949D01*
X0333550Y0064198D02*
X0329046Y0064198D01*
X0329797Y0060345D02*
X0329046Y0059594D01*
X0329046Y0058093D01*
X0329797Y0057342D01*
X0330547Y0057342D01*
X0331298Y0058093D01*
X0331298Y0059594D01*
X0332049Y0060345D01*
X0332799Y0060345D01*
X0333550Y0059594D01*
X0333550Y0058093D01*
X0332799Y0057342D01*
X0332799Y0055741D02*
X0329046Y0055741D01*
X0329046Y0052738D02*
X0332799Y0052738D01*
X0333550Y0053489D01*
X0333550Y0054990D01*
X0332799Y0055741D01*
D16*
X0326300Y0111300D02*
X0326300Y0181300D01*
X0086300Y0181300D01*
X0086300Y0161300D01*
X0081300Y0161300D01*
X0081300Y0131300D01*
X0086300Y0131300D01*
X0086300Y0111300D01*
X0326300Y0111300D01*
X0322800Y0121300D02*
X0277300Y0121300D01*
X0277240Y0121302D01*
X0277179Y0121307D01*
X0277120Y0121316D01*
X0277061Y0121329D01*
X0277002Y0121345D01*
X0276945Y0121365D01*
X0276890Y0121388D01*
X0276835Y0121415D01*
X0276783Y0121444D01*
X0276732Y0121477D01*
X0276683Y0121513D01*
X0276637Y0121551D01*
X0276593Y0121593D01*
X0276551Y0121637D01*
X0276513Y0121683D01*
X0276477Y0121732D01*
X0276444Y0121783D01*
X0276415Y0121835D01*
X0276388Y0121890D01*
X0276365Y0121945D01*
X0276345Y0122002D01*
X0276329Y0122061D01*
X0276316Y0122120D01*
X0276307Y0122179D01*
X0276302Y0122240D01*
X0276300Y0122300D01*
X0276300Y0166300D01*
X0285300Y0166300D01*
X0285360Y0166302D01*
X0285421Y0166307D01*
X0285480Y0166316D01*
X0285539Y0166329D01*
X0285598Y0166345D01*
X0285655Y0166365D01*
X0285710Y0166388D01*
X0285765Y0166415D01*
X0285817Y0166444D01*
X0285868Y0166477D01*
X0285917Y0166513D01*
X0285963Y0166551D01*
X0286007Y0166593D01*
X0286049Y0166637D01*
X0286087Y0166683D01*
X0286123Y0166732D01*
X0286156Y0166783D01*
X0286185Y0166835D01*
X0286212Y0166890D01*
X0286235Y0166945D01*
X0286255Y0167002D01*
X0286271Y0167061D01*
X0286284Y0167120D01*
X0286293Y0167179D01*
X0286298Y0167240D01*
X0286300Y0167300D01*
X0286300Y0171300D01*
X0293800Y0171300D01*
X0293800Y0167300D01*
X0293802Y0167240D01*
X0293807Y0167179D01*
X0293816Y0167120D01*
X0293829Y0167061D01*
X0293845Y0167002D01*
X0293865Y0166945D01*
X0293888Y0166890D01*
X0293915Y0166835D01*
X0293944Y0166783D01*
X0293977Y0166732D01*
X0294013Y0166683D01*
X0294051Y0166637D01*
X0294093Y0166593D01*
X0294137Y0166551D01*
X0294183Y0166513D01*
X0294232Y0166477D01*
X0294283Y0166444D01*
X0294335Y0166415D01*
X0294390Y0166388D01*
X0294445Y0166365D01*
X0294502Y0166345D01*
X0294561Y0166329D01*
X0294620Y0166316D01*
X0294679Y0166307D01*
X0294740Y0166302D01*
X0294800Y0166300D01*
X0300300Y0166300D01*
X0300360Y0166302D01*
X0300421Y0166307D01*
X0300480Y0166316D01*
X0300539Y0166329D01*
X0300598Y0166345D01*
X0300655Y0166365D01*
X0300710Y0166388D01*
X0300765Y0166415D01*
X0300817Y0166444D01*
X0300868Y0166477D01*
X0300917Y0166513D01*
X0300963Y0166551D01*
X0301007Y0166593D01*
X0301049Y0166637D01*
X0301087Y0166683D01*
X0301123Y0166732D01*
X0301156Y0166783D01*
X0301185Y0166835D01*
X0301212Y0166890D01*
X0301235Y0166945D01*
X0301255Y0167002D01*
X0301271Y0167061D01*
X0301284Y0167120D01*
X0301293Y0167179D01*
X0301298Y0167240D01*
X0301300Y0167300D01*
X0301300Y0171300D01*
X0310050Y0171300D01*
X0322800Y0171300D01*
X0322860Y0171298D01*
X0322921Y0171293D01*
X0322980Y0171284D01*
X0323039Y0171271D01*
X0323098Y0171255D01*
X0323155Y0171235D01*
X0323210Y0171212D01*
X0323265Y0171185D01*
X0323317Y0171156D01*
X0323368Y0171123D01*
X0323417Y0171087D01*
X0323463Y0171049D01*
X0323507Y0171007D01*
X0323549Y0170963D01*
X0323587Y0170917D01*
X0323623Y0170868D01*
X0323656Y0170817D01*
X0323685Y0170765D01*
X0323712Y0170710D01*
X0323735Y0170655D01*
X0323755Y0170598D01*
X0323771Y0170539D01*
X0323784Y0170480D01*
X0323793Y0170421D01*
X0323798Y0170360D01*
X0323800Y0170300D01*
X0323800Y0167550D01*
X0323798Y0167482D01*
X0323793Y0167415D01*
X0323784Y0167348D01*
X0323771Y0167281D01*
X0323754Y0167216D01*
X0323735Y0167151D01*
X0323711Y0167087D01*
X0323684Y0167025D01*
X0323654Y0166964D01*
X0323621Y0166906D01*
X0323585Y0166849D01*
X0323545Y0166794D01*
X0323503Y0166741D01*
X0323457Y0166690D01*
X0323410Y0166643D01*
X0323359Y0166597D01*
X0323306Y0166555D01*
X0323251Y0166515D01*
X0323194Y0166479D01*
X0323136Y0166446D01*
X0323075Y0166416D01*
X0323013Y0166389D01*
X0322949Y0166365D01*
X0322884Y0166346D01*
X0322819Y0166329D01*
X0322752Y0166316D01*
X0322685Y0166307D01*
X0322618Y0166302D01*
X0322550Y0166300D01*
X0318800Y0166300D01*
X0318702Y0166298D01*
X0318604Y0166292D01*
X0318506Y0166283D01*
X0318409Y0166269D01*
X0318312Y0166252D01*
X0318216Y0166231D01*
X0318121Y0166206D01*
X0318027Y0166178D01*
X0317935Y0166145D01*
X0317843Y0166110D01*
X0317753Y0166070D01*
X0317665Y0166028D01*
X0317578Y0165981D01*
X0317494Y0165932D01*
X0317411Y0165879D01*
X0317331Y0165823D01*
X0317252Y0165763D01*
X0317176Y0165701D01*
X0317103Y0165636D01*
X0317032Y0165568D01*
X0316964Y0165497D01*
X0316899Y0165424D01*
X0316837Y0165348D01*
X0316777Y0165269D01*
X0316721Y0165189D01*
X0316668Y0165106D01*
X0316619Y0165022D01*
X0316572Y0164935D01*
X0316530Y0164847D01*
X0316490Y0164757D01*
X0316455Y0164665D01*
X0316422Y0164573D01*
X0316394Y0164479D01*
X0316369Y0164384D01*
X0316348Y0164288D01*
X0316331Y0164191D01*
X0316317Y0164094D01*
X0316308Y0163996D01*
X0316302Y0163898D01*
X0316300Y0163800D01*
X0316300Y0158800D01*
X0316300Y0156300D01*
X0316300Y0153800D01*
X0316300Y0151300D01*
X0316300Y0148800D01*
X0316300Y0146300D01*
X0316300Y0143800D01*
X0316300Y0141300D01*
X0316300Y0138800D01*
X0316300Y0136300D01*
X0316300Y0133800D01*
X0316300Y0131300D01*
X0316300Y0128800D01*
X0316300Y0126300D01*
X0316302Y0126202D01*
X0316308Y0126104D01*
X0316317Y0126006D01*
X0316331Y0125909D01*
X0316348Y0125812D01*
X0316369Y0125716D01*
X0316394Y0125621D01*
X0316422Y0125527D01*
X0316455Y0125435D01*
X0316490Y0125343D01*
X0316530Y0125253D01*
X0316572Y0125165D01*
X0316619Y0125078D01*
X0316668Y0124994D01*
X0316721Y0124911D01*
X0316777Y0124831D01*
X0316837Y0124752D01*
X0316899Y0124676D01*
X0316964Y0124603D01*
X0317032Y0124532D01*
X0317103Y0124464D01*
X0317176Y0124399D01*
X0317252Y0124337D01*
X0317331Y0124277D01*
X0317411Y0124221D01*
X0317494Y0124168D01*
X0317578Y0124119D01*
X0317665Y0124072D01*
X0317753Y0124030D01*
X0317843Y0123990D01*
X0317935Y0123955D01*
X0318027Y0123922D01*
X0318121Y0123894D01*
X0318216Y0123869D01*
X0318312Y0123848D01*
X0318409Y0123831D01*
X0318506Y0123817D01*
X0318604Y0123808D01*
X0318702Y0123802D01*
X0318800Y0123800D01*
X0322550Y0123800D01*
X0322618Y0123798D01*
X0322685Y0123793D01*
X0322752Y0123784D01*
X0322819Y0123771D01*
X0322884Y0123754D01*
X0322949Y0123735D01*
X0323013Y0123711D01*
X0323075Y0123684D01*
X0323136Y0123654D01*
X0323194Y0123621D01*
X0323251Y0123585D01*
X0323306Y0123545D01*
X0323359Y0123503D01*
X0323410Y0123457D01*
X0323457Y0123410D01*
X0323503Y0123359D01*
X0323545Y0123306D01*
X0323585Y0123251D01*
X0323621Y0123194D01*
X0323654Y0123136D01*
X0323684Y0123075D01*
X0323711Y0123013D01*
X0323735Y0122949D01*
X0323754Y0122884D01*
X0323771Y0122819D01*
X0323784Y0122752D01*
X0323793Y0122685D01*
X0323798Y0122618D01*
X0323800Y0122550D01*
X0323800Y0122300D01*
X0323798Y0122240D01*
X0323793Y0122179D01*
X0323784Y0122120D01*
X0323771Y0122061D01*
X0323755Y0122002D01*
X0323735Y0121945D01*
X0323712Y0121890D01*
X0323685Y0121835D01*
X0323656Y0121783D01*
X0323623Y0121732D01*
X0323587Y0121683D01*
X0323549Y0121637D01*
X0323507Y0121593D01*
X0323463Y0121551D01*
X0323417Y0121513D01*
X0323368Y0121477D01*
X0323317Y0121444D01*
X0323265Y0121415D01*
X0323210Y0121388D01*
X0323155Y0121365D01*
X0323098Y0121345D01*
X0323039Y0121329D01*
X0322980Y0121316D01*
X0322921Y0121307D01*
X0322860Y0121302D01*
X0322800Y0121300D01*
X0263800Y0143800D02*
X0263800Y0148800D01*
X0263798Y0148940D01*
X0263792Y0149080D01*
X0263782Y0149220D01*
X0263769Y0149360D01*
X0263751Y0149499D01*
X0263729Y0149638D01*
X0263704Y0149775D01*
X0263675Y0149913D01*
X0263642Y0150049D01*
X0263605Y0150184D01*
X0263564Y0150318D01*
X0263519Y0150451D01*
X0263471Y0150583D01*
X0263419Y0150713D01*
X0263364Y0150842D01*
X0263305Y0150969D01*
X0263242Y0151095D01*
X0263176Y0151219D01*
X0263107Y0151340D01*
X0263034Y0151460D01*
X0262957Y0151578D01*
X0262878Y0151693D01*
X0262795Y0151807D01*
X0262709Y0151917D01*
X0262620Y0152026D01*
X0262528Y0152132D01*
X0262433Y0152235D01*
X0262336Y0152336D01*
X0262235Y0152433D01*
X0262132Y0152528D01*
X0262026Y0152620D01*
X0261917Y0152709D01*
X0261807Y0152795D01*
X0261693Y0152878D01*
X0261578Y0152957D01*
X0261460Y0153034D01*
X0261340Y0153107D01*
X0261219Y0153176D01*
X0261095Y0153242D01*
X0260969Y0153305D01*
X0260842Y0153364D01*
X0260713Y0153419D01*
X0260583Y0153471D01*
X0260451Y0153519D01*
X0260318Y0153564D01*
X0260184Y0153605D01*
X0260049Y0153642D01*
X0259913Y0153675D01*
X0259775Y0153704D01*
X0259638Y0153729D01*
X0259499Y0153751D01*
X0259360Y0153769D01*
X0259220Y0153782D01*
X0259080Y0153792D01*
X0258940Y0153798D01*
X0258800Y0153800D01*
X0258660Y0153798D01*
X0258520Y0153792D01*
X0258380Y0153782D01*
X0258240Y0153769D01*
X0258101Y0153751D01*
X0257962Y0153729D01*
X0257825Y0153704D01*
X0257687Y0153675D01*
X0257551Y0153642D01*
X0257416Y0153605D01*
X0257282Y0153564D01*
X0257149Y0153519D01*
X0257017Y0153471D01*
X0256887Y0153419D01*
X0256758Y0153364D01*
X0256631Y0153305D01*
X0256505Y0153242D01*
X0256381Y0153176D01*
X0256260Y0153107D01*
X0256140Y0153034D01*
X0256022Y0152957D01*
X0255907Y0152878D01*
X0255793Y0152795D01*
X0255683Y0152709D01*
X0255574Y0152620D01*
X0255468Y0152528D01*
X0255365Y0152433D01*
X0255264Y0152336D01*
X0255167Y0152235D01*
X0255072Y0152132D01*
X0254980Y0152026D01*
X0254891Y0151917D01*
X0254805Y0151807D01*
X0254722Y0151693D01*
X0254643Y0151578D01*
X0254566Y0151460D01*
X0254493Y0151340D01*
X0254424Y0151219D01*
X0254358Y0151095D01*
X0254295Y0150969D01*
X0254236Y0150842D01*
X0254181Y0150713D01*
X0254129Y0150583D01*
X0254081Y0150451D01*
X0254036Y0150318D01*
X0253995Y0150184D01*
X0253958Y0150049D01*
X0253925Y0149913D01*
X0253896Y0149775D01*
X0253871Y0149638D01*
X0253849Y0149499D01*
X0253831Y0149360D01*
X0253818Y0149220D01*
X0253808Y0149080D01*
X0253802Y0148940D01*
X0253800Y0148800D01*
X0253800Y0143800D01*
X0258800Y0138800D02*
X0258940Y0138802D01*
X0259080Y0138808D01*
X0259220Y0138818D01*
X0259360Y0138831D01*
X0259499Y0138849D01*
X0259638Y0138871D01*
X0259775Y0138896D01*
X0259913Y0138925D01*
X0260049Y0138958D01*
X0260184Y0138995D01*
X0260318Y0139036D01*
X0260451Y0139081D01*
X0260583Y0139129D01*
X0260713Y0139181D01*
X0260842Y0139236D01*
X0260969Y0139295D01*
X0261095Y0139358D01*
X0261219Y0139424D01*
X0261340Y0139493D01*
X0261460Y0139566D01*
X0261578Y0139643D01*
X0261693Y0139722D01*
X0261807Y0139805D01*
X0261917Y0139891D01*
X0262026Y0139980D01*
X0262132Y0140072D01*
X0262235Y0140167D01*
X0262336Y0140264D01*
X0262433Y0140365D01*
X0262528Y0140468D01*
X0262620Y0140574D01*
X0262709Y0140683D01*
X0262795Y0140793D01*
X0262878Y0140907D01*
X0262957Y0141022D01*
X0263034Y0141140D01*
X0263107Y0141260D01*
X0263176Y0141381D01*
X0263242Y0141505D01*
X0263305Y0141631D01*
X0263364Y0141758D01*
X0263419Y0141887D01*
X0263471Y0142017D01*
X0263519Y0142149D01*
X0263564Y0142282D01*
X0263605Y0142416D01*
X0263642Y0142551D01*
X0263675Y0142687D01*
X0263704Y0142825D01*
X0263729Y0142962D01*
X0263751Y0143101D01*
X0263769Y0143240D01*
X0263782Y0143380D01*
X0263792Y0143520D01*
X0263798Y0143660D01*
X0263800Y0143800D01*
X0258800Y0138800D02*
X0258660Y0138802D01*
X0258520Y0138808D01*
X0258380Y0138818D01*
X0258240Y0138831D01*
X0258101Y0138849D01*
X0257962Y0138871D01*
X0257825Y0138896D01*
X0257687Y0138925D01*
X0257551Y0138958D01*
X0257416Y0138995D01*
X0257282Y0139036D01*
X0257149Y0139081D01*
X0257017Y0139129D01*
X0256887Y0139181D01*
X0256758Y0139236D01*
X0256631Y0139295D01*
X0256505Y0139358D01*
X0256381Y0139424D01*
X0256260Y0139493D01*
X0256140Y0139566D01*
X0256022Y0139643D01*
X0255907Y0139722D01*
X0255793Y0139805D01*
X0255683Y0139891D01*
X0255574Y0139980D01*
X0255468Y0140072D01*
X0255365Y0140167D01*
X0255264Y0140264D01*
X0255167Y0140365D01*
X0255072Y0140468D01*
X0254980Y0140574D01*
X0254891Y0140683D01*
X0254805Y0140793D01*
X0254722Y0140907D01*
X0254643Y0141022D01*
X0254566Y0141140D01*
X0254493Y0141260D01*
X0254424Y0141381D01*
X0254358Y0141505D01*
X0254295Y0141631D01*
X0254236Y0141758D01*
X0254181Y0141887D01*
X0254129Y0142017D01*
X0254081Y0142149D01*
X0254036Y0142282D01*
X0253995Y0142416D01*
X0253958Y0142551D01*
X0253925Y0142687D01*
X0253896Y0142825D01*
X0253871Y0142962D01*
X0253849Y0143101D01*
X0253831Y0143240D01*
X0253818Y0143380D01*
X0253808Y0143520D01*
X0253802Y0143660D01*
X0253800Y0143800D01*
X0236300Y0122300D02*
X0236300Y0170300D01*
X0236298Y0170360D01*
X0236293Y0170421D01*
X0236284Y0170480D01*
X0236271Y0170539D01*
X0236255Y0170598D01*
X0236235Y0170655D01*
X0236212Y0170710D01*
X0236185Y0170765D01*
X0236156Y0170817D01*
X0236123Y0170868D01*
X0236087Y0170917D01*
X0236049Y0170963D01*
X0236007Y0171007D01*
X0235963Y0171049D01*
X0235917Y0171087D01*
X0235868Y0171123D01*
X0235817Y0171156D01*
X0235765Y0171185D01*
X0235710Y0171212D01*
X0235655Y0171235D01*
X0235598Y0171255D01*
X0235539Y0171271D01*
X0235480Y0171284D01*
X0235421Y0171293D01*
X0235360Y0171298D01*
X0235300Y0171300D01*
X0187300Y0171300D01*
X0187240Y0171298D01*
X0187179Y0171293D01*
X0187120Y0171284D01*
X0187061Y0171271D01*
X0187002Y0171255D01*
X0186945Y0171235D01*
X0186890Y0171212D01*
X0186835Y0171185D01*
X0186783Y0171156D01*
X0186732Y0171123D01*
X0186683Y0171087D01*
X0186637Y0171049D01*
X0186593Y0171007D01*
X0186551Y0170963D01*
X0186513Y0170917D01*
X0186477Y0170868D01*
X0186444Y0170817D01*
X0186415Y0170765D01*
X0186388Y0170710D01*
X0186365Y0170655D01*
X0186345Y0170598D01*
X0186329Y0170539D01*
X0186316Y0170480D01*
X0186307Y0170421D01*
X0186302Y0170360D01*
X0186300Y0170300D01*
X0186300Y0122300D01*
X0186302Y0122240D01*
X0186307Y0122179D01*
X0186316Y0122120D01*
X0186329Y0122061D01*
X0186345Y0122002D01*
X0186365Y0121945D01*
X0186388Y0121890D01*
X0186415Y0121835D01*
X0186444Y0121783D01*
X0186477Y0121732D01*
X0186513Y0121683D01*
X0186551Y0121637D01*
X0186593Y0121593D01*
X0186637Y0121551D01*
X0186683Y0121513D01*
X0186732Y0121477D01*
X0186783Y0121444D01*
X0186835Y0121415D01*
X0186890Y0121388D01*
X0186945Y0121365D01*
X0187002Y0121345D01*
X0187061Y0121329D01*
X0187120Y0121316D01*
X0187179Y0121307D01*
X0187240Y0121302D01*
X0187300Y0121300D01*
X0235300Y0121300D01*
X0235360Y0121302D01*
X0235421Y0121307D01*
X0235480Y0121316D01*
X0235539Y0121329D01*
X0235598Y0121345D01*
X0235655Y0121365D01*
X0235710Y0121388D01*
X0235765Y0121415D01*
X0235817Y0121444D01*
X0235868Y0121477D01*
X0235917Y0121513D01*
X0235963Y0121551D01*
X0236007Y0121593D01*
X0236049Y0121637D01*
X0236087Y0121683D01*
X0236123Y0121732D01*
X0236156Y0121783D01*
X0236185Y0121835D01*
X0236212Y0121890D01*
X0236235Y0121945D01*
X0236255Y0122002D01*
X0236271Y0122061D01*
X0236284Y0122120D01*
X0236293Y0122179D01*
X0236298Y0122240D01*
X0236300Y0122300D01*
X0101300Y0131300D02*
X0101300Y0133800D01*
X0101300Y0137550D01*
X0101300Y0138800D01*
X0101300Y0141300D01*
X0101300Y0143800D01*
X0101300Y0146300D01*
X0101300Y0148800D01*
X0101300Y0151300D01*
X0101300Y0153800D01*
X0101300Y0155050D01*
X0101300Y0158800D01*
X0101300Y0161300D01*
X0093800Y0161300D01*
X0088800Y0161300D01*
X0086300Y0161300D01*
X0086300Y0131300D02*
X0088800Y0131300D01*
X0093800Y0131300D01*
X0101300Y0131300D01*
D17*
X0192988Y0153780D02*
X0197125Y0153780D01*
X0195057Y0153780D02*
X0195057Y0147575D01*
X0199434Y0147575D02*
X0203571Y0147575D01*
X0205879Y0147575D02*
X0210016Y0147575D01*
X0212325Y0147575D02*
X0212325Y0153780D01*
X0216462Y0147575D01*
X0216462Y0153780D01*
X0218770Y0152746D02*
X0218770Y0151712D01*
X0219805Y0150678D01*
X0221873Y0150678D01*
X0222907Y0149643D01*
X0222907Y0148609D01*
X0221873Y0147575D01*
X0219805Y0147575D01*
X0218770Y0148609D01*
X0218073Y0145030D02*
X0216005Y0143996D01*
X0213936Y0141928D01*
X0217039Y0141928D01*
X0218073Y0140893D01*
X0218073Y0139859D01*
X0217039Y0138825D01*
X0214971Y0138825D01*
X0213936Y0139859D01*
X0213936Y0141928D01*
X0211748Y0139859D02*
X0211748Y0138825D01*
X0210714Y0138825D01*
X0210714Y0139859D01*
X0211748Y0139859D01*
X0208405Y0139859D02*
X0207371Y0138825D01*
X0205302Y0138825D01*
X0204268Y0139859D01*
X0206337Y0141928D02*
X0207371Y0141928D01*
X0208405Y0140893D01*
X0208405Y0139859D01*
X0207371Y0141928D02*
X0208405Y0142962D01*
X0208405Y0143996D01*
X0207371Y0145030D01*
X0205302Y0145030D01*
X0204268Y0143996D01*
X0205879Y0147575D02*
X0205879Y0153780D01*
X0210016Y0153780D01*
X0207948Y0150678D02*
X0205879Y0150678D01*
X0203571Y0153780D02*
X0199434Y0153780D01*
X0199434Y0147575D01*
X0199434Y0150678D02*
X0201502Y0150678D01*
X0218770Y0152746D02*
X0219805Y0153780D01*
X0221873Y0153780D01*
X0222907Y0152746D01*
X0225216Y0152746D02*
X0227284Y0150678D01*
X0227284Y0147575D01*
X0227284Y0150678D02*
X0229353Y0152746D01*
X0229353Y0153780D01*
X0225216Y0153780D02*
X0225216Y0152746D01*
D18*
X0226300Y0229800D03*
X0236300Y0229800D03*
X0246300Y0229800D03*
X0256300Y0229800D03*
X0291300Y0229800D03*
X0301300Y0229800D03*
X0311300Y0229800D03*
X0321300Y0229800D03*
X0181300Y0229800D03*
X0171300Y0229800D03*
X0161300Y0229800D03*
X0151300Y0229800D03*
X0121300Y0229800D03*
X0111300Y0229800D03*
X0101300Y0229800D03*
X0091300Y0229800D03*
X0091300Y0047800D03*
X0101300Y0047800D03*
X0111300Y0047800D03*
X0121300Y0047800D03*
X0155300Y0048300D03*
X0165300Y0048300D03*
X0175300Y0048300D03*
X0185300Y0048300D03*
X0226300Y0047800D03*
X0236300Y0047800D03*
X0246300Y0047800D03*
X0256300Y0047800D03*
X0291300Y0047800D03*
X0301300Y0047800D03*
X0311300Y0047800D03*
X0321300Y0047800D03*
D19*
X0321300Y0060800D03*
X0311300Y0060800D03*
X0301300Y0060800D03*
X0291300Y0060800D03*
X0256300Y0060800D03*
X0246300Y0060800D03*
X0236300Y0060800D03*
X0226300Y0060800D03*
X0185300Y0061300D03*
X0175300Y0061300D03*
X0165300Y0061300D03*
X0155300Y0061300D03*
X0121300Y0060800D03*
X0111300Y0060800D03*
X0101300Y0060800D03*
X0091300Y0060800D03*
X0091300Y0216800D03*
X0101300Y0216800D03*
X0111300Y0216800D03*
X0121300Y0216800D03*
X0151300Y0216800D03*
X0161300Y0216800D03*
X0171300Y0216800D03*
X0181300Y0216800D03*
X0226300Y0216800D03*
X0236300Y0216800D03*
X0246300Y0216800D03*
X0256300Y0216800D03*
X0291300Y0216800D03*
X0301300Y0216800D03*
X0311300Y0216800D03*
X0321300Y0216800D03*
M02*
