G75*
%MOIN*%
%OFA0B0*%
%FSLAX25Y25*%
%IPPOS*%
%LPD*%
%AMOC8*
5,1,8,0,0,1.08239X$1,22.5*
%
%ADD10C,0.00000*%
D10*
X0046300Y0041300D02*
X0046300Y0236261D01*
X0365001Y0236261D01*
X0365001Y0041300D01*
X0046300Y0041300D01*
X0170300Y0146300D02*
X0170302Y0146454D01*
X0170308Y0146609D01*
X0170318Y0146763D01*
X0170332Y0146917D01*
X0170350Y0147070D01*
X0170371Y0147223D01*
X0170397Y0147376D01*
X0170427Y0147527D01*
X0170460Y0147678D01*
X0170498Y0147828D01*
X0170539Y0147977D01*
X0170584Y0148125D01*
X0170633Y0148271D01*
X0170686Y0148417D01*
X0170742Y0148560D01*
X0170802Y0148703D01*
X0170866Y0148843D01*
X0170933Y0148983D01*
X0171004Y0149120D01*
X0171078Y0149255D01*
X0171156Y0149389D01*
X0171237Y0149520D01*
X0171322Y0149649D01*
X0171410Y0149777D01*
X0171501Y0149901D01*
X0171595Y0150024D01*
X0171693Y0150144D01*
X0171793Y0150261D01*
X0171897Y0150376D01*
X0172003Y0150488D01*
X0172112Y0150597D01*
X0172224Y0150703D01*
X0172339Y0150807D01*
X0172456Y0150907D01*
X0172576Y0151005D01*
X0172699Y0151099D01*
X0172823Y0151190D01*
X0172951Y0151278D01*
X0173080Y0151363D01*
X0173211Y0151444D01*
X0173345Y0151522D01*
X0173480Y0151596D01*
X0173617Y0151667D01*
X0173757Y0151734D01*
X0173897Y0151798D01*
X0174040Y0151858D01*
X0174183Y0151914D01*
X0174329Y0151967D01*
X0174475Y0152016D01*
X0174623Y0152061D01*
X0174772Y0152102D01*
X0174922Y0152140D01*
X0175073Y0152173D01*
X0175224Y0152203D01*
X0175377Y0152229D01*
X0175530Y0152250D01*
X0175683Y0152268D01*
X0175837Y0152282D01*
X0175991Y0152292D01*
X0176146Y0152298D01*
X0176300Y0152300D01*
X0176454Y0152298D01*
X0176609Y0152292D01*
X0176763Y0152282D01*
X0176917Y0152268D01*
X0177070Y0152250D01*
X0177223Y0152229D01*
X0177376Y0152203D01*
X0177527Y0152173D01*
X0177678Y0152140D01*
X0177828Y0152102D01*
X0177977Y0152061D01*
X0178125Y0152016D01*
X0178271Y0151967D01*
X0178417Y0151914D01*
X0178560Y0151858D01*
X0178703Y0151798D01*
X0178843Y0151734D01*
X0178983Y0151667D01*
X0179120Y0151596D01*
X0179255Y0151522D01*
X0179389Y0151444D01*
X0179520Y0151363D01*
X0179649Y0151278D01*
X0179777Y0151190D01*
X0179901Y0151099D01*
X0180024Y0151005D01*
X0180144Y0150907D01*
X0180261Y0150807D01*
X0180376Y0150703D01*
X0180488Y0150597D01*
X0180597Y0150488D01*
X0180703Y0150376D01*
X0180807Y0150261D01*
X0180907Y0150144D01*
X0181005Y0150024D01*
X0181099Y0149901D01*
X0181190Y0149777D01*
X0181278Y0149649D01*
X0181363Y0149520D01*
X0181444Y0149389D01*
X0181522Y0149255D01*
X0181596Y0149120D01*
X0181667Y0148983D01*
X0181734Y0148843D01*
X0181798Y0148703D01*
X0181858Y0148560D01*
X0181914Y0148417D01*
X0181967Y0148271D01*
X0182016Y0148125D01*
X0182061Y0147977D01*
X0182102Y0147828D01*
X0182140Y0147678D01*
X0182173Y0147527D01*
X0182203Y0147376D01*
X0182229Y0147223D01*
X0182250Y0147070D01*
X0182268Y0146917D01*
X0182282Y0146763D01*
X0182292Y0146609D01*
X0182298Y0146454D01*
X0182300Y0146300D01*
X0182298Y0146146D01*
X0182292Y0145991D01*
X0182282Y0145837D01*
X0182268Y0145683D01*
X0182250Y0145530D01*
X0182229Y0145377D01*
X0182203Y0145224D01*
X0182173Y0145073D01*
X0182140Y0144922D01*
X0182102Y0144772D01*
X0182061Y0144623D01*
X0182016Y0144475D01*
X0181967Y0144329D01*
X0181914Y0144183D01*
X0181858Y0144040D01*
X0181798Y0143897D01*
X0181734Y0143757D01*
X0181667Y0143617D01*
X0181596Y0143480D01*
X0181522Y0143345D01*
X0181444Y0143211D01*
X0181363Y0143080D01*
X0181278Y0142951D01*
X0181190Y0142823D01*
X0181099Y0142699D01*
X0181005Y0142576D01*
X0180907Y0142456D01*
X0180807Y0142339D01*
X0180703Y0142224D01*
X0180597Y0142112D01*
X0180488Y0142003D01*
X0180376Y0141897D01*
X0180261Y0141793D01*
X0180144Y0141693D01*
X0180024Y0141595D01*
X0179901Y0141501D01*
X0179777Y0141410D01*
X0179649Y0141322D01*
X0179520Y0141237D01*
X0179389Y0141156D01*
X0179255Y0141078D01*
X0179120Y0141004D01*
X0178983Y0140933D01*
X0178843Y0140866D01*
X0178703Y0140802D01*
X0178560Y0140742D01*
X0178417Y0140686D01*
X0178271Y0140633D01*
X0178125Y0140584D01*
X0177977Y0140539D01*
X0177828Y0140498D01*
X0177678Y0140460D01*
X0177527Y0140427D01*
X0177376Y0140397D01*
X0177223Y0140371D01*
X0177070Y0140350D01*
X0176917Y0140332D01*
X0176763Y0140318D01*
X0176609Y0140308D01*
X0176454Y0140302D01*
X0176300Y0140300D01*
X0176146Y0140302D01*
X0175991Y0140308D01*
X0175837Y0140318D01*
X0175683Y0140332D01*
X0175530Y0140350D01*
X0175377Y0140371D01*
X0175224Y0140397D01*
X0175073Y0140427D01*
X0174922Y0140460D01*
X0174772Y0140498D01*
X0174623Y0140539D01*
X0174475Y0140584D01*
X0174329Y0140633D01*
X0174183Y0140686D01*
X0174040Y0140742D01*
X0173897Y0140802D01*
X0173757Y0140866D01*
X0173617Y0140933D01*
X0173480Y0141004D01*
X0173345Y0141078D01*
X0173211Y0141156D01*
X0173080Y0141237D01*
X0172951Y0141322D01*
X0172823Y0141410D01*
X0172699Y0141501D01*
X0172576Y0141595D01*
X0172456Y0141693D01*
X0172339Y0141793D01*
X0172224Y0141897D01*
X0172112Y0142003D01*
X0172003Y0142112D01*
X0171897Y0142224D01*
X0171793Y0142339D01*
X0171693Y0142456D01*
X0171595Y0142576D01*
X0171501Y0142699D01*
X0171410Y0142823D01*
X0171322Y0142951D01*
X0171237Y0143080D01*
X0171156Y0143211D01*
X0171078Y0143345D01*
X0171004Y0143480D01*
X0170933Y0143617D01*
X0170866Y0143757D01*
X0170802Y0143897D01*
X0170742Y0144040D01*
X0170686Y0144183D01*
X0170633Y0144329D01*
X0170584Y0144475D01*
X0170539Y0144623D01*
X0170498Y0144772D01*
X0170460Y0144922D01*
X0170427Y0145073D01*
X0170397Y0145224D01*
X0170371Y0145377D01*
X0170350Y0145530D01*
X0170332Y0145683D01*
X0170318Y0145837D01*
X0170308Y0145991D01*
X0170302Y0146146D01*
X0170300Y0146300D01*
X0295300Y0146300D02*
X0295302Y0146454D01*
X0295308Y0146609D01*
X0295318Y0146763D01*
X0295332Y0146917D01*
X0295350Y0147070D01*
X0295371Y0147223D01*
X0295397Y0147376D01*
X0295427Y0147527D01*
X0295460Y0147678D01*
X0295498Y0147828D01*
X0295539Y0147977D01*
X0295584Y0148125D01*
X0295633Y0148271D01*
X0295686Y0148417D01*
X0295742Y0148560D01*
X0295802Y0148703D01*
X0295866Y0148843D01*
X0295933Y0148983D01*
X0296004Y0149120D01*
X0296078Y0149255D01*
X0296156Y0149389D01*
X0296237Y0149520D01*
X0296322Y0149649D01*
X0296410Y0149777D01*
X0296501Y0149901D01*
X0296595Y0150024D01*
X0296693Y0150144D01*
X0296793Y0150261D01*
X0296897Y0150376D01*
X0297003Y0150488D01*
X0297112Y0150597D01*
X0297224Y0150703D01*
X0297339Y0150807D01*
X0297456Y0150907D01*
X0297576Y0151005D01*
X0297699Y0151099D01*
X0297823Y0151190D01*
X0297951Y0151278D01*
X0298080Y0151363D01*
X0298211Y0151444D01*
X0298345Y0151522D01*
X0298480Y0151596D01*
X0298617Y0151667D01*
X0298757Y0151734D01*
X0298897Y0151798D01*
X0299040Y0151858D01*
X0299183Y0151914D01*
X0299329Y0151967D01*
X0299475Y0152016D01*
X0299623Y0152061D01*
X0299772Y0152102D01*
X0299922Y0152140D01*
X0300073Y0152173D01*
X0300224Y0152203D01*
X0300377Y0152229D01*
X0300530Y0152250D01*
X0300683Y0152268D01*
X0300837Y0152282D01*
X0300991Y0152292D01*
X0301146Y0152298D01*
X0301300Y0152300D01*
X0301454Y0152298D01*
X0301609Y0152292D01*
X0301763Y0152282D01*
X0301917Y0152268D01*
X0302070Y0152250D01*
X0302223Y0152229D01*
X0302376Y0152203D01*
X0302527Y0152173D01*
X0302678Y0152140D01*
X0302828Y0152102D01*
X0302977Y0152061D01*
X0303125Y0152016D01*
X0303271Y0151967D01*
X0303417Y0151914D01*
X0303560Y0151858D01*
X0303703Y0151798D01*
X0303843Y0151734D01*
X0303983Y0151667D01*
X0304120Y0151596D01*
X0304255Y0151522D01*
X0304389Y0151444D01*
X0304520Y0151363D01*
X0304649Y0151278D01*
X0304777Y0151190D01*
X0304901Y0151099D01*
X0305024Y0151005D01*
X0305144Y0150907D01*
X0305261Y0150807D01*
X0305376Y0150703D01*
X0305488Y0150597D01*
X0305597Y0150488D01*
X0305703Y0150376D01*
X0305807Y0150261D01*
X0305907Y0150144D01*
X0306005Y0150024D01*
X0306099Y0149901D01*
X0306190Y0149777D01*
X0306278Y0149649D01*
X0306363Y0149520D01*
X0306444Y0149389D01*
X0306522Y0149255D01*
X0306596Y0149120D01*
X0306667Y0148983D01*
X0306734Y0148843D01*
X0306798Y0148703D01*
X0306858Y0148560D01*
X0306914Y0148417D01*
X0306967Y0148271D01*
X0307016Y0148125D01*
X0307061Y0147977D01*
X0307102Y0147828D01*
X0307140Y0147678D01*
X0307173Y0147527D01*
X0307203Y0147376D01*
X0307229Y0147223D01*
X0307250Y0147070D01*
X0307268Y0146917D01*
X0307282Y0146763D01*
X0307292Y0146609D01*
X0307298Y0146454D01*
X0307300Y0146300D01*
X0307298Y0146146D01*
X0307292Y0145991D01*
X0307282Y0145837D01*
X0307268Y0145683D01*
X0307250Y0145530D01*
X0307229Y0145377D01*
X0307203Y0145224D01*
X0307173Y0145073D01*
X0307140Y0144922D01*
X0307102Y0144772D01*
X0307061Y0144623D01*
X0307016Y0144475D01*
X0306967Y0144329D01*
X0306914Y0144183D01*
X0306858Y0144040D01*
X0306798Y0143897D01*
X0306734Y0143757D01*
X0306667Y0143617D01*
X0306596Y0143480D01*
X0306522Y0143345D01*
X0306444Y0143211D01*
X0306363Y0143080D01*
X0306278Y0142951D01*
X0306190Y0142823D01*
X0306099Y0142699D01*
X0306005Y0142576D01*
X0305907Y0142456D01*
X0305807Y0142339D01*
X0305703Y0142224D01*
X0305597Y0142112D01*
X0305488Y0142003D01*
X0305376Y0141897D01*
X0305261Y0141793D01*
X0305144Y0141693D01*
X0305024Y0141595D01*
X0304901Y0141501D01*
X0304777Y0141410D01*
X0304649Y0141322D01*
X0304520Y0141237D01*
X0304389Y0141156D01*
X0304255Y0141078D01*
X0304120Y0141004D01*
X0303983Y0140933D01*
X0303843Y0140866D01*
X0303703Y0140802D01*
X0303560Y0140742D01*
X0303417Y0140686D01*
X0303271Y0140633D01*
X0303125Y0140584D01*
X0302977Y0140539D01*
X0302828Y0140498D01*
X0302678Y0140460D01*
X0302527Y0140427D01*
X0302376Y0140397D01*
X0302223Y0140371D01*
X0302070Y0140350D01*
X0301917Y0140332D01*
X0301763Y0140318D01*
X0301609Y0140308D01*
X0301454Y0140302D01*
X0301300Y0140300D01*
X0301146Y0140302D01*
X0300991Y0140308D01*
X0300837Y0140318D01*
X0300683Y0140332D01*
X0300530Y0140350D01*
X0300377Y0140371D01*
X0300224Y0140397D01*
X0300073Y0140427D01*
X0299922Y0140460D01*
X0299772Y0140498D01*
X0299623Y0140539D01*
X0299475Y0140584D01*
X0299329Y0140633D01*
X0299183Y0140686D01*
X0299040Y0140742D01*
X0298897Y0140802D01*
X0298757Y0140866D01*
X0298617Y0140933D01*
X0298480Y0141004D01*
X0298345Y0141078D01*
X0298211Y0141156D01*
X0298080Y0141237D01*
X0297951Y0141322D01*
X0297823Y0141410D01*
X0297699Y0141501D01*
X0297576Y0141595D01*
X0297456Y0141693D01*
X0297339Y0141793D01*
X0297224Y0141897D01*
X0297112Y0142003D01*
X0297003Y0142112D01*
X0296897Y0142224D01*
X0296793Y0142339D01*
X0296693Y0142456D01*
X0296595Y0142576D01*
X0296501Y0142699D01*
X0296410Y0142823D01*
X0296322Y0142951D01*
X0296237Y0143080D01*
X0296156Y0143211D01*
X0296078Y0143345D01*
X0296004Y0143480D01*
X0295933Y0143617D01*
X0295866Y0143757D01*
X0295802Y0143897D01*
X0295742Y0144040D01*
X0295686Y0144183D01*
X0295633Y0144329D01*
X0295584Y0144475D01*
X0295539Y0144623D01*
X0295498Y0144772D01*
X0295460Y0144922D01*
X0295427Y0145073D01*
X0295397Y0145224D01*
X0295371Y0145377D01*
X0295350Y0145530D01*
X0295332Y0145683D01*
X0295318Y0145837D01*
X0295308Y0145991D01*
X0295302Y0146146D01*
X0295300Y0146300D01*
M02*
