G75*
%MOIN*%
%OFA0B0*%
%FSLAX25Y25*%
%IPPOS*%
%LPD*%
%AMOC8*
5,1,8,0,0,1.08239X$1,22.5*
%
%ADD10C,0.06000*%
%ADD11C,0.05800*%
%ADD12C,0.02000*%
%ADD13C,0.04600*%
D10*
X0091300Y0063300D02*
X0091300Y0069300D01*
X0101300Y0069300D02*
X0101300Y0063300D01*
X0111300Y0063300D02*
X0111300Y0069300D01*
X0121300Y0069300D02*
X0121300Y0063300D01*
X0155300Y0063800D02*
X0155300Y0069800D01*
X0165300Y0069800D02*
X0165300Y0063800D01*
X0175300Y0063800D02*
X0175300Y0069800D01*
X0185300Y0069800D02*
X0185300Y0063800D01*
X0226300Y0063300D02*
X0226300Y0069300D01*
X0236300Y0069300D02*
X0236300Y0063300D01*
X0246300Y0063300D02*
X0246300Y0069300D01*
X0256300Y0069300D02*
X0256300Y0063300D01*
X0291300Y0063300D02*
X0291300Y0069300D01*
X0301300Y0069300D02*
X0301300Y0063300D01*
X0311300Y0063300D02*
X0311300Y0069300D01*
X0321300Y0069300D02*
X0321300Y0063300D01*
X0338300Y0186300D02*
X0344300Y0186300D01*
X0344300Y0196300D02*
X0338300Y0196300D01*
X0338300Y0206300D02*
X0344300Y0206300D01*
X0321300Y0208300D02*
X0321300Y0214300D01*
X0311300Y0214300D02*
X0311300Y0208300D01*
X0301300Y0208300D02*
X0301300Y0214300D01*
X0291300Y0214300D02*
X0291300Y0208300D01*
X0256300Y0208300D02*
X0256300Y0214300D01*
X0246300Y0214300D02*
X0246300Y0208300D01*
X0236300Y0208300D02*
X0236300Y0214300D01*
X0226300Y0214300D02*
X0226300Y0208300D01*
X0181300Y0208300D02*
X0181300Y0214300D01*
X0171300Y0214300D02*
X0171300Y0208300D01*
X0161300Y0208300D02*
X0161300Y0214300D01*
X0151300Y0214300D02*
X0151300Y0208300D01*
X0121300Y0208300D02*
X0121300Y0214300D01*
X0111300Y0214300D02*
X0111300Y0208300D01*
X0101300Y0208300D02*
X0101300Y0214300D01*
X0091300Y0214300D02*
X0091300Y0208300D01*
X0069300Y0206300D02*
X0063300Y0206300D01*
X0063300Y0196300D02*
X0069300Y0196300D01*
X0069300Y0186300D02*
X0063300Y0186300D01*
D11*
X0091300Y0176300D03*
X0101300Y0176300D03*
X0111300Y0176300D03*
X0121300Y0176300D03*
X0131300Y0176300D03*
X0131300Y0166300D03*
X0121300Y0166300D03*
X0101300Y0166300D03*
X0141300Y0166300D03*
X0141300Y0176300D03*
X0151300Y0176300D03*
X0161300Y0176300D03*
X0171300Y0176300D03*
X0181300Y0176300D03*
X0191300Y0176300D03*
X0201300Y0176300D03*
X0211300Y0176300D03*
X0221300Y0176300D03*
X0231300Y0176300D03*
X0241300Y0176300D03*
X0251300Y0176300D03*
X0261300Y0176300D03*
X0271300Y0176300D03*
X0271300Y0166300D03*
X0281300Y0176300D03*
X0291300Y0176300D03*
X0301300Y0176300D03*
X0311300Y0176300D03*
X0321300Y0176300D03*
X0271300Y0156300D03*
X0271300Y0146300D03*
X0271300Y0136300D03*
X0271300Y0126300D03*
X0271300Y0116300D03*
X0261300Y0116300D03*
X0251300Y0116300D03*
X0241300Y0116300D03*
X0231300Y0116300D03*
X0221300Y0116300D03*
X0211300Y0116300D03*
X0201300Y0116300D03*
X0191300Y0116300D03*
X0181300Y0116300D03*
X0171300Y0116300D03*
X0161300Y0116300D03*
X0151300Y0116300D03*
X0141300Y0116300D03*
X0131300Y0116300D03*
X0121300Y0116300D03*
X0111300Y0116300D03*
X0101300Y0116300D03*
X0091300Y0116300D03*
X0116300Y0128800D03*
X0126300Y0128800D03*
X0136300Y0128800D03*
X0146300Y0128800D03*
X0156300Y0128800D03*
X0281300Y0116300D03*
X0291300Y0116300D03*
X0301300Y0116300D03*
X0311300Y0116300D03*
X0321300Y0116300D03*
D12*
X0321300Y0102300D02*
X0354300Y0135300D01*
X0354300Y0198300D01*
X0348300Y0204300D01*
X0342300Y0204300D01*
X0341300Y0206300D01*
X0339300Y0204300D01*
X0330300Y0204300D01*
X0324300Y0198300D01*
X0297300Y0198300D01*
X0291300Y0204300D01*
X0291300Y0211300D01*
X0291300Y0213300D01*
X0282300Y0222300D01*
X0231300Y0222300D01*
X0228300Y0219300D01*
X0228300Y0213300D01*
X0226300Y0211300D01*
X0225300Y0213300D01*
X0195300Y0213300D01*
X0186300Y0222300D01*
X0156300Y0222300D01*
X0147300Y0213300D01*
X0150300Y0213300D01*
X0151300Y0211300D01*
X0147300Y0213300D02*
X0144300Y0213300D01*
X0129300Y0228300D01*
X0102300Y0228300D01*
X0093300Y0219300D01*
X0093300Y0213300D01*
X0091300Y0211300D01*
X0093300Y0210300D01*
X0093300Y0177300D01*
X0091300Y0176300D01*
X0090300Y0177300D01*
X0075300Y0177300D01*
X0066300Y0186300D01*
X0102300Y0204300D02*
X0102300Y0210300D01*
X0101300Y0211300D01*
X0111300Y0211300D02*
X0111300Y0216300D01*
X0117300Y0222300D01*
X0126300Y0222300D01*
X0141300Y0207300D01*
X0141300Y0176300D01*
X0151300Y0176300D02*
X0153300Y0177300D01*
X0153300Y0198300D01*
X0159300Y0204300D01*
X0159300Y0210300D01*
X0161300Y0211300D01*
X0171300Y0211300D02*
X0171300Y0204300D01*
X0162300Y0195300D01*
X0162300Y0177300D01*
X0161300Y0176300D01*
X0171300Y0176300D02*
X0171300Y0180300D01*
X0189300Y0198300D01*
X0228300Y0198300D01*
X0234300Y0204300D01*
X0234300Y0210300D01*
X0236300Y0211300D01*
X0246300Y0211300D02*
X0246300Y0204300D01*
X0234300Y0192300D01*
X0195300Y0192300D01*
X0183300Y0180300D01*
X0183300Y0177300D01*
X0181300Y0176300D01*
X0211300Y0176300D02*
X0213300Y0177300D01*
X0213300Y0180300D01*
X0219300Y0186300D01*
X0324300Y0186300D01*
X0333300Y0195300D01*
X0339300Y0195300D01*
X0341300Y0196300D01*
X0301300Y0211300D02*
X0300300Y0213300D01*
X0300300Y0219300D01*
X0291300Y0228300D01*
X0228300Y0228300D01*
X0222300Y0222300D01*
X0216300Y0222300D01*
X0129300Y0180300D02*
X0129300Y0177300D01*
X0131300Y0176300D01*
X0129300Y0180300D02*
X0111300Y0198300D01*
X0108300Y0198300D01*
X0102300Y0204300D01*
X0101300Y0116300D02*
X0102300Y0114300D01*
X0102300Y0066300D01*
X0101300Y0066300D01*
X0111300Y0066300D02*
X0111300Y0116300D01*
X0121300Y0116300D02*
X0123300Y0114300D01*
X0123300Y0111300D01*
X0156300Y0078300D01*
X0159300Y0078300D01*
X0165300Y0072300D01*
X0165300Y0066800D01*
X0175300Y0066800D02*
X0177300Y0069300D01*
X0162300Y0084300D01*
X0159300Y0084300D01*
X0132300Y0111300D01*
X0132300Y0114300D01*
X0131300Y0116300D01*
X0141300Y0116300D02*
X0141300Y0114300D01*
X0177300Y0078300D01*
X0231300Y0078300D01*
X0234300Y0075300D01*
X0234300Y0066300D01*
X0236300Y0066300D01*
X0246300Y0066300D02*
X0246300Y0072300D01*
X0234300Y0084300D01*
X0180300Y0084300D01*
X0153300Y0111300D01*
X0153300Y0114300D01*
X0151300Y0116300D01*
X0171300Y0116300D02*
X0171300Y0114300D01*
X0195300Y0090300D01*
X0294300Y0090300D01*
X0309300Y0075300D01*
X0309300Y0066300D01*
X0311300Y0066300D01*
X0321300Y0066300D02*
X0321300Y0060300D01*
X0315300Y0054300D01*
X0288300Y0054300D01*
X0276300Y0066300D01*
X0261300Y0066300D01*
X0249300Y0054300D01*
X0222300Y0054300D01*
X0210300Y0066300D01*
X0186300Y0066300D01*
X0185300Y0066800D01*
X0183300Y0066300D01*
X0183300Y0060300D01*
X0177300Y0054300D01*
X0153300Y0054300D01*
X0141300Y0066300D01*
X0121300Y0066300D01*
X0256300Y0066300D02*
X0261300Y0066300D01*
X0321300Y0066300D02*
X0321300Y0102300D01*
D13*
X0216300Y0222300D03*
M02*
