G75*
%MOIN*%
%OFA0B0*%
%FSLAX25Y25*%
%IPPOS*%
%LPD*%
%AMOC8*
5,1,8,0,0,1.08239X$1,22.5*
%
%ADD10C,0.06000*%
%ADD11C,0.05800*%
%ADD12C,0.02000*%
%ADD13C,0.00600*%
%ADD14C,0.04600*%
D10*
X0091300Y0063300D02*
X0091300Y0069300D01*
X0101300Y0069300D02*
X0101300Y0063300D01*
X0111300Y0063300D02*
X0111300Y0069300D01*
X0121300Y0069300D02*
X0121300Y0063300D01*
X0155300Y0063800D02*
X0155300Y0069800D01*
X0165300Y0069800D02*
X0165300Y0063800D01*
X0175300Y0063800D02*
X0175300Y0069800D01*
X0185300Y0069800D02*
X0185300Y0063800D01*
X0226300Y0063300D02*
X0226300Y0069300D01*
X0236300Y0069300D02*
X0236300Y0063300D01*
X0246300Y0063300D02*
X0246300Y0069300D01*
X0256300Y0069300D02*
X0256300Y0063300D01*
X0291300Y0063300D02*
X0291300Y0069300D01*
X0301300Y0069300D02*
X0301300Y0063300D01*
X0311300Y0063300D02*
X0311300Y0069300D01*
X0321300Y0069300D02*
X0321300Y0063300D01*
X0338300Y0186300D02*
X0344300Y0186300D01*
X0344300Y0196300D02*
X0338300Y0196300D01*
X0338300Y0206300D02*
X0344300Y0206300D01*
X0321300Y0208300D02*
X0321300Y0214300D01*
X0311300Y0214300D02*
X0311300Y0208300D01*
X0301300Y0208300D02*
X0301300Y0214300D01*
X0291300Y0214300D02*
X0291300Y0208300D01*
X0256300Y0208300D02*
X0256300Y0214300D01*
X0246300Y0214300D02*
X0246300Y0208300D01*
X0236300Y0208300D02*
X0236300Y0214300D01*
X0226300Y0214300D02*
X0226300Y0208300D01*
X0181300Y0208300D02*
X0181300Y0214300D01*
X0171300Y0214300D02*
X0171300Y0208300D01*
X0161300Y0208300D02*
X0161300Y0214300D01*
X0151300Y0214300D02*
X0151300Y0208300D01*
X0121300Y0208300D02*
X0121300Y0214300D01*
X0111300Y0214300D02*
X0111300Y0208300D01*
X0101300Y0208300D02*
X0101300Y0214300D01*
X0091300Y0214300D02*
X0091300Y0208300D01*
X0069300Y0206300D02*
X0063300Y0206300D01*
X0063300Y0196300D02*
X0069300Y0196300D01*
X0069300Y0186300D02*
X0063300Y0186300D01*
D11*
X0091300Y0176300D03*
X0101300Y0176300D03*
X0111300Y0176300D03*
X0121300Y0176300D03*
X0131300Y0176300D03*
X0131300Y0166300D03*
X0121300Y0166300D03*
X0101300Y0166300D03*
X0141300Y0166300D03*
X0141300Y0176300D03*
X0151300Y0176300D03*
X0161300Y0176300D03*
X0171300Y0176300D03*
X0181300Y0176300D03*
X0191300Y0176300D03*
X0201300Y0176300D03*
X0211300Y0176300D03*
X0221300Y0176300D03*
X0231300Y0176300D03*
X0241300Y0176300D03*
X0251300Y0176300D03*
X0261300Y0176300D03*
X0271300Y0176300D03*
X0271300Y0166300D03*
X0281300Y0176300D03*
X0291300Y0176300D03*
X0301300Y0176300D03*
X0311300Y0176300D03*
X0321300Y0176300D03*
X0271300Y0156300D03*
X0271300Y0146300D03*
X0271300Y0136300D03*
X0271300Y0126300D03*
X0271300Y0116300D03*
X0261300Y0116300D03*
X0251300Y0116300D03*
X0241300Y0116300D03*
X0231300Y0116300D03*
X0221300Y0116300D03*
X0211300Y0116300D03*
X0201300Y0116300D03*
X0191300Y0116300D03*
X0181300Y0116300D03*
X0171300Y0116300D03*
X0161300Y0116300D03*
X0151300Y0116300D03*
X0141300Y0116300D03*
X0131300Y0116300D03*
X0121300Y0116300D03*
X0111300Y0116300D03*
X0101300Y0116300D03*
X0091300Y0116300D03*
X0116300Y0128800D03*
X0126300Y0128800D03*
X0136300Y0128800D03*
X0146300Y0128800D03*
X0156300Y0128800D03*
X0281300Y0116300D03*
X0291300Y0116300D03*
X0301300Y0116300D03*
X0311300Y0116300D03*
X0321300Y0116300D03*
D12*
X0291300Y0084300D02*
X0303300Y0072300D01*
X0303300Y0066300D01*
X0301300Y0066300D01*
X0291300Y0084300D02*
X0180300Y0084300D01*
X0159300Y0105300D01*
X0159300Y0114300D01*
X0161300Y0116300D01*
X0191300Y0176300D02*
X0192300Y0177300D01*
X0192300Y0198300D01*
X0216300Y0222300D01*
X0210300Y0195300D02*
X0306300Y0195300D01*
X0312300Y0201300D01*
X0312300Y0210300D01*
X0311300Y0211300D01*
X0210300Y0195300D02*
X0201300Y0186300D01*
X0201300Y0176300D01*
X0121300Y0176300D02*
X0120300Y0177300D01*
X0120300Y0186300D01*
X0114300Y0192300D01*
X0081300Y0192300D01*
X0075300Y0198300D01*
X0072300Y0195300D01*
X0066300Y0195300D01*
X0066300Y0196300D01*
D13*
X0050600Y0231961D02*
X0050600Y0045600D01*
X0360701Y0045600D01*
X0360701Y0231961D01*
X0050600Y0231961D01*
X0050600Y0231627D02*
X0360701Y0231627D01*
X0360701Y0231028D02*
X0050600Y0231028D01*
X0050600Y0230430D02*
X0360701Y0230430D01*
X0360701Y0229831D02*
X0050600Y0229831D01*
X0050600Y0229233D02*
X0360701Y0229233D01*
X0360701Y0228634D02*
X0218255Y0228634D01*
X0217613Y0228900D02*
X0214987Y0228900D01*
X0212561Y0227895D01*
X0210705Y0226039D01*
X0209700Y0223613D01*
X0209700Y0223195D01*
X0187807Y0201302D01*
X0187000Y0199354D01*
X0187000Y0182182D01*
X0186300Y0181482D01*
X0185378Y0182404D01*
X0182732Y0183500D01*
X0179868Y0183500D01*
X0177222Y0182404D01*
X0176300Y0181482D01*
X0175378Y0182404D01*
X0172732Y0183500D01*
X0169868Y0183500D01*
X0167222Y0182404D01*
X0166300Y0181482D01*
X0165378Y0182404D01*
X0162732Y0183500D01*
X0159868Y0183500D01*
X0157222Y0182404D01*
X0156300Y0181482D01*
X0155378Y0182404D01*
X0152732Y0183500D01*
X0149868Y0183500D01*
X0147222Y0182404D01*
X0146300Y0181482D01*
X0145378Y0182404D01*
X0142732Y0183500D01*
X0139868Y0183500D01*
X0137222Y0182404D01*
X0136300Y0181482D01*
X0135378Y0182404D01*
X0132732Y0183500D01*
X0129868Y0183500D01*
X0127222Y0182404D01*
X0126300Y0181482D01*
X0125600Y0182182D01*
X0125600Y0187354D01*
X0124793Y0189302D01*
X0118793Y0195302D01*
X0117302Y0196793D01*
X0115354Y0197600D01*
X0083495Y0197600D01*
X0079793Y0201302D01*
X0078302Y0202793D01*
X0076354Y0203600D01*
X0074246Y0203600D01*
X0072499Y0202876D01*
X0072116Y0203035D01*
X0072580Y0203499D01*
X0072978Y0204046D01*
X0073285Y0204649D01*
X0073494Y0205293D01*
X0073600Y0205962D01*
X0073600Y0206000D01*
X0066600Y0206000D01*
X0066600Y0206600D01*
X0066000Y0206600D01*
X0066000Y0210600D01*
X0062962Y0210600D01*
X0062293Y0210494D01*
X0061649Y0210285D01*
X0061046Y0209978D01*
X0060499Y0209580D01*
X0060020Y0209101D01*
X0059622Y0208554D01*
X0059315Y0207951D01*
X0059106Y0207307D01*
X0059000Y0206638D01*
X0059000Y0206600D01*
X0066000Y0206600D01*
X0066000Y0206000D01*
X0059000Y0206000D01*
X0059000Y0205962D01*
X0059106Y0205293D01*
X0059315Y0204649D01*
X0059622Y0204046D01*
X0060020Y0203499D01*
X0060484Y0203035D01*
X0059165Y0202489D01*
X0057111Y0200435D01*
X0056000Y0197752D01*
X0056000Y0194848D01*
X0057111Y0192165D01*
X0057976Y0191300D01*
X0057111Y0190435D01*
X0056000Y0187752D01*
X0056000Y0184848D01*
X0057111Y0182165D01*
X0059165Y0180111D01*
X0061848Y0179000D01*
X0070752Y0179000D01*
X0073435Y0180111D01*
X0075489Y0182165D01*
X0076600Y0184848D01*
X0076600Y0187752D01*
X0075489Y0190435D01*
X0075171Y0190753D01*
X0075299Y0190806D01*
X0078298Y0187807D01*
X0080246Y0187000D01*
X0112105Y0187000D01*
X0115000Y0184105D01*
X0115000Y0182561D01*
X0112732Y0183500D01*
X0109868Y0183500D01*
X0107222Y0182404D01*
X0106300Y0181482D01*
X0105378Y0182404D01*
X0102732Y0183500D01*
X0099868Y0183500D01*
X0097222Y0182404D01*
X0096300Y0181482D01*
X0095378Y0182404D01*
X0092732Y0183500D01*
X0089868Y0183500D01*
X0087222Y0182404D01*
X0085196Y0180378D01*
X0084100Y0177732D01*
X0084100Y0174868D01*
X0085196Y0172222D01*
X0087222Y0170196D01*
X0089868Y0169100D01*
X0092732Y0169100D01*
X0095067Y0170067D01*
X0094100Y0167732D01*
X0094100Y0164868D01*
X0095196Y0162222D01*
X0097222Y0160196D01*
X0099868Y0159100D01*
X0102732Y0159100D01*
X0105378Y0160196D01*
X0107404Y0162222D01*
X0108500Y0164868D01*
X0108500Y0167732D01*
X0107533Y0170067D01*
X0109868Y0169100D01*
X0112732Y0169100D01*
X0115067Y0170067D01*
X0114100Y0167732D01*
X0114100Y0164868D01*
X0115196Y0162222D01*
X0117222Y0160196D01*
X0119868Y0159100D01*
X0122732Y0159100D01*
X0125378Y0160196D01*
X0126300Y0161118D01*
X0127222Y0160196D01*
X0129868Y0159100D01*
X0132732Y0159100D01*
X0135378Y0160196D01*
X0136300Y0161118D01*
X0137222Y0160196D01*
X0139868Y0159100D01*
X0142732Y0159100D01*
X0145378Y0160196D01*
X0147404Y0162222D01*
X0148500Y0164868D01*
X0148500Y0167732D01*
X0147533Y0170067D01*
X0149868Y0169100D01*
X0152732Y0169100D01*
X0155378Y0170196D01*
X0156300Y0171118D01*
X0157222Y0170196D01*
X0159868Y0169100D01*
X0162732Y0169100D01*
X0165378Y0170196D01*
X0166300Y0171118D01*
X0167222Y0170196D01*
X0169868Y0169100D01*
X0172732Y0169100D01*
X0175378Y0170196D01*
X0176300Y0171118D01*
X0177222Y0170196D01*
X0179868Y0169100D01*
X0182732Y0169100D01*
X0185378Y0170196D01*
X0186300Y0171118D01*
X0187222Y0170196D01*
X0189868Y0169100D01*
X0192732Y0169100D01*
X0195378Y0170196D01*
X0196300Y0171118D01*
X0197222Y0170196D01*
X0199868Y0169100D01*
X0202732Y0169100D01*
X0205378Y0170196D01*
X0206300Y0171118D01*
X0207222Y0170196D01*
X0209868Y0169100D01*
X0212732Y0169100D01*
X0215378Y0170196D01*
X0216300Y0171118D01*
X0217222Y0170196D01*
X0219868Y0169100D01*
X0222732Y0169100D01*
X0225378Y0170196D01*
X0226300Y0171118D01*
X0227222Y0170196D01*
X0229868Y0169100D01*
X0232732Y0169100D01*
X0235378Y0170196D01*
X0236300Y0171118D01*
X0237222Y0170196D01*
X0239868Y0169100D01*
X0242732Y0169100D01*
X0245378Y0170196D01*
X0246300Y0171118D01*
X0247222Y0170196D01*
X0249868Y0169100D01*
X0252732Y0169100D01*
X0255378Y0170196D01*
X0256300Y0171118D01*
X0257222Y0170196D01*
X0259868Y0169100D01*
X0262732Y0169100D01*
X0265067Y0170067D01*
X0264100Y0167732D01*
X0264100Y0164868D01*
X0265196Y0162222D01*
X0266118Y0161300D01*
X0265196Y0160378D01*
X0264100Y0157732D01*
X0264100Y0154868D01*
X0265196Y0152222D01*
X0266118Y0151300D01*
X0265196Y0150378D01*
X0264100Y0147732D01*
X0264100Y0144868D01*
X0265196Y0142222D01*
X0266118Y0141300D01*
X0265196Y0140378D01*
X0264100Y0137732D01*
X0264100Y0134868D01*
X0265196Y0132222D01*
X0266118Y0131300D01*
X0265196Y0130378D01*
X0264100Y0127732D01*
X0264100Y0124868D01*
X0265067Y0122533D01*
X0262732Y0123500D01*
X0259868Y0123500D01*
X0257222Y0122404D01*
X0256300Y0121482D01*
X0255378Y0122404D01*
X0252732Y0123500D01*
X0249868Y0123500D01*
X0247222Y0122404D01*
X0246300Y0121482D01*
X0245378Y0122404D01*
X0242732Y0123500D01*
X0239868Y0123500D01*
X0237222Y0122404D01*
X0236300Y0121482D01*
X0235378Y0122404D01*
X0232732Y0123500D01*
X0229868Y0123500D01*
X0227222Y0122404D01*
X0226300Y0121482D01*
X0225378Y0122404D01*
X0222732Y0123500D01*
X0219868Y0123500D01*
X0217222Y0122404D01*
X0216300Y0121482D01*
X0215378Y0122404D01*
X0212732Y0123500D01*
X0209868Y0123500D01*
X0207222Y0122404D01*
X0206300Y0121482D01*
X0205378Y0122404D01*
X0202732Y0123500D01*
X0199868Y0123500D01*
X0197222Y0122404D01*
X0196300Y0121482D01*
X0195378Y0122404D01*
X0192732Y0123500D01*
X0189868Y0123500D01*
X0187222Y0122404D01*
X0186300Y0121482D01*
X0185378Y0122404D01*
X0182732Y0123500D01*
X0179868Y0123500D01*
X0177222Y0122404D01*
X0176300Y0121482D01*
X0175378Y0122404D01*
X0172732Y0123500D01*
X0169868Y0123500D01*
X0167222Y0122404D01*
X0166300Y0121482D01*
X0165378Y0122404D01*
X0162732Y0123500D01*
X0161182Y0123500D01*
X0162404Y0124722D01*
X0163500Y0127368D01*
X0163500Y0130232D01*
X0162404Y0132878D01*
X0160378Y0134904D01*
X0157732Y0136000D01*
X0154868Y0136000D01*
X0152222Y0134904D01*
X0151300Y0133982D01*
X0150378Y0134904D01*
X0147732Y0136000D01*
X0144868Y0136000D01*
X0142222Y0134904D01*
X0141300Y0133982D01*
X0140378Y0134904D01*
X0137732Y0136000D01*
X0134868Y0136000D01*
X0132222Y0134904D01*
X0131300Y0133982D01*
X0130378Y0134904D01*
X0127732Y0136000D01*
X0124868Y0136000D01*
X0122222Y0134904D01*
X0121300Y0133982D01*
X0120378Y0134904D01*
X0117732Y0136000D01*
X0114868Y0136000D01*
X0112222Y0134904D01*
X0110196Y0132878D01*
X0109100Y0130232D01*
X0109100Y0127368D01*
X0110196Y0124722D01*
X0111418Y0123500D01*
X0109868Y0123500D01*
X0107222Y0122404D01*
X0106300Y0121482D01*
X0105378Y0122404D01*
X0102732Y0123500D01*
X0099868Y0123500D01*
X0097222Y0122404D01*
X0095196Y0120378D01*
X0094591Y0118916D01*
X0094504Y0119036D01*
X0094036Y0119504D01*
X0093501Y0119892D01*
X0092912Y0120192D01*
X0092284Y0120397D01*
X0091631Y0120500D01*
X0091600Y0120500D01*
X0091600Y0116600D01*
X0091000Y0116600D01*
X0091000Y0120500D01*
X0090969Y0120500D01*
X0090316Y0120397D01*
X0089688Y0120192D01*
X0089099Y0119892D01*
X0088564Y0119504D01*
X0088096Y0119036D01*
X0087708Y0118501D01*
X0087408Y0117912D01*
X0087203Y0117284D01*
X0087100Y0116631D01*
X0087100Y0116600D01*
X0091000Y0116600D01*
X0091000Y0116000D01*
X0091600Y0116000D01*
X0091600Y0112100D01*
X0091631Y0112100D01*
X0092284Y0112203D01*
X0092912Y0112408D01*
X0093501Y0112708D01*
X0094036Y0113096D01*
X0094504Y0113564D01*
X0094591Y0113684D01*
X0095196Y0112222D01*
X0097222Y0110196D01*
X0099868Y0109100D01*
X0102732Y0109100D01*
X0105378Y0110196D01*
X0106300Y0111118D01*
X0107222Y0110196D01*
X0109868Y0109100D01*
X0112732Y0109100D01*
X0115378Y0110196D01*
X0116300Y0111118D01*
X0117222Y0110196D01*
X0119868Y0109100D01*
X0122732Y0109100D01*
X0125378Y0110196D01*
X0126300Y0111118D01*
X0127222Y0110196D01*
X0129868Y0109100D01*
X0132732Y0109100D01*
X0135378Y0110196D01*
X0136300Y0111118D01*
X0137222Y0110196D01*
X0139868Y0109100D01*
X0142732Y0109100D01*
X0145378Y0110196D01*
X0146300Y0111118D01*
X0147222Y0110196D01*
X0149868Y0109100D01*
X0152732Y0109100D01*
X0154000Y0109625D01*
X0154000Y0104246D01*
X0154807Y0102298D01*
X0175807Y0081298D01*
X0177298Y0079807D01*
X0179246Y0079000D01*
X0289105Y0079000D01*
X0294982Y0073123D01*
X0294565Y0072116D01*
X0294101Y0072580D01*
X0293554Y0072978D01*
X0292951Y0073285D01*
X0292307Y0073494D01*
X0291638Y0073600D01*
X0291600Y0073600D01*
X0291600Y0066600D01*
X0291000Y0066600D01*
X0291000Y0073600D01*
X0290962Y0073600D01*
X0290293Y0073494D01*
X0289649Y0073285D01*
X0289046Y0072978D01*
X0288499Y0072580D01*
X0288020Y0072101D01*
X0287622Y0071554D01*
X0287315Y0070951D01*
X0287106Y0070307D01*
X0287000Y0069638D01*
X0287000Y0066600D01*
X0291000Y0066600D01*
X0291000Y0066000D01*
X0291600Y0066000D01*
X0291600Y0059000D01*
X0291638Y0059000D01*
X0292307Y0059106D01*
X0292951Y0059315D01*
X0293554Y0059622D01*
X0294101Y0060020D01*
X0294565Y0060484D01*
X0295111Y0059165D01*
X0297165Y0057111D01*
X0299848Y0056000D01*
X0302752Y0056000D01*
X0305435Y0057111D01*
X0306300Y0057976D01*
X0307165Y0057111D01*
X0309848Y0056000D01*
X0312752Y0056000D01*
X0315435Y0057111D01*
X0316300Y0057976D01*
X0317165Y0057111D01*
X0319848Y0056000D01*
X0322752Y0056000D01*
X0325435Y0057111D01*
X0327489Y0059165D01*
X0328600Y0061848D01*
X0328600Y0070752D01*
X0327489Y0073435D01*
X0325435Y0075489D01*
X0322752Y0076600D01*
X0319848Y0076600D01*
X0317165Y0075489D01*
X0316300Y0074624D01*
X0315435Y0075489D01*
X0312752Y0076600D01*
X0309848Y0076600D01*
X0307477Y0075618D01*
X0306302Y0076793D01*
X0294302Y0088793D01*
X0292354Y0089600D01*
X0182495Y0089600D01*
X0164600Y0107495D01*
X0164600Y0109874D01*
X0165378Y0110196D01*
X0166300Y0111118D01*
X0167222Y0110196D01*
X0169868Y0109100D01*
X0172732Y0109100D01*
X0175378Y0110196D01*
X0176300Y0111118D01*
X0177222Y0110196D01*
X0179868Y0109100D01*
X0182732Y0109100D01*
X0185378Y0110196D01*
X0186300Y0111118D01*
X0187222Y0110196D01*
X0189868Y0109100D01*
X0192732Y0109100D01*
X0195378Y0110196D01*
X0196300Y0111118D01*
X0197222Y0110196D01*
X0199868Y0109100D01*
X0202732Y0109100D01*
X0205378Y0110196D01*
X0206300Y0111118D01*
X0207222Y0110196D01*
X0209868Y0109100D01*
X0212732Y0109100D01*
X0215378Y0110196D01*
X0216300Y0111118D01*
X0217222Y0110196D01*
X0219868Y0109100D01*
X0222732Y0109100D01*
X0225378Y0110196D01*
X0226300Y0111118D01*
X0227222Y0110196D01*
X0229868Y0109100D01*
X0232732Y0109100D01*
X0235378Y0110196D01*
X0236300Y0111118D01*
X0237222Y0110196D01*
X0239868Y0109100D01*
X0242732Y0109100D01*
X0245378Y0110196D01*
X0246300Y0111118D01*
X0247222Y0110196D01*
X0249868Y0109100D01*
X0252732Y0109100D01*
X0255378Y0110196D01*
X0256300Y0111118D01*
X0257222Y0110196D01*
X0259868Y0109100D01*
X0262732Y0109100D01*
X0265378Y0110196D01*
X0266300Y0111118D01*
X0267222Y0110196D01*
X0269868Y0109100D01*
X0272732Y0109100D01*
X0275378Y0110196D01*
X0276300Y0111118D01*
X0277222Y0110196D01*
X0279868Y0109100D01*
X0282732Y0109100D01*
X0285378Y0110196D01*
X0286300Y0111118D01*
X0287222Y0110196D01*
X0289868Y0109100D01*
X0292732Y0109100D01*
X0295378Y0110196D01*
X0296300Y0111118D01*
X0297222Y0110196D01*
X0299868Y0109100D01*
X0302732Y0109100D01*
X0305378Y0110196D01*
X0306300Y0111118D01*
X0307222Y0110196D01*
X0309868Y0109100D01*
X0312732Y0109100D01*
X0315378Y0110196D01*
X0316300Y0111118D01*
X0317222Y0110196D01*
X0319868Y0109100D01*
X0322732Y0109100D01*
X0325378Y0110196D01*
X0327404Y0112222D01*
X0328500Y0114868D01*
X0328500Y0117732D01*
X0327404Y0120378D01*
X0325378Y0122404D01*
X0322732Y0123500D01*
X0319868Y0123500D01*
X0317222Y0122404D01*
X0316300Y0121482D01*
X0315378Y0122404D01*
X0312732Y0123500D01*
X0309868Y0123500D01*
X0307222Y0122404D01*
X0306300Y0121482D01*
X0305378Y0122404D01*
X0302732Y0123500D01*
X0299868Y0123500D01*
X0297222Y0122404D01*
X0296300Y0121482D01*
X0295378Y0122404D01*
X0292732Y0123500D01*
X0289868Y0123500D01*
X0287222Y0122404D01*
X0286300Y0121482D01*
X0285378Y0122404D01*
X0282732Y0123500D01*
X0279868Y0123500D01*
X0277533Y0122533D01*
X0278500Y0124868D01*
X0278500Y0127732D01*
X0277404Y0130378D01*
X0276482Y0131300D01*
X0277404Y0132222D01*
X0278500Y0134868D01*
X0278500Y0137732D01*
X0277404Y0140378D01*
X0276482Y0141300D01*
X0277404Y0142222D01*
X0278500Y0144868D01*
X0278500Y0147732D01*
X0277404Y0150378D01*
X0276482Y0151300D01*
X0277404Y0152222D01*
X0278500Y0154868D01*
X0278500Y0157732D01*
X0277404Y0160378D01*
X0276482Y0161300D01*
X0277404Y0162222D01*
X0278500Y0164868D01*
X0278500Y0167732D01*
X0277533Y0170067D01*
X0279868Y0169100D01*
X0282732Y0169100D01*
X0285378Y0170196D01*
X0286300Y0171118D01*
X0287222Y0170196D01*
X0289868Y0169100D01*
X0292732Y0169100D01*
X0295378Y0170196D01*
X0296300Y0171118D01*
X0297222Y0170196D01*
X0299868Y0169100D01*
X0302732Y0169100D01*
X0305378Y0170196D01*
X0306300Y0171118D01*
X0307222Y0170196D01*
X0309868Y0169100D01*
X0312732Y0169100D01*
X0315378Y0170196D01*
X0316300Y0171118D01*
X0317222Y0170196D01*
X0319868Y0169100D01*
X0322732Y0169100D01*
X0325378Y0170196D01*
X0327404Y0172222D01*
X0328500Y0174868D01*
X0328500Y0177732D01*
X0327404Y0180378D01*
X0325378Y0182404D01*
X0322732Y0183500D01*
X0319868Y0183500D01*
X0317222Y0182404D01*
X0316300Y0181482D01*
X0315378Y0182404D01*
X0312732Y0183500D01*
X0309868Y0183500D01*
X0307222Y0182404D01*
X0306300Y0181482D01*
X0305378Y0182404D01*
X0302732Y0183500D01*
X0299868Y0183500D01*
X0297222Y0182404D01*
X0296300Y0181482D01*
X0295378Y0182404D01*
X0292732Y0183500D01*
X0289868Y0183500D01*
X0287222Y0182404D01*
X0286300Y0181482D01*
X0285378Y0182404D01*
X0282732Y0183500D01*
X0279868Y0183500D01*
X0277222Y0182404D01*
X0276300Y0181482D01*
X0275378Y0182404D01*
X0272732Y0183500D01*
X0269868Y0183500D01*
X0267222Y0182404D01*
X0266300Y0181482D01*
X0265378Y0182404D01*
X0262732Y0183500D01*
X0259868Y0183500D01*
X0257222Y0182404D01*
X0256300Y0181482D01*
X0255378Y0182404D01*
X0252732Y0183500D01*
X0249868Y0183500D01*
X0247222Y0182404D01*
X0246300Y0181482D01*
X0245378Y0182404D01*
X0242732Y0183500D01*
X0239868Y0183500D01*
X0237222Y0182404D01*
X0236300Y0181482D01*
X0235378Y0182404D01*
X0232732Y0183500D01*
X0229868Y0183500D01*
X0227222Y0182404D01*
X0226300Y0181482D01*
X0225378Y0182404D01*
X0222732Y0183500D01*
X0219868Y0183500D01*
X0217222Y0182404D01*
X0216300Y0181482D01*
X0215378Y0182404D01*
X0212732Y0183500D01*
X0209868Y0183500D01*
X0207222Y0182404D01*
X0206600Y0181782D01*
X0206600Y0184105D01*
X0212495Y0190000D01*
X0307354Y0190000D01*
X0309302Y0190807D01*
X0315302Y0196807D01*
X0316793Y0198298D01*
X0317600Y0200246D01*
X0317600Y0204434D01*
X0318035Y0205484D01*
X0318499Y0205020D01*
X0319046Y0204622D01*
X0319649Y0204315D01*
X0320293Y0204106D01*
X0320962Y0204000D01*
X0321000Y0204000D01*
X0321000Y0211000D01*
X0321600Y0211000D01*
X0321600Y0211600D01*
X0321000Y0211600D01*
X0321000Y0218600D01*
X0320962Y0218600D01*
X0320293Y0218494D01*
X0319649Y0218285D01*
X0319046Y0217978D01*
X0318499Y0217580D01*
X0318035Y0217116D01*
X0317489Y0218435D01*
X0315435Y0220489D01*
X0312752Y0221600D01*
X0309848Y0221600D01*
X0307165Y0220489D01*
X0306300Y0219624D01*
X0305435Y0220489D01*
X0302752Y0221600D01*
X0299848Y0221600D01*
X0297165Y0220489D01*
X0296300Y0219624D01*
X0295435Y0220489D01*
X0292752Y0221600D01*
X0289848Y0221600D01*
X0287165Y0220489D01*
X0285111Y0218435D01*
X0284000Y0215752D01*
X0284000Y0206848D01*
X0285111Y0204165D01*
X0287165Y0202111D01*
X0289848Y0201000D01*
X0292752Y0201000D01*
X0295435Y0202111D01*
X0296300Y0202976D01*
X0297165Y0202111D01*
X0299848Y0201000D01*
X0302752Y0201000D01*
X0305435Y0202111D01*
X0306300Y0202976D01*
X0306390Y0202886D01*
X0304105Y0200600D01*
X0209246Y0200600D01*
X0207298Y0199793D01*
X0205807Y0198302D01*
X0197600Y0190095D01*
X0197600Y0196105D01*
X0217195Y0215700D01*
X0217613Y0215700D01*
X0219261Y0216383D01*
X0219000Y0215752D01*
X0219000Y0206848D01*
X0220111Y0204165D01*
X0222165Y0202111D01*
X0224848Y0201000D01*
X0227752Y0201000D01*
X0230435Y0202111D01*
X0231300Y0202976D01*
X0232165Y0202111D01*
X0234848Y0201000D01*
X0237752Y0201000D01*
X0240435Y0202111D01*
X0241300Y0202976D01*
X0242165Y0202111D01*
X0244848Y0201000D01*
X0247752Y0201000D01*
X0250435Y0202111D01*
X0252489Y0204165D01*
X0253035Y0205484D01*
X0253499Y0205020D01*
X0254046Y0204622D01*
X0254649Y0204315D01*
X0255293Y0204106D01*
X0255962Y0204000D01*
X0256000Y0204000D01*
X0256000Y0211000D01*
X0256600Y0211000D01*
X0256600Y0211600D01*
X0260600Y0211600D01*
X0260600Y0214638D01*
X0260494Y0215307D01*
X0260285Y0215951D01*
X0259978Y0216554D01*
X0259580Y0217101D01*
X0259101Y0217580D01*
X0258554Y0217978D01*
X0257951Y0218285D01*
X0257307Y0218494D01*
X0256638Y0218600D01*
X0256600Y0218600D01*
X0256600Y0211600D01*
X0256000Y0211600D01*
X0256000Y0218600D01*
X0255962Y0218600D01*
X0255293Y0218494D01*
X0254649Y0218285D01*
X0254046Y0217978D01*
X0253499Y0217580D01*
X0253035Y0217116D01*
X0252489Y0218435D01*
X0250435Y0220489D01*
X0247752Y0221600D01*
X0244848Y0221600D01*
X0242165Y0220489D01*
X0241300Y0219624D01*
X0240435Y0220489D01*
X0237752Y0221600D01*
X0234848Y0221600D01*
X0232165Y0220489D01*
X0231300Y0219624D01*
X0230435Y0220489D01*
X0227752Y0221600D01*
X0224848Y0221600D01*
X0222803Y0220753D01*
X0222900Y0220987D01*
X0222900Y0223613D01*
X0221895Y0226039D01*
X0220039Y0227895D01*
X0217613Y0228900D01*
X0219700Y0228036D02*
X0360701Y0228036D01*
X0360701Y0227437D02*
X0220497Y0227437D01*
X0221095Y0226839D02*
X0360701Y0226839D01*
X0360701Y0226240D02*
X0221694Y0226240D01*
X0222060Y0225641D02*
X0360701Y0225641D01*
X0360701Y0225043D02*
X0222308Y0225043D01*
X0222556Y0224444D02*
X0360701Y0224444D01*
X0360701Y0223846D02*
X0222803Y0223846D01*
X0222900Y0223247D02*
X0360701Y0223247D01*
X0360701Y0222649D02*
X0222900Y0222649D01*
X0222900Y0222050D02*
X0360701Y0222050D01*
X0360701Y0221452D02*
X0313110Y0221452D01*
X0314555Y0220853D02*
X0360701Y0220853D01*
X0360701Y0220255D02*
X0315669Y0220255D01*
X0316267Y0219656D02*
X0360701Y0219656D01*
X0360701Y0219058D02*
X0316866Y0219058D01*
X0317464Y0218459D02*
X0320186Y0218459D01*
X0321000Y0218459D02*
X0321600Y0218459D01*
X0321600Y0218600D02*
X0321600Y0211600D01*
X0325600Y0211600D01*
X0325600Y0214638D01*
X0325494Y0215307D01*
X0325285Y0215951D01*
X0324978Y0216554D01*
X0324580Y0217101D01*
X0324101Y0217580D01*
X0323554Y0217978D01*
X0322951Y0218285D01*
X0322307Y0218494D01*
X0321638Y0218600D01*
X0321600Y0218600D01*
X0321600Y0217861D02*
X0321000Y0217861D01*
X0321000Y0217262D02*
X0321600Y0217262D01*
X0321600Y0216664D02*
X0321000Y0216664D01*
X0321000Y0216065D02*
X0321600Y0216065D01*
X0321600Y0215467D02*
X0321000Y0215467D01*
X0321000Y0214868D02*
X0321600Y0214868D01*
X0321600Y0214270D02*
X0321000Y0214270D01*
X0321000Y0213671D02*
X0321600Y0213671D01*
X0321600Y0213073D02*
X0321000Y0213073D01*
X0321000Y0212474D02*
X0321600Y0212474D01*
X0321600Y0211876D02*
X0321000Y0211876D01*
X0321600Y0211277D02*
X0332953Y0211277D01*
X0332355Y0210679D02*
X0325600Y0210679D01*
X0325600Y0211000D02*
X0321600Y0211000D01*
X0321600Y0204000D01*
X0321638Y0204000D01*
X0322307Y0204106D01*
X0322951Y0204315D01*
X0323554Y0204622D01*
X0324101Y0205020D01*
X0324580Y0205499D01*
X0324978Y0206046D01*
X0325285Y0206649D01*
X0325494Y0207293D01*
X0325600Y0207962D01*
X0325600Y0211000D01*
X0325600Y0211876D02*
X0333552Y0211876D01*
X0334150Y0212474D02*
X0325600Y0212474D01*
X0325600Y0213073D02*
X0335575Y0213073D01*
X0336848Y0213600D02*
X0334165Y0212489D01*
X0332111Y0210435D01*
X0331000Y0207752D01*
X0331000Y0204848D01*
X0332111Y0202165D01*
X0332976Y0201300D01*
X0332111Y0200435D01*
X0331000Y0197752D01*
X0331000Y0194848D01*
X0332111Y0192165D01*
X0334165Y0190111D01*
X0335484Y0189565D01*
X0335020Y0189101D01*
X0334622Y0188554D01*
X0334315Y0187951D01*
X0334106Y0187307D01*
X0334000Y0186638D01*
X0334000Y0186600D01*
X0341000Y0186600D01*
X0341000Y0186000D01*
X0341600Y0186000D01*
X0341600Y0186600D01*
X0348600Y0186600D01*
X0348600Y0186638D01*
X0348494Y0187307D01*
X0348285Y0187951D01*
X0347978Y0188554D01*
X0347580Y0189101D01*
X0347116Y0189565D01*
X0348435Y0190111D01*
X0350489Y0192165D01*
X0351600Y0194848D01*
X0351600Y0197752D01*
X0350489Y0200435D01*
X0349624Y0201300D01*
X0350489Y0202165D01*
X0351600Y0204848D01*
X0351600Y0207752D01*
X0350489Y0210435D01*
X0348435Y0212489D01*
X0345752Y0213600D01*
X0336848Y0213600D01*
X0331964Y0210080D02*
X0325600Y0210080D01*
X0325600Y0209482D02*
X0331716Y0209482D01*
X0331469Y0208883D02*
X0325600Y0208883D01*
X0325600Y0208285D02*
X0331221Y0208285D01*
X0331000Y0207686D02*
X0325556Y0207686D01*
X0325427Y0207088D02*
X0331000Y0207088D01*
X0331000Y0206489D02*
X0325203Y0206489D01*
X0324865Y0205891D02*
X0331000Y0205891D01*
X0331000Y0205292D02*
X0324373Y0205292D01*
X0323652Y0204694D02*
X0331064Y0204694D01*
X0331312Y0204095D02*
X0322239Y0204095D01*
X0321600Y0204095D02*
X0321000Y0204095D01*
X0321000Y0204694D02*
X0321600Y0204694D01*
X0321600Y0205292D02*
X0321000Y0205292D01*
X0321000Y0205891D02*
X0321600Y0205891D01*
X0321600Y0206489D02*
X0321000Y0206489D01*
X0321000Y0207088D02*
X0321600Y0207088D01*
X0321600Y0207686D02*
X0321000Y0207686D01*
X0321000Y0208285D02*
X0321600Y0208285D01*
X0321600Y0208883D02*
X0321000Y0208883D01*
X0321000Y0209482D02*
X0321600Y0209482D01*
X0321600Y0210080D02*
X0321000Y0210080D01*
X0321000Y0210679D02*
X0321600Y0210679D01*
X0325600Y0213671D02*
X0360701Y0213671D01*
X0360701Y0213073D02*
X0347025Y0213073D01*
X0348450Y0212474D02*
X0360701Y0212474D01*
X0360701Y0211876D02*
X0349048Y0211876D01*
X0349647Y0211277D02*
X0360701Y0211277D01*
X0360701Y0210679D02*
X0350245Y0210679D01*
X0350636Y0210080D02*
X0360701Y0210080D01*
X0360701Y0209482D02*
X0350884Y0209482D01*
X0351131Y0208883D02*
X0360701Y0208883D01*
X0360701Y0208285D02*
X0351379Y0208285D01*
X0351600Y0207686D02*
X0360701Y0207686D01*
X0360701Y0207088D02*
X0351600Y0207088D01*
X0351600Y0206489D02*
X0360701Y0206489D01*
X0360701Y0205891D02*
X0351600Y0205891D01*
X0351600Y0205292D02*
X0360701Y0205292D01*
X0360701Y0204694D02*
X0351536Y0204694D01*
X0351288Y0204095D02*
X0360701Y0204095D01*
X0360701Y0203497D02*
X0351040Y0203497D01*
X0350792Y0202898D02*
X0360701Y0202898D01*
X0360701Y0202300D02*
X0350544Y0202300D01*
X0350025Y0201701D02*
X0360701Y0201701D01*
X0360701Y0201103D02*
X0349821Y0201103D01*
X0350420Y0200504D02*
X0360701Y0200504D01*
X0360701Y0199905D02*
X0350708Y0199905D01*
X0350956Y0199307D02*
X0360701Y0199307D01*
X0360701Y0198708D02*
X0351204Y0198708D01*
X0351452Y0198110D02*
X0360701Y0198110D01*
X0360701Y0197511D02*
X0351600Y0197511D01*
X0351600Y0196913D02*
X0360701Y0196913D01*
X0360701Y0196314D02*
X0351600Y0196314D01*
X0351600Y0195716D02*
X0360701Y0195716D01*
X0360701Y0195117D02*
X0351600Y0195117D01*
X0351464Y0194519D02*
X0360701Y0194519D01*
X0360701Y0193920D02*
X0351216Y0193920D01*
X0350968Y0193322D02*
X0360701Y0193322D01*
X0360701Y0192723D02*
X0350720Y0192723D01*
X0350449Y0192125D02*
X0360701Y0192125D01*
X0360701Y0191526D02*
X0349850Y0191526D01*
X0349252Y0190928D02*
X0360701Y0190928D01*
X0360701Y0190329D02*
X0348653Y0190329D01*
X0347516Y0189731D02*
X0360701Y0189731D01*
X0360701Y0189132D02*
X0347549Y0189132D01*
X0347988Y0188534D02*
X0360701Y0188534D01*
X0360701Y0187935D02*
X0348290Y0187935D01*
X0348484Y0187337D02*
X0360701Y0187337D01*
X0360701Y0186738D02*
X0348584Y0186738D01*
X0348600Y0186000D02*
X0341600Y0186000D01*
X0341600Y0182000D01*
X0344638Y0182000D01*
X0345307Y0182106D01*
X0345951Y0182315D01*
X0346554Y0182622D01*
X0347101Y0183020D01*
X0347580Y0183499D01*
X0347978Y0184046D01*
X0348285Y0184649D01*
X0348494Y0185293D01*
X0348600Y0185962D01*
X0348600Y0186000D01*
X0348533Y0185541D02*
X0360701Y0185541D01*
X0360701Y0184943D02*
X0348380Y0184943D01*
X0348129Y0184344D02*
X0360701Y0184344D01*
X0360701Y0183746D02*
X0347759Y0183746D01*
X0347228Y0183147D02*
X0360701Y0183147D01*
X0360701Y0182549D02*
X0346409Y0182549D01*
X0341600Y0182549D02*
X0341000Y0182549D01*
X0341000Y0182000D02*
X0341000Y0186000D01*
X0334000Y0186000D01*
X0334000Y0185962D01*
X0334106Y0185293D01*
X0334315Y0184649D01*
X0334622Y0184046D01*
X0335020Y0183499D01*
X0335499Y0183020D01*
X0336046Y0182622D01*
X0336649Y0182315D01*
X0337293Y0182106D01*
X0337962Y0182000D01*
X0341000Y0182000D01*
X0341000Y0183147D02*
X0341600Y0183147D01*
X0341600Y0183746D02*
X0341000Y0183746D01*
X0341000Y0184344D02*
X0341600Y0184344D01*
X0341600Y0184943D02*
X0341000Y0184943D01*
X0341000Y0185541D02*
X0341600Y0185541D01*
X0341600Y0186140D02*
X0360701Y0186140D01*
X0360701Y0181950D02*
X0325832Y0181950D01*
X0326431Y0181352D02*
X0360701Y0181352D01*
X0360701Y0180753D02*
X0327029Y0180753D01*
X0327497Y0180155D02*
X0360701Y0180155D01*
X0360701Y0179556D02*
X0327744Y0179556D01*
X0327992Y0178958D02*
X0360701Y0178958D01*
X0360701Y0178359D02*
X0328240Y0178359D01*
X0328488Y0177761D02*
X0360701Y0177761D01*
X0360701Y0177162D02*
X0328500Y0177162D01*
X0328500Y0176564D02*
X0360701Y0176564D01*
X0360701Y0175965D02*
X0328500Y0175965D01*
X0328500Y0175367D02*
X0360701Y0175367D01*
X0360701Y0174768D02*
X0328459Y0174768D01*
X0328211Y0174170D02*
X0360701Y0174170D01*
X0360701Y0173571D02*
X0327963Y0173571D01*
X0327715Y0172972D02*
X0360701Y0172972D01*
X0360701Y0172374D02*
X0327467Y0172374D01*
X0326958Y0171775D02*
X0360701Y0171775D01*
X0360701Y0171177D02*
X0326359Y0171177D01*
X0325761Y0170578D02*
X0360701Y0170578D01*
X0360701Y0169980D02*
X0324857Y0169980D01*
X0323412Y0169381D02*
X0360701Y0169381D01*
X0360701Y0168783D02*
X0278065Y0168783D01*
X0278313Y0168184D02*
X0360701Y0168184D01*
X0360701Y0167586D02*
X0278500Y0167586D01*
X0278500Y0166987D02*
X0360701Y0166987D01*
X0360701Y0166389D02*
X0278500Y0166389D01*
X0278500Y0165790D02*
X0360701Y0165790D01*
X0360701Y0165192D02*
X0278500Y0165192D01*
X0278386Y0164593D02*
X0360701Y0164593D01*
X0360701Y0163995D02*
X0278138Y0163995D01*
X0277890Y0163396D02*
X0360701Y0163396D01*
X0360701Y0162798D02*
X0277643Y0162798D01*
X0277382Y0162199D02*
X0360701Y0162199D01*
X0360701Y0161601D02*
X0276783Y0161601D01*
X0276780Y0161002D02*
X0360701Y0161002D01*
X0360701Y0160404D02*
X0277379Y0160404D01*
X0277641Y0159805D02*
X0360701Y0159805D01*
X0360701Y0159207D02*
X0277889Y0159207D01*
X0278137Y0158608D02*
X0360701Y0158608D01*
X0360701Y0158010D02*
X0278385Y0158010D01*
X0278500Y0157411D02*
X0360701Y0157411D01*
X0360701Y0156813D02*
X0278500Y0156813D01*
X0278500Y0156214D02*
X0298504Y0156214D01*
X0297324Y0155898D02*
X0294976Y0154542D01*
X0293058Y0152624D01*
X0291702Y0150276D01*
X0291000Y0147656D01*
X0291000Y0144944D01*
X0291702Y0142324D01*
X0293058Y0139976D01*
X0294976Y0138058D01*
X0297324Y0136702D01*
X0299944Y0136000D01*
X0302656Y0136000D01*
X0305276Y0136702D01*
X0307624Y0138058D01*
X0309542Y0139976D01*
X0310898Y0142324D01*
X0311600Y0144944D01*
X0311600Y0147656D01*
X0310898Y0150276D01*
X0309542Y0152624D01*
X0307624Y0154542D01*
X0305276Y0155898D01*
X0302656Y0156600D01*
X0299944Y0156600D01*
X0297324Y0155898D01*
X0296835Y0155616D02*
X0278500Y0155616D01*
X0278500Y0155017D02*
X0295799Y0155017D01*
X0294852Y0154419D02*
X0278314Y0154419D01*
X0278066Y0153820D02*
X0294254Y0153820D01*
X0293655Y0153222D02*
X0277818Y0153222D01*
X0277570Y0152623D02*
X0293057Y0152623D01*
X0292712Y0152025D02*
X0277207Y0152025D01*
X0276608Y0151426D02*
X0292366Y0151426D01*
X0292021Y0150828D02*
X0276955Y0150828D01*
X0277466Y0150229D02*
X0291689Y0150229D01*
X0291529Y0149631D02*
X0277714Y0149631D01*
X0277962Y0149032D02*
X0291369Y0149032D01*
X0291208Y0148434D02*
X0278209Y0148434D01*
X0278457Y0147835D02*
X0291048Y0147835D01*
X0291000Y0147237D02*
X0278500Y0147237D01*
X0278500Y0146638D02*
X0291000Y0146638D01*
X0291000Y0146039D02*
X0278500Y0146039D01*
X0278500Y0145441D02*
X0291000Y0145441D01*
X0291027Y0144842D02*
X0278489Y0144842D01*
X0278242Y0144244D02*
X0291188Y0144244D01*
X0291348Y0143645D02*
X0277994Y0143645D01*
X0277746Y0143047D02*
X0291508Y0143047D01*
X0291669Y0142448D02*
X0277498Y0142448D01*
X0277032Y0141850D02*
X0291976Y0141850D01*
X0292321Y0141251D02*
X0276531Y0141251D01*
X0277129Y0140653D02*
X0292667Y0140653D01*
X0293013Y0140054D02*
X0277538Y0140054D01*
X0277786Y0139456D02*
X0293578Y0139456D01*
X0294176Y0138857D02*
X0278034Y0138857D01*
X0278282Y0138259D02*
X0294775Y0138259D01*
X0295664Y0137660D02*
X0278500Y0137660D01*
X0278500Y0137062D02*
X0296701Y0137062D01*
X0298215Y0136463D02*
X0278500Y0136463D01*
X0278500Y0135865D02*
X0360701Y0135865D01*
X0360701Y0136463D02*
X0304385Y0136463D01*
X0305899Y0137062D02*
X0360701Y0137062D01*
X0360701Y0137660D02*
X0306936Y0137660D01*
X0307825Y0138259D02*
X0360701Y0138259D01*
X0360701Y0138857D02*
X0308424Y0138857D01*
X0309022Y0139456D02*
X0360701Y0139456D01*
X0360701Y0140054D02*
X0309587Y0140054D01*
X0309933Y0140653D02*
X0360701Y0140653D01*
X0360701Y0141251D02*
X0310279Y0141251D01*
X0310624Y0141850D02*
X0360701Y0141850D01*
X0360701Y0142448D02*
X0310931Y0142448D01*
X0311092Y0143047D02*
X0360701Y0143047D01*
X0360701Y0143645D02*
X0311252Y0143645D01*
X0311412Y0144244D02*
X0360701Y0144244D01*
X0360701Y0144842D02*
X0311573Y0144842D01*
X0311600Y0145441D02*
X0360701Y0145441D01*
X0360701Y0146039D02*
X0311600Y0146039D01*
X0311600Y0146638D02*
X0360701Y0146638D01*
X0360701Y0147237D02*
X0311600Y0147237D01*
X0311552Y0147835D02*
X0360701Y0147835D01*
X0360701Y0148434D02*
X0311392Y0148434D01*
X0311231Y0149032D02*
X0360701Y0149032D01*
X0360701Y0149631D02*
X0311071Y0149631D01*
X0310911Y0150229D02*
X0360701Y0150229D01*
X0360701Y0150828D02*
X0310579Y0150828D01*
X0310234Y0151426D02*
X0360701Y0151426D01*
X0360701Y0152025D02*
X0309888Y0152025D01*
X0309543Y0152623D02*
X0360701Y0152623D01*
X0360701Y0153222D02*
X0308945Y0153222D01*
X0308346Y0153820D02*
X0360701Y0153820D01*
X0360701Y0154419D02*
X0307748Y0154419D01*
X0306801Y0155017D02*
X0360701Y0155017D01*
X0360701Y0155616D02*
X0305765Y0155616D01*
X0304096Y0156214D02*
X0360701Y0156214D01*
X0360701Y0135266D02*
X0278500Y0135266D01*
X0278417Y0134668D02*
X0360701Y0134668D01*
X0360701Y0134069D02*
X0278169Y0134069D01*
X0277921Y0133471D02*
X0360701Y0133471D01*
X0360701Y0132872D02*
X0277673Y0132872D01*
X0277425Y0132274D02*
X0360701Y0132274D01*
X0360701Y0131675D02*
X0276858Y0131675D01*
X0276706Y0131077D02*
X0360701Y0131077D01*
X0360701Y0130478D02*
X0277304Y0130478D01*
X0277610Y0129880D02*
X0360701Y0129880D01*
X0360701Y0129281D02*
X0277858Y0129281D01*
X0278106Y0128683D02*
X0360701Y0128683D01*
X0360701Y0128084D02*
X0278354Y0128084D01*
X0278500Y0127486D02*
X0360701Y0127486D01*
X0360701Y0126887D02*
X0278500Y0126887D01*
X0278500Y0126289D02*
X0360701Y0126289D01*
X0360701Y0125690D02*
X0278500Y0125690D01*
X0278500Y0125092D02*
X0360701Y0125092D01*
X0360701Y0124493D02*
X0278345Y0124493D01*
X0278097Y0123895D02*
X0360701Y0123895D01*
X0360701Y0123296D02*
X0323225Y0123296D01*
X0324669Y0122698D02*
X0360701Y0122698D01*
X0360701Y0122099D02*
X0325683Y0122099D01*
X0326282Y0121501D02*
X0360701Y0121501D01*
X0360701Y0120902D02*
X0326880Y0120902D01*
X0327435Y0120303D02*
X0360701Y0120303D01*
X0360701Y0119705D02*
X0327683Y0119705D01*
X0327931Y0119106D02*
X0360701Y0119106D01*
X0360701Y0118508D02*
X0328179Y0118508D01*
X0328427Y0117909D02*
X0360701Y0117909D01*
X0360701Y0117311D02*
X0328500Y0117311D01*
X0328500Y0116712D02*
X0360701Y0116712D01*
X0360701Y0116114D02*
X0328500Y0116114D01*
X0328500Y0115515D02*
X0360701Y0115515D01*
X0360701Y0114917D02*
X0328500Y0114917D01*
X0328272Y0114318D02*
X0360701Y0114318D01*
X0360701Y0113720D02*
X0328024Y0113720D01*
X0327777Y0113121D02*
X0360701Y0113121D01*
X0360701Y0112523D02*
X0327529Y0112523D01*
X0327107Y0111924D02*
X0360701Y0111924D01*
X0360701Y0111326D02*
X0326508Y0111326D01*
X0325910Y0110727D02*
X0360701Y0110727D01*
X0360701Y0110129D02*
X0325216Y0110129D01*
X0323771Y0109530D02*
X0360701Y0109530D01*
X0360701Y0108932D02*
X0164600Y0108932D01*
X0164600Y0109530D02*
X0168829Y0109530D01*
X0167384Y0110129D02*
X0165216Y0110129D01*
X0165910Y0110727D02*
X0166690Y0110727D01*
X0164600Y0108333D02*
X0360701Y0108333D01*
X0360701Y0107735D02*
X0164600Y0107735D01*
X0164959Y0107136D02*
X0360701Y0107136D01*
X0360701Y0106538D02*
X0165558Y0106538D01*
X0166156Y0105939D02*
X0360701Y0105939D01*
X0360701Y0105341D02*
X0166755Y0105341D01*
X0167353Y0104742D02*
X0360701Y0104742D01*
X0360701Y0104144D02*
X0167952Y0104144D01*
X0168550Y0103545D02*
X0360701Y0103545D01*
X0360701Y0102947D02*
X0169149Y0102947D01*
X0169747Y0102348D02*
X0360701Y0102348D01*
X0360701Y0101750D02*
X0170346Y0101750D01*
X0170944Y0101151D02*
X0360701Y0101151D01*
X0360701Y0100553D02*
X0171543Y0100553D01*
X0172141Y0099954D02*
X0360701Y0099954D01*
X0360701Y0099356D02*
X0172740Y0099356D01*
X0173338Y0098757D02*
X0360701Y0098757D01*
X0360701Y0098159D02*
X0173937Y0098159D01*
X0174535Y0097560D02*
X0360701Y0097560D01*
X0360701Y0096962D02*
X0175134Y0096962D01*
X0175732Y0096363D02*
X0360701Y0096363D01*
X0360701Y0095765D02*
X0176331Y0095765D01*
X0176929Y0095166D02*
X0360701Y0095166D01*
X0360701Y0094568D02*
X0177528Y0094568D01*
X0178126Y0093969D02*
X0360701Y0093969D01*
X0360701Y0093370D02*
X0178725Y0093370D01*
X0179323Y0092772D02*
X0360701Y0092772D01*
X0360701Y0092173D02*
X0179922Y0092173D01*
X0180520Y0091575D02*
X0360701Y0091575D01*
X0360701Y0090976D02*
X0181119Y0090976D01*
X0181717Y0090378D02*
X0360701Y0090378D01*
X0360701Y0089779D02*
X0182316Y0089779D01*
X0175106Y0081999D02*
X0050600Y0081999D01*
X0050600Y0082597D02*
X0174507Y0082597D01*
X0173909Y0083196D02*
X0050600Y0083196D01*
X0050600Y0083794D02*
X0173310Y0083794D01*
X0172712Y0084393D02*
X0050600Y0084393D01*
X0050600Y0084991D02*
X0172113Y0084991D01*
X0171515Y0085590D02*
X0050600Y0085590D01*
X0050600Y0086188D02*
X0170916Y0086188D01*
X0170318Y0086787D02*
X0050600Y0086787D01*
X0050600Y0087385D02*
X0169719Y0087385D01*
X0169121Y0087984D02*
X0050600Y0087984D01*
X0050600Y0088582D02*
X0168522Y0088582D01*
X0167924Y0089181D02*
X0050600Y0089181D01*
X0050600Y0089779D02*
X0167325Y0089779D01*
X0166727Y0090378D02*
X0050600Y0090378D01*
X0050600Y0090976D02*
X0166128Y0090976D01*
X0165530Y0091575D02*
X0050600Y0091575D01*
X0050600Y0092173D02*
X0164931Y0092173D01*
X0164333Y0092772D02*
X0050600Y0092772D01*
X0050600Y0093370D02*
X0163734Y0093370D01*
X0163136Y0093969D02*
X0050600Y0093969D01*
X0050600Y0094568D02*
X0162537Y0094568D01*
X0161939Y0095166D02*
X0050600Y0095166D01*
X0050600Y0095765D02*
X0161340Y0095765D01*
X0160742Y0096363D02*
X0050600Y0096363D01*
X0050600Y0096962D02*
X0160143Y0096962D01*
X0159545Y0097560D02*
X0050600Y0097560D01*
X0050600Y0098159D02*
X0158946Y0098159D01*
X0158348Y0098757D02*
X0050600Y0098757D01*
X0050600Y0099356D02*
X0157749Y0099356D01*
X0157151Y0099954D02*
X0050600Y0099954D01*
X0050600Y0100553D02*
X0156552Y0100553D01*
X0155954Y0101151D02*
X0050600Y0101151D01*
X0050600Y0101750D02*
X0155355Y0101750D01*
X0154786Y0102348D02*
X0050600Y0102348D01*
X0050600Y0102947D02*
X0154538Y0102947D01*
X0154290Y0103545D02*
X0050600Y0103545D01*
X0050600Y0104144D02*
X0154042Y0104144D01*
X0154000Y0104742D02*
X0050600Y0104742D01*
X0050600Y0105341D02*
X0154000Y0105341D01*
X0154000Y0105939D02*
X0050600Y0105939D01*
X0050600Y0106538D02*
X0154000Y0106538D01*
X0154000Y0107136D02*
X0050600Y0107136D01*
X0050600Y0107735D02*
X0154000Y0107735D01*
X0154000Y0108333D02*
X0050600Y0108333D01*
X0050600Y0108932D02*
X0154000Y0108932D01*
X0154000Y0109530D02*
X0153771Y0109530D01*
X0148829Y0109530D02*
X0143771Y0109530D01*
X0145216Y0110129D02*
X0147384Y0110129D01*
X0146690Y0110727D02*
X0145910Y0110727D01*
X0138829Y0109530D02*
X0133771Y0109530D01*
X0135216Y0110129D02*
X0137384Y0110129D01*
X0136690Y0110727D02*
X0135910Y0110727D01*
X0128829Y0109530D02*
X0123771Y0109530D01*
X0125216Y0110129D02*
X0127384Y0110129D01*
X0126690Y0110727D02*
X0125910Y0110727D01*
X0118829Y0109530D02*
X0113771Y0109530D01*
X0115216Y0110129D02*
X0117384Y0110129D01*
X0116690Y0110727D02*
X0115910Y0110727D01*
X0108829Y0109530D02*
X0103771Y0109530D01*
X0105216Y0110129D02*
X0107384Y0110129D01*
X0106690Y0110727D02*
X0105910Y0110727D01*
X0098829Y0109530D02*
X0050600Y0109530D01*
X0050600Y0110129D02*
X0097384Y0110129D01*
X0096690Y0110727D02*
X0050600Y0110727D01*
X0050600Y0111326D02*
X0096092Y0111326D01*
X0095493Y0111924D02*
X0050600Y0111924D01*
X0050600Y0112523D02*
X0089462Y0112523D01*
X0089688Y0112408D02*
X0090316Y0112203D01*
X0090969Y0112100D01*
X0091000Y0112100D01*
X0091000Y0116000D01*
X0087100Y0116000D01*
X0087100Y0115969D01*
X0087203Y0115316D01*
X0087408Y0114688D01*
X0087708Y0114099D01*
X0088096Y0113564D01*
X0088564Y0113096D01*
X0089099Y0112708D01*
X0089688Y0112408D01*
X0091000Y0112523D02*
X0091600Y0112523D01*
X0091600Y0113121D02*
X0091000Y0113121D01*
X0091000Y0113720D02*
X0091600Y0113720D01*
X0091600Y0114318D02*
X0091000Y0114318D01*
X0091000Y0114917D02*
X0091600Y0114917D01*
X0091600Y0115515D02*
X0091000Y0115515D01*
X0091000Y0116114D02*
X0050600Y0116114D01*
X0050600Y0116712D02*
X0087113Y0116712D01*
X0087212Y0117311D02*
X0050600Y0117311D01*
X0050600Y0117909D02*
X0087407Y0117909D01*
X0087713Y0118508D02*
X0050600Y0118508D01*
X0050600Y0119106D02*
X0088167Y0119106D01*
X0088841Y0119705D02*
X0050600Y0119705D01*
X0050600Y0120303D02*
X0090030Y0120303D01*
X0091000Y0120303D02*
X0091600Y0120303D01*
X0091600Y0119705D02*
X0091000Y0119705D01*
X0091000Y0119106D02*
X0091600Y0119106D01*
X0091600Y0118508D02*
X0091000Y0118508D01*
X0091000Y0117909D02*
X0091600Y0117909D01*
X0091600Y0117311D02*
X0091000Y0117311D01*
X0091000Y0116712D02*
X0091600Y0116712D01*
X0093759Y0119705D02*
X0094917Y0119705D01*
X0094669Y0119106D02*
X0094433Y0119106D01*
X0095165Y0120303D02*
X0092570Y0120303D01*
X0095720Y0120902D02*
X0050600Y0120902D01*
X0050600Y0121501D02*
X0096318Y0121501D01*
X0096917Y0122099D02*
X0050600Y0122099D01*
X0050600Y0122698D02*
X0097931Y0122698D01*
X0099375Y0123296D02*
X0050600Y0123296D01*
X0050600Y0123895D02*
X0111023Y0123895D01*
X0110425Y0124493D02*
X0050600Y0124493D01*
X0050600Y0125092D02*
X0110043Y0125092D01*
X0109795Y0125690D02*
X0050600Y0125690D01*
X0050600Y0126289D02*
X0109547Y0126289D01*
X0109299Y0126887D02*
X0050600Y0126887D01*
X0050600Y0127486D02*
X0109100Y0127486D01*
X0109100Y0128084D02*
X0050600Y0128084D01*
X0050600Y0128683D02*
X0109100Y0128683D01*
X0109100Y0129281D02*
X0050600Y0129281D01*
X0050600Y0129880D02*
X0109100Y0129880D01*
X0109202Y0130478D02*
X0050600Y0130478D01*
X0050600Y0131077D02*
X0109450Y0131077D01*
X0109698Y0131675D02*
X0050600Y0131675D01*
X0050600Y0132274D02*
X0109946Y0132274D01*
X0110194Y0132872D02*
X0050600Y0132872D01*
X0050600Y0133471D02*
X0110788Y0133471D01*
X0111387Y0134069D02*
X0050600Y0134069D01*
X0050600Y0134668D02*
X0111985Y0134668D01*
X0113096Y0135266D02*
X0050600Y0135266D01*
X0050600Y0135865D02*
X0114541Y0135865D01*
X0118059Y0135865D02*
X0124541Y0135865D01*
X0123096Y0135266D02*
X0119504Y0135266D01*
X0120615Y0134668D02*
X0121985Y0134668D01*
X0121387Y0134069D02*
X0121213Y0134069D01*
X0128059Y0135865D02*
X0134541Y0135865D01*
X0133096Y0135266D02*
X0129504Y0135266D01*
X0130615Y0134668D02*
X0131985Y0134668D01*
X0131387Y0134069D02*
X0131213Y0134069D01*
X0138059Y0135865D02*
X0144541Y0135865D01*
X0143096Y0135266D02*
X0139504Y0135266D01*
X0140615Y0134668D02*
X0141985Y0134668D01*
X0141387Y0134069D02*
X0141213Y0134069D01*
X0148059Y0135865D02*
X0154541Y0135865D01*
X0153096Y0135266D02*
X0149504Y0135266D01*
X0150615Y0134668D02*
X0151985Y0134668D01*
X0151387Y0134069D02*
X0151213Y0134069D01*
X0158059Y0135865D02*
X0264100Y0135865D01*
X0264100Y0136463D02*
X0179385Y0136463D01*
X0180276Y0136702D02*
X0182624Y0138058D01*
X0184542Y0139976D01*
X0185898Y0142324D01*
X0186600Y0144944D01*
X0186600Y0147656D01*
X0185898Y0150276D01*
X0184542Y0152624D01*
X0182624Y0154542D01*
X0180276Y0155898D01*
X0177656Y0156600D01*
X0174944Y0156600D01*
X0172324Y0155898D01*
X0169976Y0154542D01*
X0168058Y0152624D01*
X0166702Y0150276D01*
X0166000Y0147656D01*
X0166000Y0144944D01*
X0166702Y0142324D01*
X0168058Y0139976D01*
X0169976Y0138058D01*
X0172324Y0136702D01*
X0174944Y0136000D01*
X0177656Y0136000D01*
X0180276Y0136702D01*
X0180899Y0137062D02*
X0264100Y0137062D01*
X0264100Y0137660D02*
X0181936Y0137660D01*
X0182825Y0138259D02*
X0264318Y0138259D01*
X0264566Y0138857D02*
X0183424Y0138857D01*
X0184022Y0139456D02*
X0264814Y0139456D01*
X0265062Y0140054D02*
X0184587Y0140054D01*
X0184933Y0140653D02*
X0265471Y0140653D01*
X0266069Y0141251D02*
X0185279Y0141251D01*
X0185624Y0141850D02*
X0265568Y0141850D01*
X0265102Y0142448D02*
X0185931Y0142448D01*
X0186092Y0143047D02*
X0264854Y0143047D01*
X0264606Y0143645D02*
X0186252Y0143645D01*
X0186412Y0144244D02*
X0264358Y0144244D01*
X0264110Y0144842D02*
X0186573Y0144842D01*
X0186600Y0145441D02*
X0264100Y0145441D01*
X0264100Y0146039D02*
X0186600Y0146039D01*
X0186600Y0146638D02*
X0264100Y0146638D01*
X0264100Y0147237D02*
X0186600Y0147237D01*
X0186552Y0147835D02*
X0264143Y0147835D01*
X0264391Y0148434D02*
X0186392Y0148434D01*
X0186231Y0149032D02*
X0264638Y0149032D01*
X0264886Y0149631D02*
X0186071Y0149631D01*
X0185911Y0150229D02*
X0265134Y0150229D01*
X0265645Y0150828D02*
X0185579Y0150828D01*
X0185234Y0151426D02*
X0265992Y0151426D01*
X0265393Y0152025D02*
X0184888Y0152025D01*
X0184543Y0152623D02*
X0265030Y0152623D01*
X0264782Y0153222D02*
X0183945Y0153222D01*
X0183346Y0153820D02*
X0264534Y0153820D01*
X0264286Y0154419D02*
X0182748Y0154419D01*
X0181801Y0155017D02*
X0264100Y0155017D01*
X0264100Y0155616D02*
X0180765Y0155616D01*
X0179096Y0156214D02*
X0264100Y0156214D01*
X0264100Y0156813D02*
X0050600Y0156813D01*
X0050600Y0157411D02*
X0264100Y0157411D01*
X0264215Y0158010D02*
X0050600Y0158010D01*
X0050600Y0158608D02*
X0264463Y0158608D01*
X0264711Y0159207D02*
X0142990Y0159207D01*
X0144435Y0159805D02*
X0264959Y0159805D01*
X0265221Y0160404D02*
X0145586Y0160404D01*
X0146185Y0161002D02*
X0265820Y0161002D01*
X0265817Y0161601D02*
X0146783Y0161601D01*
X0147382Y0162199D02*
X0265218Y0162199D01*
X0264957Y0162798D02*
X0147643Y0162798D01*
X0147890Y0163396D02*
X0264710Y0163396D01*
X0264462Y0163995D02*
X0148138Y0163995D01*
X0148386Y0164593D02*
X0264214Y0164593D01*
X0264100Y0165192D02*
X0148500Y0165192D01*
X0148500Y0165790D02*
X0264100Y0165790D01*
X0264100Y0166389D02*
X0148500Y0166389D01*
X0148500Y0166987D02*
X0264100Y0166987D01*
X0264100Y0167586D02*
X0148500Y0167586D01*
X0148313Y0168184D02*
X0264287Y0168184D01*
X0264535Y0168783D02*
X0148065Y0168783D01*
X0147817Y0169381D02*
X0149188Y0169381D01*
X0147743Y0169980D02*
X0147569Y0169980D01*
X0153412Y0169381D02*
X0159188Y0169381D01*
X0157743Y0169980D02*
X0154857Y0169980D01*
X0155761Y0170578D02*
X0156839Y0170578D01*
X0163412Y0169381D02*
X0169188Y0169381D01*
X0167743Y0169980D02*
X0164857Y0169980D01*
X0165761Y0170578D02*
X0166839Y0170578D01*
X0173412Y0169381D02*
X0179188Y0169381D01*
X0177743Y0169980D02*
X0174857Y0169980D01*
X0175761Y0170578D02*
X0176839Y0170578D01*
X0183412Y0169381D02*
X0189188Y0169381D01*
X0187743Y0169980D02*
X0184857Y0169980D01*
X0185761Y0170578D02*
X0186839Y0170578D01*
X0193412Y0169381D02*
X0199188Y0169381D01*
X0197743Y0169980D02*
X0194857Y0169980D01*
X0195761Y0170578D02*
X0196839Y0170578D01*
X0203412Y0169381D02*
X0209188Y0169381D01*
X0207743Y0169980D02*
X0204857Y0169980D01*
X0205761Y0170578D02*
X0206839Y0170578D01*
X0213412Y0169381D02*
X0219188Y0169381D01*
X0217743Y0169980D02*
X0214857Y0169980D01*
X0215761Y0170578D02*
X0216839Y0170578D01*
X0223412Y0169381D02*
X0229188Y0169381D01*
X0227743Y0169980D02*
X0224857Y0169980D01*
X0225761Y0170578D02*
X0226839Y0170578D01*
X0233412Y0169381D02*
X0239188Y0169381D01*
X0237743Y0169980D02*
X0234857Y0169980D01*
X0235761Y0170578D02*
X0236839Y0170578D01*
X0243412Y0169381D02*
X0249188Y0169381D01*
X0247743Y0169980D02*
X0244857Y0169980D01*
X0245761Y0170578D02*
X0246839Y0170578D01*
X0253412Y0169381D02*
X0259188Y0169381D01*
X0257743Y0169980D02*
X0254857Y0169980D01*
X0255761Y0170578D02*
X0256839Y0170578D01*
X0263412Y0169381D02*
X0264783Y0169381D01*
X0264857Y0169980D02*
X0265031Y0169980D01*
X0277569Y0169980D02*
X0277743Y0169980D01*
X0277817Y0169381D02*
X0279188Y0169381D01*
X0283412Y0169381D02*
X0289188Y0169381D01*
X0287743Y0169980D02*
X0284857Y0169980D01*
X0285761Y0170578D02*
X0286839Y0170578D01*
X0293412Y0169381D02*
X0299188Y0169381D01*
X0297743Y0169980D02*
X0294857Y0169980D01*
X0295761Y0170578D02*
X0296839Y0170578D01*
X0303412Y0169381D02*
X0309188Y0169381D01*
X0307743Y0169980D02*
X0304857Y0169980D01*
X0305761Y0170578D02*
X0306839Y0170578D01*
X0313412Y0169381D02*
X0319188Y0169381D01*
X0317743Y0169980D02*
X0314857Y0169980D01*
X0315761Y0170578D02*
X0316839Y0170578D01*
X0316768Y0181950D02*
X0315832Y0181950D01*
X0315029Y0182549D02*
X0317571Y0182549D01*
X0319016Y0183147D02*
X0313584Y0183147D01*
X0309016Y0183147D02*
X0303584Y0183147D01*
X0305029Y0182549D02*
X0307571Y0182549D01*
X0306768Y0181950D02*
X0305832Y0181950D01*
X0299016Y0183147D02*
X0293584Y0183147D01*
X0295029Y0182549D02*
X0297571Y0182549D01*
X0296768Y0181950D02*
X0295832Y0181950D01*
X0289016Y0183147D02*
X0283584Y0183147D01*
X0285029Y0182549D02*
X0287571Y0182549D01*
X0286768Y0181950D02*
X0285832Y0181950D01*
X0279016Y0183147D02*
X0273584Y0183147D01*
X0275029Y0182549D02*
X0277571Y0182549D01*
X0276768Y0181950D02*
X0275832Y0181950D01*
X0269016Y0183147D02*
X0263584Y0183147D01*
X0265029Y0182549D02*
X0267571Y0182549D01*
X0266768Y0181950D02*
X0265832Y0181950D01*
X0259016Y0183147D02*
X0253584Y0183147D01*
X0255029Y0182549D02*
X0257571Y0182549D01*
X0256768Y0181950D02*
X0255832Y0181950D01*
X0249016Y0183147D02*
X0243584Y0183147D01*
X0245029Y0182549D02*
X0247571Y0182549D01*
X0246768Y0181950D02*
X0245832Y0181950D01*
X0239016Y0183147D02*
X0233584Y0183147D01*
X0235029Y0182549D02*
X0237571Y0182549D01*
X0236768Y0181950D02*
X0235832Y0181950D01*
X0229016Y0183147D02*
X0223584Y0183147D01*
X0225029Y0182549D02*
X0227571Y0182549D01*
X0226768Y0181950D02*
X0225832Y0181950D01*
X0219016Y0183147D02*
X0213584Y0183147D01*
X0215029Y0182549D02*
X0217571Y0182549D01*
X0216768Y0181950D02*
X0215832Y0181950D01*
X0209016Y0183147D02*
X0206600Y0183147D01*
X0206600Y0182549D02*
X0207571Y0182549D01*
X0206768Y0181950D02*
X0206600Y0181950D01*
X0206600Y0183746D02*
X0334841Y0183746D01*
X0334471Y0184344D02*
X0206840Y0184344D01*
X0207438Y0184943D02*
X0334220Y0184943D01*
X0334067Y0185541D02*
X0208037Y0185541D01*
X0208635Y0186140D02*
X0341000Y0186140D01*
X0335372Y0183147D02*
X0323584Y0183147D01*
X0325029Y0182549D02*
X0336191Y0182549D01*
X0334016Y0186738D02*
X0209234Y0186738D01*
X0209832Y0187337D02*
X0334116Y0187337D01*
X0334310Y0187935D02*
X0210431Y0187935D01*
X0211029Y0188534D02*
X0334612Y0188534D01*
X0335051Y0189132D02*
X0211628Y0189132D01*
X0212226Y0189731D02*
X0335084Y0189731D01*
X0333947Y0190329D02*
X0308149Y0190329D01*
X0309423Y0190928D02*
X0333348Y0190928D01*
X0332750Y0191526D02*
X0310022Y0191526D01*
X0310620Y0192125D02*
X0332151Y0192125D01*
X0331880Y0192723D02*
X0311219Y0192723D01*
X0311817Y0193322D02*
X0331632Y0193322D01*
X0331384Y0193920D02*
X0312416Y0193920D01*
X0313014Y0194519D02*
X0331136Y0194519D01*
X0331000Y0195117D02*
X0313613Y0195117D01*
X0314211Y0195716D02*
X0331000Y0195716D01*
X0331000Y0196314D02*
X0314810Y0196314D01*
X0315408Y0196913D02*
X0331000Y0196913D01*
X0331000Y0197511D02*
X0316007Y0197511D01*
X0316605Y0198110D02*
X0331148Y0198110D01*
X0331396Y0198708D02*
X0316963Y0198708D01*
X0317211Y0199307D02*
X0331644Y0199307D01*
X0331892Y0199905D02*
X0317459Y0199905D01*
X0317600Y0200504D02*
X0332180Y0200504D01*
X0332779Y0201103D02*
X0317600Y0201103D01*
X0317600Y0201701D02*
X0332575Y0201701D01*
X0332056Y0202300D02*
X0317600Y0202300D01*
X0317600Y0202898D02*
X0331808Y0202898D01*
X0331560Y0203497D02*
X0317600Y0203497D01*
X0317600Y0204095D02*
X0320361Y0204095D01*
X0318948Y0204694D02*
X0317708Y0204694D01*
X0317956Y0205292D02*
X0318227Y0205292D01*
X0325600Y0214270D02*
X0360701Y0214270D01*
X0360701Y0214868D02*
X0325564Y0214868D01*
X0325442Y0215467D02*
X0360701Y0215467D01*
X0360701Y0216065D02*
X0325227Y0216065D01*
X0324898Y0216664D02*
X0360701Y0216664D01*
X0360701Y0217262D02*
X0324419Y0217262D01*
X0323715Y0217861D02*
X0360701Y0217861D01*
X0360701Y0218459D02*
X0322414Y0218459D01*
X0318885Y0217861D02*
X0317727Y0217861D01*
X0317974Y0217262D02*
X0318181Y0217262D01*
X0309490Y0221452D02*
X0303110Y0221452D01*
X0304555Y0220853D02*
X0308045Y0220853D01*
X0306931Y0220255D02*
X0305669Y0220255D01*
X0306267Y0219656D02*
X0306333Y0219656D01*
X0299490Y0221452D02*
X0293110Y0221452D01*
X0294555Y0220853D02*
X0298045Y0220853D01*
X0296931Y0220255D02*
X0295669Y0220255D01*
X0296267Y0219656D02*
X0296333Y0219656D01*
X0289490Y0221452D02*
X0248110Y0221452D01*
X0249555Y0220853D02*
X0288045Y0220853D01*
X0286931Y0220255D02*
X0250669Y0220255D01*
X0251267Y0219656D02*
X0286333Y0219656D01*
X0285734Y0219058D02*
X0251866Y0219058D01*
X0252464Y0218459D02*
X0255186Y0218459D01*
X0256000Y0218459D02*
X0256600Y0218459D01*
X0256600Y0217861D02*
X0256000Y0217861D01*
X0256000Y0217262D02*
X0256600Y0217262D01*
X0256600Y0216664D02*
X0256000Y0216664D01*
X0256000Y0216065D02*
X0256600Y0216065D01*
X0256600Y0215467D02*
X0256000Y0215467D01*
X0256000Y0214868D02*
X0256600Y0214868D01*
X0256600Y0214270D02*
X0256000Y0214270D01*
X0256000Y0213671D02*
X0256600Y0213671D01*
X0256600Y0213073D02*
X0256000Y0213073D01*
X0256000Y0212474D02*
X0256600Y0212474D01*
X0256600Y0211876D02*
X0256000Y0211876D01*
X0256600Y0211277D02*
X0284000Y0211277D01*
X0284000Y0210679D02*
X0260600Y0210679D01*
X0260600Y0211000D02*
X0256600Y0211000D01*
X0256600Y0204000D01*
X0256638Y0204000D01*
X0257307Y0204106D01*
X0257951Y0204315D01*
X0258554Y0204622D01*
X0259101Y0205020D01*
X0259580Y0205499D01*
X0259978Y0206046D01*
X0260285Y0206649D01*
X0260494Y0207293D01*
X0260600Y0207962D01*
X0260600Y0211000D01*
X0260600Y0211876D02*
X0284000Y0211876D01*
X0284000Y0212474D02*
X0260600Y0212474D01*
X0260600Y0213073D02*
X0284000Y0213073D01*
X0284000Y0213671D02*
X0260600Y0213671D01*
X0260600Y0214270D02*
X0284000Y0214270D01*
X0284000Y0214868D02*
X0260564Y0214868D01*
X0260442Y0215467D02*
X0284000Y0215467D01*
X0284130Y0216065D02*
X0260227Y0216065D01*
X0259898Y0216664D02*
X0284378Y0216664D01*
X0284626Y0217262D02*
X0259419Y0217262D01*
X0258715Y0217861D02*
X0284873Y0217861D01*
X0285136Y0218459D02*
X0257414Y0218459D01*
X0253885Y0217861D02*
X0252727Y0217861D01*
X0252974Y0217262D02*
X0253181Y0217262D01*
X0256000Y0210679D02*
X0256600Y0210679D01*
X0256600Y0210080D02*
X0256000Y0210080D01*
X0256000Y0209482D02*
X0256600Y0209482D01*
X0256600Y0208883D02*
X0256000Y0208883D01*
X0256000Y0208285D02*
X0256600Y0208285D01*
X0256600Y0207686D02*
X0256000Y0207686D01*
X0256000Y0207088D02*
X0256600Y0207088D01*
X0256600Y0206489D02*
X0256000Y0206489D01*
X0256000Y0205891D02*
X0256600Y0205891D01*
X0256600Y0205292D02*
X0256000Y0205292D01*
X0256000Y0204694D02*
X0256600Y0204694D01*
X0256600Y0204095D02*
X0256000Y0204095D01*
X0255361Y0204095D02*
X0252419Y0204095D01*
X0252708Y0204694D02*
X0253948Y0204694D01*
X0253227Y0205292D02*
X0252956Y0205292D01*
X0251820Y0203497D02*
X0285780Y0203497D01*
X0285181Y0204095D02*
X0257239Y0204095D01*
X0258652Y0204694D02*
X0284892Y0204694D01*
X0284644Y0205292D02*
X0259373Y0205292D01*
X0259865Y0205891D02*
X0284397Y0205891D01*
X0284149Y0206489D02*
X0260203Y0206489D01*
X0260427Y0207088D02*
X0284000Y0207088D01*
X0284000Y0207686D02*
X0260556Y0207686D01*
X0260600Y0208285D02*
X0284000Y0208285D01*
X0284000Y0208883D02*
X0260600Y0208883D01*
X0260600Y0209482D02*
X0284000Y0209482D01*
X0284000Y0210080D02*
X0260600Y0210080D01*
X0251222Y0202898D02*
X0286378Y0202898D01*
X0286977Y0202300D02*
X0250623Y0202300D01*
X0249445Y0201701D02*
X0288155Y0201701D01*
X0289600Y0201103D02*
X0248000Y0201103D01*
X0244600Y0201103D02*
X0238000Y0201103D01*
X0239445Y0201701D02*
X0243155Y0201701D01*
X0241977Y0202300D02*
X0240623Y0202300D01*
X0241222Y0202898D02*
X0241378Y0202898D01*
X0234600Y0201103D02*
X0228000Y0201103D01*
X0229445Y0201701D02*
X0233155Y0201701D01*
X0231977Y0202300D02*
X0230623Y0202300D01*
X0231222Y0202898D02*
X0231378Y0202898D01*
X0224600Y0201103D02*
X0202598Y0201103D01*
X0203196Y0201701D02*
X0223155Y0201701D01*
X0221977Y0202300D02*
X0203795Y0202300D01*
X0204393Y0202898D02*
X0221378Y0202898D01*
X0220780Y0203497D02*
X0204992Y0203497D01*
X0205590Y0204095D02*
X0220181Y0204095D01*
X0219892Y0204694D02*
X0206189Y0204694D01*
X0206787Y0205292D02*
X0219644Y0205292D01*
X0219397Y0205891D02*
X0207386Y0205891D01*
X0207984Y0206489D02*
X0219149Y0206489D01*
X0219000Y0207088D02*
X0208583Y0207088D01*
X0209181Y0207686D02*
X0219000Y0207686D01*
X0219000Y0208285D02*
X0209780Y0208285D01*
X0210378Y0208883D02*
X0219000Y0208883D01*
X0219000Y0209482D02*
X0210977Y0209482D01*
X0211576Y0210080D02*
X0219000Y0210080D01*
X0219000Y0210679D02*
X0212174Y0210679D01*
X0212773Y0211277D02*
X0219000Y0211277D01*
X0219000Y0211876D02*
X0213371Y0211876D01*
X0213970Y0212474D02*
X0219000Y0212474D01*
X0219000Y0213073D02*
X0214568Y0213073D01*
X0215167Y0213671D02*
X0219000Y0213671D01*
X0219000Y0214270D02*
X0215765Y0214270D01*
X0216364Y0214868D02*
X0219000Y0214868D01*
X0219000Y0215467D02*
X0216962Y0215467D01*
X0218495Y0216065D02*
X0219130Y0216065D01*
X0222845Y0220853D02*
X0223046Y0220853D01*
X0222900Y0221452D02*
X0224490Y0221452D01*
X0228110Y0221452D02*
X0234490Y0221452D01*
X0233045Y0220853D02*
X0229555Y0220853D01*
X0230669Y0220255D02*
X0231931Y0220255D01*
X0231333Y0219656D02*
X0231267Y0219656D01*
X0238110Y0221452D02*
X0244490Y0221452D01*
X0243045Y0220853D02*
X0239555Y0220853D01*
X0240669Y0220255D02*
X0241931Y0220255D01*
X0241333Y0219656D02*
X0241267Y0219656D01*
X0214345Y0228634D02*
X0050600Y0228634D01*
X0050600Y0228036D02*
X0212900Y0228036D01*
X0212103Y0227437D02*
X0050600Y0227437D01*
X0050600Y0226839D02*
X0211505Y0226839D01*
X0210906Y0226240D02*
X0050600Y0226240D01*
X0050600Y0225641D02*
X0210540Y0225641D01*
X0210292Y0225043D02*
X0050600Y0225043D01*
X0050600Y0224444D02*
X0210044Y0224444D01*
X0209797Y0223846D02*
X0050600Y0223846D01*
X0050600Y0223247D02*
X0209700Y0223247D01*
X0209154Y0222649D02*
X0050600Y0222649D01*
X0050600Y0222050D02*
X0208555Y0222050D01*
X0207957Y0221452D02*
X0173110Y0221452D01*
X0172752Y0221600D02*
X0169848Y0221600D01*
X0167165Y0220489D01*
X0166300Y0219624D01*
X0165435Y0220489D01*
X0162752Y0221600D01*
X0159848Y0221600D01*
X0157165Y0220489D01*
X0156300Y0219624D01*
X0155435Y0220489D01*
X0152752Y0221600D01*
X0149848Y0221600D01*
X0147165Y0220489D01*
X0145111Y0218435D01*
X0144000Y0215752D01*
X0144000Y0206848D01*
X0145111Y0204165D01*
X0147165Y0202111D01*
X0149848Y0201000D01*
X0152752Y0201000D01*
X0155435Y0202111D01*
X0156300Y0202976D01*
X0157165Y0202111D01*
X0159848Y0201000D01*
X0162752Y0201000D01*
X0165435Y0202111D01*
X0166300Y0202976D01*
X0167165Y0202111D01*
X0169848Y0201000D01*
X0172752Y0201000D01*
X0175435Y0202111D01*
X0177489Y0204165D01*
X0178035Y0205484D01*
X0178499Y0205020D01*
X0179046Y0204622D01*
X0179649Y0204315D01*
X0180293Y0204106D01*
X0180962Y0204000D01*
X0181000Y0204000D01*
X0181000Y0211000D01*
X0181600Y0211000D01*
X0181600Y0211600D01*
X0185600Y0211600D01*
X0185600Y0214638D01*
X0185494Y0215307D01*
X0185285Y0215951D01*
X0184978Y0216554D01*
X0184580Y0217101D01*
X0184101Y0217580D01*
X0183554Y0217978D01*
X0182951Y0218285D01*
X0182307Y0218494D01*
X0181638Y0218600D01*
X0181600Y0218600D01*
X0181600Y0211600D01*
X0181000Y0211600D01*
X0181000Y0218600D01*
X0180962Y0218600D01*
X0180293Y0218494D01*
X0179649Y0218285D01*
X0179046Y0217978D01*
X0178499Y0217580D01*
X0178035Y0217116D01*
X0177489Y0218435D01*
X0175435Y0220489D01*
X0172752Y0221600D01*
X0174555Y0220853D02*
X0207358Y0220853D01*
X0206760Y0220255D02*
X0175669Y0220255D01*
X0176267Y0219656D02*
X0206161Y0219656D01*
X0205563Y0219058D02*
X0176866Y0219058D01*
X0177464Y0218459D02*
X0180186Y0218459D01*
X0181000Y0218459D02*
X0181600Y0218459D01*
X0181600Y0217861D02*
X0181000Y0217861D01*
X0181000Y0217262D02*
X0181600Y0217262D01*
X0181600Y0216664D02*
X0181000Y0216664D01*
X0181000Y0216065D02*
X0181600Y0216065D01*
X0181600Y0215467D02*
X0181000Y0215467D01*
X0181000Y0214868D02*
X0181600Y0214868D01*
X0181600Y0214270D02*
X0181000Y0214270D01*
X0181000Y0213671D02*
X0181600Y0213671D01*
X0181600Y0213073D02*
X0181000Y0213073D01*
X0181000Y0212474D02*
X0181600Y0212474D01*
X0181600Y0211876D02*
X0181000Y0211876D01*
X0181600Y0211277D02*
X0197782Y0211277D01*
X0197183Y0210679D02*
X0185600Y0210679D01*
X0185600Y0211000D02*
X0181600Y0211000D01*
X0181600Y0204000D01*
X0181638Y0204000D01*
X0182307Y0204106D01*
X0182951Y0204315D01*
X0183554Y0204622D01*
X0184101Y0205020D01*
X0184580Y0205499D01*
X0184978Y0206046D01*
X0185285Y0206649D01*
X0185494Y0207293D01*
X0185600Y0207962D01*
X0185600Y0211000D01*
X0185600Y0211876D02*
X0198380Y0211876D01*
X0198979Y0212474D02*
X0185600Y0212474D01*
X0185600Y0213073D02*
X0199577Y0213073D01*
X0200176Y0213671D02*
X0185600Y0213671D01*
X0185600Y0214270D02*
X0200774Y0214270D01*
X0201373Y0214868D02*
X0185564Y0214868D01*
X0185442Y0215467D02*
X0201971Y0215467D01*
X0202570Y0216065D02*
X0185227Y0216065D01*
X0184898Y0216664D02*
X0203168Y0216664D01*
X0203767Y0217262D02*
X0184419Y0217262D01*
X0183715Y0217861D02*
X0204366Y0217861D01*
X0204964Y0218459D02*
X0182414Y0218459D01*
X0178885Y0217861D02*
X0177727Y0217861D01*
X0177974Y0217262D02*
X0178181Y0217262D01*
X0181000Y0210679D02*
X0181600Y0210679D01*
X0181600Y0210080D02*
X0181000Y0210080D01*
X0181000Y0209482D02*
X0181600Y0209482D01*
X0181600Y0208883D02*
X0181000Y0208883D01*
X0181000Y0208285D02*
X0181600Y0208285D01*
X0181600Y0207686D02*
X0181000Y0207686D01*
X0181000Y0207088D02*
X0181600Y0207088D01*
X0181600Y0206489D02*
X0181000Y0206489D01*
X0181000Y0205891D02*
X0181600Y0205891D01*
X0181600Y0205292D02*
X0181000Y0205292D01*
X0181000Y0204694D02*
X0181600Y0204694D01*
X0181600Y0204095D02*
X0181000Y0204095D01*
X0180361Y0204095D02*
X0177419Y0204095D01*
X0177708Y0204694D02*
X0178948Y0204694D01*
X0178227Y0205292D02*
X0177956Y0205292D01*
X0176820Y0203497D02*
X0190001Y0203497D01*
X0190600Y0204095D02*
X0182239Y0204095D01*
X0183652Y0204694D02*
X0191198Y0204694D01*
X0191797Y0205292D02*
X0184373Y0205292D01*
X0184865Y0205891D02*
X0192395Y0205891D01*
X0192994Y0206489D02*
X0185203Y0206489D01*
X0185427Y0207088D02*
X0193592Y0207088D01*
X0194191Y0207686D02*
X0185556Y0207686D01*
X0185600Y0208285D02*
X0194789Y0208285D01*
X0195388Y0208883D02*
X0185600Y0208883D01*
X0185600Y0209482D02*
X0195986Y0209482D01*
X0196585Y0210080D02*
X0185600Y0210080D01*
X0189403Y0202898D02*
X0176222Y0202898D01*
X0175623Y0202300D02*
X0188804Y0202300D01*
X0188206Y0201701D02*
X0174445Y0201701D01*
X0173000Y0201103D02*
X0187724Y0201103D01*
X0187476Y0200504D02*
X0080591Y0200504D01*
X0079993Y0201103D02*
X0089600Y0201103D01*
X0089848Y0201000D02*
X0092752Y0201000D01*
X0095435Y0202111D01*
X0096300Y0202976D01*
X0097165Y0202111D01*
X0099848Y0201000D01*
X0102752Y0201000D01*
X0105435Y0202111D01*
X0106300Y0202976D01*
X0107165Y0202111D01*
X0109848Y0201000D01*
X0112752Y0201000D01*
X0115435Y0202111D01*
X0117489Y0204165D01*
X0118035Y0205484D01*
X0118499Y0205020D01*
X0119046Y0204622D01*
X0119649Y0204315D01*
X0120293Y0204106D01*
X0120962Y0204000D01*
X0121000Y0204000D01*
X0121000Y0211000D01*
X0121600Y0211000D01*
X0121600Y0211600D01*
X0125600Y0211600D01*
X0125600Y0214638D01*
X0125494Y0215307D01*
X0125285Y0215951D01*
X0124978Y0216554D01*
X0124580Y0217101D01*
X0124101Y0217580D01*
X0123554Y0217978D01*
X0122951Y0218285D01*
X0122307Y0218494D01*
X0121638Y0218600D01*
X0121600Y0218600D01*
X0121600Y0211600D01*
X0121000Y0211600D01*
X0121000Y0218600D01*
X0120962Y0218600D01*
X0120293Y0218494D01*
X0119649Y0218285D01*
X0119046Y0217978D01*
X0118499Y0217580D01*
X0118035Y0217116D01*
X0117489Y0218435D01*
X0115435Y0220489D01*
X0112752Y0221600D01*
X0109848Y0221600D01*
X0107165Y0220489D01*
X0106300Y0219624D01*
X0105435Y0220489D01*
X0102752Y0221600D01*
X0099848Y0221600D01*
X0097165Y0220489D01*
X0096300Y0219624D01*
X0095435Y0220489D01*
X0092752Y0221600D01*
X0089848Y0221600D01*
X0087165Y0220489D01*
X0085111Y0218435D01*
X0084000Y0215752D01*
X0084000Y0206848D01*
X0085111Y0204165D01*
X0087165Y0202111D01*
X0089848Y0201000D01*
X0088155Y0201701D02*
X0079394Y0201701D01*
X0078796Y0202300D02*
X0086977Y0202300D01*
X0086378Y0202898D02*
X0078049Y0202898D01*
X0076604Y0203497D02*
X0085780Y0203497D01*
X0085181Y0204095D02*
X0073003Y0204095D01*
X0073299Y0204694D02*
X0084892Y0204694D01*
X0084644Y0205292D02*
X0073494Y0205292D01*
X0073589Y0205891D02*
X0084397Y0205891D01*
X0084149Y0206489D02*
X0066600Y0206489D01*
X0066600Y0206600D02*
X0073600Y0206600D01*
X0073600Y0206638D01*
X0073494Y0207307D01*
X0073285Y0207951D01*
X0072978Y0208554D01*
X0072580Y0209101D01*
X0072101Y0209580D01*
X0071554Y0209978D01*
X0070951Y0210285D01*
X0070307Y0210494D01*
X0069638Y0210600D01*
X0066600Y0210600D01*
X0066600Y0206600D01*
X0066600Y0207088D02*
X0066000Y0207088D01*
X0066000Y0207686D02*
X0066600Y0207686D01*
X0066600Y0208285D02*
X0066000Y0208285D01*
X0066000Y0208883D02*
X0066600Y0208883D01*
X0066600Y0209482D02*
X0066000Y0209482D01*
X0066000Y0210080D02*
X0066600Y0210080D01*
X0071352Y0210080D02*
X0084000Y0210080D01*
X0084000Y0209482D02*
X0072199Y0209482D01*
X0072738Y0208883D02*
X0084000Y0208883D01*
X0084000Y0208285D02*
X0073115Y0208285D01*
X0073371Y0207686D02*
X0084000Y0207686D01*
X0084000Y0207088D02*
X0073529Y0207088D01*
X0073996Y0203497D02*
X0072578Y0203497D01*
X0072551Y0202898D02*
X0072447Y0202898D01*
X0066000Y0206489D02*
X0050600Y0206489D01*
X0050600Y0205891D02*
X0059011Y0205891D01*
X0059106Y0205292D02*
X0050600Y0205292D01*
X0050600Y0204694D02*
X0059301Y0204694D01*
X0059597Y0204095D02*
X0050600Y0204095D01*
X0050600Y0203497D02*
X0060022Y0203497D01*
X0060153Y0202898D02*
X0050600Y0202898D01*
X0050600Y0202300D02*
X0058976Y0202300D01*
X0058377Y0201701D02*
X0050600Y0201701D01*
X0050600Y0201103D02*
X0057779Y0201103D01*
X0057180Y0200504D02*
X0050600Y0200504D01*
X0050600Y0199905D02*
X0056892Y0199905D01*
X0056644Y0199307D02*
X0050600Y0199307D01*
X0050600Y0198708D02*
X0056396Y0198708D01*
X0056148Y0198110D02*
X0050600Y0198110D01*
X0050600Y0197511D02*
X0056000Y0197511D01*
X0056000Y0196913D02*
X0050600Y0196913D01*
X0050600Y0196314D02*
X0056000Y0196314D01*
X0056000Y0195716D02*
X0050600Y0195716D01*
X0050600Y0195117D02*
X0056000Y0195117D01*
X0056136Y0194519D02*
X0050600Y0194519D01*
X0050600Y0193920D02*
X0056384Y0193920D01*
X0056632Y0193322D02*
X0050600Y0193322D01*
X0050600Y0192723D02*
X0056880Y0192723D01*
X0057151Y0192125D02*
X0050600Y0192125D01*
X0050600Y0191526D02*
X0057750Y0191526D01*
X0057604Y0190928D02*
X0050600Y0190928D01*
X0050600Y0190329D02*
X0057068Y0190329D01*
X0056820Y0189731D02*
X0050600Y0189731D01*
X0050600Y0189132D02*
X0056572Y0189132D01*
X0056324Y0188534D02*
X0050600Y0188534D01*
X0050600Y0187935D02*
X0056076Y0187935D01*
X0056000Y0187337D02*
X0050600Y0187337D01*
X0050600Y0186738D02*
X0056000Y0186738D01*
X0056000Y0186140D02*
X0050600Y0186140D01*
X0050600Y0185541D02*
X0056000Y0185541D01*
X0056000Y0184943D02*
X0050600Y0184943D01*
X0050600Y0184344D02*
X0056209Y0184344D01*
X0056457Y0183746D02*
X0050600Y0183746D01*
X0050600Y0183147D02*
X0056704Y0183147D01*
X0056952Y0182549D02*
X0050600Y0182549D01*
X0050600Y0181950D02*
X0057326Y0181950D01*
X0057925Y0181352D02*
X0050600Y0181352D01*
X0050600Y0180753D02*
X0058523Y0180753D01*
X0059122Y0180155D02*
X0050600Y0180155D01*
X0050600Y0179556D02*
X0060505Y0179556D01*
X0050600Y0178958D02*
X0084608Y0178958D01*
X0084856Y0179556D02*
X0072095Y0179556D01*
X0073478Y0180155D02*
X0085103Y0180155D01*
X0085571Y0180753D02*
X0074077Y0180753D01*
X0074675Y0181352D02*
X0086169Y0181352D01*
X0086768Y0181950D02*
X0075274Y0181950D01*
X0075648Y0182549D02*
X0087571Y0182549D01*
X0089016Y0183147D02*
X0075896Y0183147D01*
X0076143Y0183746D02*
X0115000Y0183746D01*
X0115000Y0183147D02*
X0113584Y0183147D01*
X0114760Y0184344D02*
X0076391Y0184344D01*
X0076600Y0184943D02*
X0114162Y0184943D01*
X0113563Y0185541D02*
X0076600Y0185541D01*
X0076600Y0186140D02*
X0112965Y0186140D01*
X0112366Y0186738D02*
X0076600Y0186738D01*
X0076600Y0187337D02*
X0079433Y0187337D01*
X0078169Y0187935D02*
X0076524Y0187935D01*
X0076276Y0188534D02*
X0077571Y0188534D01*
X0076972Y0189132D02*
X0076028Y0189132D01*
X0075780Y0189731D02*
X0076374Y0189731D01*
X0075775Y0190329D02*
X0075532Y0190329D01*
X0082985Y0198110D02*
X0187000Y0198110D01*
X0187000Y0198708D02*
X0082387Y0198708D01*
X0081788Y0199307D02*
X0187000Y0199307D01*
X0187228Y0199905D02*
X0081190Y0199905D01*
X0093000Y0201103D02*
X0099600Y0201103D01*
X0098155Y0201701D02*
X0094445Y0201701D01*
X0095623Y0202300D02*
X0096977Y0202300D01*
X0096378Y0202898D02*
X0096222Y0202898D01*
X0103000Y0201103D02*
X0109600Y0201103D01*
X0108155Y0201701D02*
X0104445Y0201701D01*
X0105623Y0202300D02*
X0106977Y0202300D01*
X0106378Y0202898D02*
X0106222Y0202898D01*
X0113000Y0201103D02*
X0149600Y0201103D01*
X0148155Y0201701D02*
X0114445Y0201701D01*
X0115623Y0202300D02*
X0146977Y0202300D01*
X0146378Y0202898D02*
X0116222Y0202898D01*
X0116820Y0203497D02*
X0145780Y0203497D01*
X0145181Y0204095D02*
X0122239Y0204095D01*
X0122307Y0204106D02*
X0122951Y0204315D01*
X0123554Y0204622D01*
X0124101Y0205020D01*
X0124580Y0205499D01*
X0124978Y0206046D01*
X0125285Y0206649D01*
X0125494Y0207293D01*
X0125600Y0207962D01*
X0125600Y0211000D01*
X0121600Y0211000D01*
X0121600Y0204000D01*
X0121638Y0204000D01*
X0122307Y0204106D01*
X0121600Y0204095D02*
X0121000Y0204095D01*
X0121000Y0204694D02*
X0121600Y0204694D01*
X0121600Y0205292D02*
X0121000Y0205292D01*
X0121000Y0205891D02*
X0121600Y0205891D01*
X0121600Y0206489D02*
X0121000Y0206489D01*
X0121000Y0207088D02*
X0121600Y0207088D01*
X0121600Y0207686D02*
X0121000Y0207686D01*
X0121000Y0208285D02*
X0121600Y0208285D01*
X0121600Y0208883D02*
X0121000Y0208883D01*
X0121000Y0209482D02*
X0121600Y0209482D01*
X0121600Y0210080D02*
X0121000Y0210080D01*
X0121000Y0210679D02*
X0121600Y0210679D01*
X0121600Y0211277D02*
X0144000Y0211277D01*
X0144000Y0210679D02*
X0125600Y0210679D01*
X0125600Y0210080D02*
X0144000Y0210080D01*
X0144000Y0209482D02*
X0125600Y0209482D01*
X0125600Y0208883D02*
X0144000Y0208883D01*
X0144000Y0208285D02*
X0125600Y0208285D01*
X0125556Y0207686D02*
X0144000Y0207686D01*
X0144000Y0207088D02*
X0125427Y0207088D01*
X0125203Y0206489D02*
X0144149Y0206489D01*
X0144397Y0205891D02*
X0124865Y0205891D01*
X0124373Y0205292D02*
X0144644Y0205292D01*
X0144892Y0204694D02*
X0123652Y0204694D01*
X0120361Y0204095D02*
X0117419Y0204095D01*
X0117708Y0204694D02*
X0118948Y0204694D01*
X0118227Y0205292D02*
X0117956Y0205292D01*
X0121000Y0211876D02*
X0121600Y0211876D01*
X0121600Y0212474D02*
X0121000Y0212474D01*
X0121000Y0213073D02*
X0121600Y0213073D01*
X0121600Y0213671D02*
X0121000Y0213671D01*
X0121000Y0214270D02*
X0121600Y0214270D01*
X0121600Y0214868D02*
X0121000Y0214868D01*
X0121000Y0215467D02*
X0121600Y0215467D01*
X0121600Y0216065D02*
X0121000Y0216065D01*
X0121000Y0216664D02*
X0121600Y0216664D01*
X0121600Y0217262D02*
X0121000Y0217262D01*
X0121000Y0217861D02*
X0121600Y0217861D01*
X0121600Y0218459D02*
X0121000Y0218459D01*
X0120186Y0218459D02*
X0117464Y0218459D01*
X0117727Y0217861D02*
X0118885Y0217861D01*
X0118181Y0217262D02*
X0117974Y0217262D01*
X0116866Y0219058D02*
X0145734Y0219058D01*
X0146333Y0219656D02*
X0116267Y0219656D01*
X0115669Y0220255D02*
X0146931Y0220255D01*
X0148045Y0220853D02*
X0114555Y0220853D01*
X0113110Y0221452D02*
X0149490Y0221452D01*
X0153110Y0221452D02*
X0159490Y0221452D01*
X0158045Y0220853D02*
X0154555Y0220853D01*
X0155669Y0220255D02*
X0156931Y0220255D01*
X0156333Y0219656D02*
X0156267Y0219656D01*
X0163110Y0221452D02*
X0169490Y0221452D01*
X0168045Y0220853D02*
X0164555Y0220853D01*
X0165669Y0220255D02*
X0166931Y0220255D01*
X0166333Y0219656D02*
X0166267Y0219656D01*
X0145136Y0218459D02*
X0122414Y0218459D01*
X0123715Y0217861D02*
X0144873Y0217861D01*
X0144626Y0217262D02*
X0124419Y0217262D01*
X0124898Y0216664D02*
X0144378Y0216664D01*
X0144130Y0216065D02*
X0125227Y0216065D01*
X0125442Y0215467D02*
X0144000Y0215467D01*
X0144000Y0214868D02*
X0125564Y0214868D01*
X0125600Y0214270D02*
X0144000Y0214270D01*
X0144000Y0213671D02*
X0125600Y0213671D01*
X0125600Y0213073D02*
X0144000Y0213073D01*
X0144000Y0212474D02*
X0125600Y0212474D01*
X0125600Y0211876D02*
X0144000Y0211876D01*
X0155623Y0202300D02*
X0156977Y0202300D01*
X0156378Y0202898D02*
X0156222Y0202898D01*
X0154445Y0201701D02*
X0158155Y0201701D01*
X0159600Y0201103D02*
X0153000Y0201103D01*
X0163000Y0201103D02*
X0169600Y0201103D01*
X0168155Y0201701D02*
X0164445Y0201701D01*
X0165623Y0202300D02*
X0166977Y0202300D01*
X0166378Y0202898D02*
X0166222Y0202898D01*
X0187000Y0197511D02*
X0115568Y0197511D01*
X0117013Y0196913D02*
X0187000Y0196913D01*
X0187000Y0196314D02*
X0117781Y0196314D01*
X0118379Y0195716D02*
X0187000Y0195716D01*
X0187000Y0195117D02*
X0118978Y0195117D01*
X0119576Y0194519D02*
X0187000Y0194519D01*
X0187000Y0193920D02*
X0120175Y0193920D01*
X0120773Y0193322D02*
X0187000Y0193322D01*
X0187000Y0192723D02*
X0121372Y0192723D01*
X0121970Y0192125D02*
X0187000Y0192125D01*
X0187000Y0191526D02*
X0122569Y0191526D01*
X0123167Y0190928D02*
X0187000Y0190928D01*
X0187000Y0190329D02*
X0123766Y0190329D01*
X0124365Y0189731D02*
X0187000Y0189731D01*
X0187000Y0189132D02*
X0124863Y0189132D01*
X0125111Y0188534D02*
X0187000Y0188534D01*
X0187000Y0187935D02*
X0125359Y0187935D01*
X0125600Y0187337D02*
X0187000Y0187337D01*
X0187000Y0186738D02*
X0125600Y0186738D01*
X0125600Y0186140D02*
X0187000Y0186140D01*
X0187000Y0185541D02*
X0125600Y0185541D01*
X0125600Y0184943D02*
X0187000Y0184943D01*
X0187000Y0184344D02*
X0125600Y0184344D01*
X0125600Y0183746D02*
X0187000Y0183746D01*
X0187000Y0183147D02*
X0183584Y0183147D01*
X0185029Y0182549D02*
X0187000Y0182549D01*
X0186768Y0181950D02*
X0185832Y0181950D01*
X0179016Y0183147D02*
X0173584Y0183147D01*
X0175029Y0182549D02*
X0177571Y0182549D01*
X0176768Y0181950D02*
X0175832Y0181950D01*
X0169016Y0183147D02*
X0163584Y0183147D01*
X0165029Y0182549D02*
X0167571Y0182549D01*
X0166768Y0181950D02*
X0165832Y0181950D01*
X0159016Y0183147D02*
X0153584Y0183147D01*
X0155029Y0182549D02*
X0157571Y0182549D01*
X0156768Y0181950D02*
X0155832Y0181950D01*
X0149016Y0183147D02*
X0143584Y0183147D01*
X0145029Y0182549D02*
X0147571Y0182549D01*
X0146768Y0181950D02*
X0145832Y0181950D01*
X0139016Y0183147D02*
X0133584Y0183147D01*
X0135029Y0182549D02*
X0137571Y0182549D01*
X0136768Y0181950D02*
X0135832Y0181950D01*
X0129016Y0183147D02*
X0125600Y0183147D01*
X0125600Y0182549D02*
X0127571Y0182549D01*
X0126768Y0181950D02*
X0125832Y0181950D01*
X0115031Y0169980D02*
X0114856Y0169980D01*
X0114783Y0169381D02*
X0113412Y0169381D01*
X0114535Y0168783D02*
X0108065Y0168783D01*
X0108313Y0168184D02*
X0114287Y0168184D01*
X0114100Y0167586D02*
X0108500Y0167586D01*
X0108500Y0166987D02*
X0114100Y0166987D01*
X0114100Y0166389D02*
X0108500Y0166389D01*
X0108500Y0165790D02*
X0114100Y0165790D01*
X0114100Y0165192D02*
X0108500Y0165192D01*
X0108386Y0164593D02*
X0114214Y0164593D01*
X0114462Y0163995D02*
X0108138Y0163995D01*
X0107890Y0163396D02*
X0114710Y0163396D01*
X0114957Y0162798D02*
X0107643Y0162798D01*
X0107382Y0162199D02*
X0115218Y0162199D01*
X0115817Y0161601D02*
X0106783Y0161601D01*
X0106185Y0161002D02*
X0116415Y0161002D01*
X0117014Y0160404D02*
X0105586Y0160404D01*
X0104435Y0159805D02*
X0118165Y0159805D01*
X0119610Y0159207D02*
X0102990Y0159207D01*
X0099610Y0159207D02*
X0050600Y0159207D01*
X0050600Y0159805D02*
X0098165Y0159805D01*
X0097014Y0160404D02*
X0050600Y0160404D01*
X0050600Y0161002D02*
X0096415Y0161002D01*
X0095817Y0161601D02*
X0050600Y0161601D01*
X0050600Y0162199D02*
X0095218Y0162199D01*
X0094957Y0162798D02*
X0050600Y0162798D01*
X0050600Y0163396D02*
X0094710Y0163396D01*
X0094462Y0163995D02*
X0050600Y0163995D01*
X0050600Y0164593D02*
X0094214Y0164593D01*
X0094100Y0165192D02*
X0050600Y0165192D01*
X0050600Y0165790D02*
X0094100Y0165790D01*
X0094100Y0166389D02*
X0050600Y0166389D01*
X0050600Y0166987D02*
X0094100Y0166987D01*
X0094100Y0167586D02*
X0050600Y0167586D01*
X0050600Y0168184D02*
X0094287Y0168184D01*
X0094535Y0168783D02*
X0050600Y0168783D01*
X0050600Y0169381D02*
X0089188Y0169381D01*
X0087743Y0169980D02*
X0050600Y0169980D01*
X0050600Y0170578D02*
X0086839Y0170578D01*
X0086241Y0171177D02*
X0050600Y0171177D01*
X0050600Y0171775D02*
X0085642Y0171775D01*
X0085133Y0172374D02*
X0050600Y0172374D01*
X0050600Y0172972D02*
X0084885Y0172972D01*
X0084637Y0173571D02*
X0050600Y0173571D01*
X0050600Y0174170D02*
X0084389Y0174170D01*
X0084141Y0174768D02*
X0050600Y0174768D01*
X0050600Y0175367D02*
X0084100Y0175367D01*
X0084100Y0175965D02*
X0050600Y0175965D01*
X0050600Y0176564D02*
X0084100Y0176564D01*
X0084100Y0177162D02*
X0050600Y0177162D01*
X0050600Y0177761D02*
X0084112Y0177761D01*
X0084360Y0178359D02*
X0050600Y0178359D01*
X0050600Y0156214D02*
X0173504Y0156214D01*
X0171835Y0155616D02*
X0050600Y0155616D01*
X0050600Y0155017D02*
X0170799Y0155017D01*
X0169852Y0154419D02*
X0050600Y0154419D01*
X0050600Y0153820D02*
X0169254Y0153820D01*
X0168655Y0153222D02*
X0050600Y0153222D01*
X0050600Y0152623D02*
X0168057Y0152623D01*
X0167712Y0152025D02*
X0050600Y0152025D01*
X0050600Y0151426D02*
X0167366Y0151426D01*
X0167021Y0150828D02*
X0050600Y0150828D01*
X0050600Y0150229D02*
X0166689Y0150229D01*
X0166529Y0149631D02*
X0050600Y0149631D01*
X0050600Y0149032D02*
X0166369Y0149032D01*
X0166208Y0148434D02*
X0050600Y0148434D01*
X0050600Y0147835D02*
X0166048Y0147835D01*
X0166000Y0147237D02*
X0050600Y0147237D01*
X0050600Y0146638D02*
X0166000Y0146638D01*
X0166000Y0146039D02*
X0050600Y0146039D01*
X0050600Y0145441D02*
X0166000Y0145441D01*
X0166027Y0144842D02*
X0050600Y0144842D01*
X0050600Y0144244D02*
X0166188Y0144244D01*
X0166348Y0143645D02*
X0050600Y0143645D01*
X0050600Y0143047D02*
X0166508Y0143047D01*
X0166669Y0142448D02*
X0050600Y0142448D01*
X0050600Y0141850D02*
X0166976Y0141850D01*
X0167321Y0141251D02*
X0050600Y0141251D01*
X0050600Y0140653D02*
X0167667Y0140653D01*
X0168013Y0140054D02*
X0050600Y0140054D01*
X0050600Y0139456D02*
X0168578Y0139456D01*
X0169176Y0138857D02*
X0050600Y0138857D01*
X0050600Y0138259D02*
X0169775Y0138259D01*
X0170664Y0137660D02*
X0050600Y0137660D01*
X0050600Y0137062D02*
X0171701Y0137062D01*
X0173215Y0136463D02*
X0050600Y0136463D01*
X0050600Y0115515D02*
X0087172Y0115515D01*
X0087333Y0114917D02*
X0050600Y0114917D01*
X0050600Y0114318D02*
X0087596Y0114318D01*
X0087983Y0113720D02*
X0050600Y0113720D01*
X0050600Y0113121D02*
X0088539Y0113121D01*
X0093138Y0112523D02*
X0095071Y0112523D01*
X0094823Y0113121D02*
X0094061Y0113121D01*
X0105683Y0122099D02*
X0106917Y0122099D01*
X0106318Y0121501D02*
X0106282Y0121501D01*
X0104669Y0122698D02*
X0107931Y0122698D01*
X0109375Y0123296D02*
X0103225Y0123296D01*
X0122990Y0159207D02*
X0129610Y0159207D01*
X0128165Y0159805D02*
X0124435Y0159805D01*
X0125586Y0160404D02*
X0127014Y0160404D01*
X0126415Y0161002D02*
X0126185Y0161002D01*
X0132990Y0159207D02*
X0139610Y0159207D01*
X0138165Y0159805D02*
X0134435Y0159805D01*
X0135586Y0160404D02*
X0137014Y0160404D01*
X0136415Y0161002D02*
X0136185Y0161002D01*
X0109188Y0169381D02*
X0107817Y0169381D01*
X0107743Y0169980D02*
X0107569Y0169980D01*
X0095031Y0169980D02*
X0094856Y0169980D01*
X0094783Y0169381D02*
X0093412Y0169381D01*
X0095832Y0181950D02*
X0096768Y0181950D01*
X0097571Y0182549D02*
X0095029Y0182549D01*
X0093584Y0183147D02*
X0099016Y0183147D01*
X0103584Y0183147D02*
X0109016Y0183147D01*
X0107571Y0182549D02*
X0105029Y0182549D01*
X0105832Y0181950D02*
X0106768Y0181950D01*
X0084000Y0210679D02*
X0050600Y0210679D01*
X0050600Y0211277D02*
X0084000Y0211277D01*
X0084000Y0211876D02*
X0050600Y0211876D01*
X0050600Y0212474D02*
X0084000Y0212474D01*
X0084000Y0213073D02*
X0050600Y0213073D01*
X0050600Y0213671D02*
X0084000Y0213671D01*
X0084000Y0214270D02*
X0050600Y0214270D01*
X0050600Y0214868D02*
X0084000Y0214868D01*
X0084000Y0215467D02*
X0050600Y0215467D01*
X0050600Y0216065D02*
X0084130Y0216065D01*
X0084378Y0216664D02*
X0050600Y0216664D01*
X0050600Y0217262D02*
X0084626Y0217262D01*
X0084873Y0217861D02*
X0050600Y0217861D01*
X0050600Y0218459D02*
X0085136Y0218459D01*
X0085734Y0219058D02*
X0050600Y0219058D01*
X0050600Y0219656D02*
X0086333Y0219656D01*
X0086931Y0220255D02*
X0050600Y0220255D01*
X0050600Y0220853D02*
X0088045Y0220853D01*
X0089490Y0221452D02*
X0050600Y0221452D01*
X0050600Y0210080D02*
X0061248Y0210080D01*
X0060401Y0209482D02*
X0050600Y0209482D01*
X0050600Y0208883D02*
X0059862Y0208883D01*
X0059485Y0208285D02*
X0050600Y0208285D01*
X0050600Y0207686D02*
X0059229Y0207686D01*
X0059071Y0207088D02*
X0050600Y0207088D01*
X0093110Y0221452D02*
X0099490Y0221452D01*
X0098045Y0220853D02*
X0094555Y0220853D01*
X0095669Y0220255D02*
X0096931Y0220255D01*
X0096333Y0219656D02*
X0096267Y0219656D01*
X0103110Y0221452D02*
X0109490Y0221452D01*
X0108045Y0220853D02*
X0104555Y0220853D01*
X0105669Y0220255D02*
X0106931Y0220255D01*
X0106333Y0219656D02*
X0106267Y0219656D01*
X0197600Y0195716D02*
X0203221Y0195716D01*
X0203819Y0196314D02*
X0197810Y0196314D01*
X0198408Y0196913D02*
X0204418Y0196913D01*
X0205016Y0197511D02*
X0199007Y0197511D01*
X0199605Y0198110D02*
X0205615Y0198110D01*
X0206213Y0198708D02*
X0200204Y0198708D01*
X0200802Y0199307D02*
X0206812Y0199307D01*
X0207569Y0199905D02*
X0201401Y0199905D01*
X0201999Y0200504D02*
X0209014Y0200504D01*
X0202622Y0195117D02*
X0197600Y0195117D01*
X0197600Y0194519D02*
X0202024Y0194519D01*
X0201425Y0193920D02*
X0197600Y0193920D01*
X0197600Y0193322D02*
X0200827Y0193322D01*
X0200228Y0192723D02*
X0197600Y0192723D01*
X0197600Y0192125D02*
X0199630Y0192125D01*
X0199031Y0191526D02*
X0197600Y0191526D01*
X0197600Y0190928D02*
X0198433Y0190928D01*
X0197834Y0190329D02*
X0197600Y0190329D01*
X0160615Y0134668D02*
X0264183Y0134668D01*
X0264100Y0135266D02*
X0159504Y0135266D01*
X0161213Y0134069D02*
X0264431Y0134069D01*
X0264679Y0133471D02*
X0161812Y0133471D01*
X0162406Y0132872D02*
X0264927Y0132872D01*
X0265175Y0132274D02*
X0162654Y0132274D01*
X0162902Y0131675D02*
X0265742Y0131675D01*
X0265894Y0131077D02*
X0163150Y0131077D01*
X0163398Y0130478D02*
X0265296Y0130478D01*
X0264990Y0129880D02*
X0163500Y0129880D01*
X0163500Y0129281D02*
X0264742Y0129281D01*
X0264494Y0128683D02*
X0163500Y0128683D01*
X0163500Y0128084D02*
X0264246Y0128084D01*
X0264100Y0127486D02*
X0163500Y0127486D01*
X0163301Y0126887D02*
X0264100Y0126887D01*
X0264100Y0126289D02*
X0163053Y0126289D01*
X0162805Y0125690D02*
X0264100Y0125690D01*
X0264100Y0125092D02*
X0162557Y0125092D01*
X0162175Y0124493D02*
X0264255Y0124493D01*
X0264503Y0123895D02*
X0161577Y0123895D01*
X0163225Y0123296D02*
X0169375Y0123296D01*
X0167931Y0122698D02*
X0164669Y0122698D01*
X0165683Y0122099D02*
X0166917Y0122099D01*
X0166318Y0121501D02*
X0166282Y0121501D01*
X0173225Y0123296D02*
X0179375Y0123296D01*
X0177931Y0122698D02*
X0174669Y0122698D01*
X0175683Y0122099D02*
X0176917Y0122099D01*
X0176318Y0121501D02*
X0176282Y0121501D01*
X0183225Y0123296D02*
X0189375Y0123296D01*
X0187931Y0122698D02*
X0184669Y0122698D01*
X0185683Y0122099D02*
X0186917Y0122099D01*
X0186318Y0121501D02*
X0186282Y0121501D01*
X0193225Y0123296D02*
X0199375Y0123296D01*
X0197931Y0122698D02*
X0194669Y0122698D01*
X0195683Y0122099D02*
X0196917Y0122099D01*
X0196318Y0121501D02*
X0196282Y0121501D01*
X0203225Y0123296D02*
X0209375Y0123296D01*
X0207931Y0122698D02*
X0204669Y0122698D01*
X0205683Y0122099D02*
X0206917Y0122099D01*
X0206318Y0121501D02*
X0206282Y0121501D01*
X0213225Y0123296D02*
X0219375Y0123296D01*
X0217931Y0122698D02*
X0214669Y0122698D01*
X0215683Y0122099D02*
X0216917Y0122099D01*
X0216318Y0121501D02*
X0216282Y0121501D01*
X0223225Y0123296D02*
X0229375Y0123296D01*
X0227931Y0122698D02*
X0224669Y0122698D01*
X0225683Y0122099D02*
X0226917Y0122099D01*
X0226318Y0121501D02*
X0226282Y0121501D01*
X0233225Y0123296D02*
X0239375Y0123296D01*
X0237931Y0122698D02*
X0234669Y0122698D01*
X0235683Y0122099D02*
X0236917Y0122099D01*
X0236318Y0121501D02*
X0236282Y0121501D01*
X0243225Y0123296D02*
X0249375Y0123296D01*
X0247931Y0122698D02*
X0244669Y0122698D01*
X0245683Y0122099D02*
X0246917Y0122099D01*
X0246318Y0121501D02*
X0246282Y0121501D01*
X0253225Y0123296D02*
X0259375Y0123296D01*
X0257931Y0122698D02*
X0254669Y0122698D01*
X0255683Y0122099D02*
X0256917Y0122099D01*
X0256318Y0121501D02*
X0256282Y0121501D01*
X0263225Y0123296D02*
X0264751Y0123296D01*
X0264669Y0122698D02*
X0264999Y0122698D01*
X0277601Y0122698D02*
X0277931Y0122698D01*
X0277849Y0123296D02*
X0279375Y0123296D01*
X0283225Y0123296D02*
X0289375Y0123296D01*
X0287931Y0122698D02*
X0284669Y0122698D01*
X0285683Y0122099D02*
X0286917Y0122099D01*
X0286318Y0121501D02*
X0286282Y0121501D01*
X0293225Y0123296D02*
X0299375Y0123296D01*
X0297931Y0122698D02*
X0294669Y0122698D01*
X0295683Y0122099D02*
X0296917Y0122099D01*
X0296318Y0121501D02*
X0296282Y0121501D01*
X0303225Y0123296D02*
X0309375Y0123296D01*
X0307931Y0122698D02*
X0304669Y0122698D01*
X0305683Y0122099D02*
X0306917Y0122099D01*
X0306318Y0121501D02*
X0306282Y0121501D01*
X0313225Y0123296D02*
X0319375Y0123296D01*
X0317931Y0122698D02*
X0314669Y0122698D01*
X0315683Y0122099D02*
X0316917Y0122099D01*
X0316318Y0121501D02*
X0316282Y0121501D01*
X0315910Y0110727D02*
X0316690Y0110727D01*
X0317384Y0110129D02*
X0315216Y0110129D01*
X0313771Y0109530D02*
X0318829Y0109530D01*
X0308829Y0109530D02*
X0303771Y0109530D01*
X0305216Y0110129D02*
X0307384Y0110129D01*
X0306690Y0110727D02*
X0305910Y0110727D01*
X0298829Y0109530D02*
X0293771Y0109530D01*
X0295216Y0110129D02*
X0297384Y0110129D01*
X0296690Y0110727D02*
X0295910Y0110727D01*
X0288829Y0109530D02*
X0283771Y0109530D01*
X0285216Y0110129D02*
X0287384Y0110129D01*
X0286690Y0110727D02*
X0285910Y0110727D01*
X0278829Y0109530D02*
X0273771Y0109530D01*
X0275216Y0110129D02*
X0277384Y0110129D01*
X0276690Y0110727D02*
X0275910Y0110727D01*
X0268829Y0109530D02*
X0263771Y0109530D01*
X0265216Y0110129D02*
X0267384Y0110129D01*
X0266690Y0110727D02*
X0265910Y0110727D01*
X0258829Y0109530D02*
X0253771Y0109530D01*
X0255216Y0110129D02*
X0257384Y0110129D01*
X0256690Y0110727D02*
X0255910Y0110727D01*
X0248829Y0109530D02*
X0243771Y0109530D01*
X0245216Y0110129D02*
X0247384Y0110129D01*
X0246690Y0110727D02*
X0245910Y0110727D01*
X0238829Y0109530D02*
X0233771Y0109530D01*
X0235216Y0110129D02*
X0237384Y0110129D01*
X0236690Y0110727D02*
X0235910Y0110727D01*
X0228829Y0109530D02*
X0223771Y0109530D01*
X0225216Y0110129D02*
X0227384Y0110129D01*
X0226690Y0110727D02*
X0225910Y0110727D01*
X0218829Y0109530D02*
X0213771Y0109530D01*
X0215216Y0110129D02*
X0217384Y0110129D01*
X0216690Y0110727D02*
X0215910Y0110727D01*
X0208829Y0109530D02*
X0203771Y0109530D01*
X0205216Y0110129D02*
X0207384Y0110129D01*
X0206690Y0110727D02*
X0205910Y0110727D01*
X0198829Y0109530D02*
X0193771Y0109530D01*
X0195216Y0110129D02*
X0197384Y0110129D01*
X0196690Y0110727D02*
X0195910Y0110727D01*
X0188829Y0109530D02*
X0183771Y0109530D01*
X0185216Y0110129D02*
X0187384Y0110129D01*
X0186690Y0110727D02*
X0185910Y0110727D01*
X0178829Y0109530D02*
X0173771Y0109530D01*
X0175216Y0110129D02*
X0177384Y0110129D01*
X0176690Y0110727D02*
X0175910Y0110727D01*
X0175704Y0081400D02*
X0050600Y0081400D01*
X0050600Y0080802D02*
X0176303Y0080802D01*
X0176901Y0080203D02*
X0050600Y0080203D01*
X0050600Y0079605D02*
X0177786Y0079605D01*
X0179231Y0079006D02*
X0050600Y0079006D01*
X0050600Y0078408D02*
X0289697Y0078408D01*
X0290295Y0077809D02*
X0050600Y0077809D01*
X0050600Y0077211D02*
X0290894Y0077211D01*
X0291492Y0076612D02*
X0187930Y0076612D01*
X0186752Y0077100D02*
X0183848Y0077100D01*
X0181165Y0075989D01*
X0180300Y0075124D01*
X0179435Y0075989D01*
X0176752Y0077100D01*
X0173848Y0077100D01*
X0171165Y0075989D01*
X0170300Y0075124D01*
X0169435Y0075989D01*
X0166752Y0077100D01*
X0163848Y0077100D01*
X0161165Y0075989D01*
X0159111Y0073935D01*
X0158565Y0072616D01*
X0158101Y0073080D01*
X0157554Y0073478D01*
X0156951Y0073785D01*
X0156307Y0073994D01*
X0155638Y0074100D01*
X0155600Y0074100D01*
X0155600Y0067100D01*
X0155000Y0067100D01*
X0155000Y0074100D01*
X0154962Y0074100D01*
X0154293Y0073994D01*
X0153649Y0073785D01*
X0153046Y0073478D01*
X0152499Y0073080D01*
X0152020Y0072601D01*
X0151622Y0072054D01*
X0151315Y0071451D01*
X0151106Y0070807D01*
X0151000Y0070138D01*
X0151000Y0067100D01*
X0155000Y0067100D01*
X0155000Y0066500D01*
X0151000Y0066500D01*
X0151000Y0063462D01*
X0151106Y0062793D01*
X0151315Y0062149D01*
X0151622Y0061546D01*
X0152020Y0060999D01*
X0152499Y0060520D01*
X0153046Y0060122D01*
X0153649Y0059815D01*
X0154293Y0059606D01*
X0154962Y0059500D01*
X0155000Y0059500D01*
X0155000Y0066500D01*
X0155600Y0066500D01*
X0155600Y0059500D01*
X0155638Y0059500D01*
X0156307Y0059606D01*
X0156951Y0059815D01*
X0157554Y0060122D01*
X0158101Y0060520D01*
X0158565Y0060984D01*
X0159111Y0059665D01*
X0161165Y0057611D01*
X0163848Y0056500D01*
X0166752Y0056500D01*
X0169435Y0057611D01*
X0170300Y0058476D01*
X0171165Y0057611D01*
X0173848Y0056500D01*
X0176752Y0056500D01*
X0179435Y0057611D01*
X0180300Y0058476D01*
X0181165Y0057611D01*
X0183848Y0056500D01*
X0186752Y0056500D01*
X0189435Y0057611D01*
X0191489Y0059665D01*
X0192600Y0062348D01*
X0192600Y0071252D01*
X0191489Y0073935D01*
X0189435Y0075989D01*
X0186752Y0077100D01*
X0189375Y0076014D02*
X0233432Y0076014D01*
X0232165Y0075489D02*
X0230111Y0073435D01*
X0229565Y0072116D01*
X0229101Y0072580D01*
X0228554Y0072978D01*
X0227951Y0073285D01*
X0227307Y0073494D01*
X0226638Y0073600D01*
X0226600Y0073600D01*
X0226600Y0066600D01*
X0226000Y0066600D01*
X0226000Y0073600D01*
X0225962Y0073600D01*
X0225293Y0073494D01*
X0224649Y0073285D01*
X0224046Y0072978D01*
X0223499Y0072580D01*
X0223020Y0072101D01*
X0222622Y0071554D01*
X0222315Y0070951D01*
X0222106Y0070307D01*
X0222000Y0069638D01*
X0222000Y0066600D01*
X0226000Y0066600D01*
X0226000Y0066000D01*
X0222000Y0066000D01*
X0222000Y0062962D01*
X0222106Y0062293D01*
X0222315Y0061649D01*
X0222622Y0061046D01*
X0223020Y0060499D01*
X0223499Y0060020D01*
X0224046Y0059622D01*
X0224649Y0059315D01*
X0225293Y0059106D01*
X0225962Y0059000D01*
X0226000Y0059000D01*
X0226000Y0066000D01*
X0226600Y0066000D01*
X0226600Y0059000D01*
X0226638Y0059000D01*
X0227307Y0059106D01*
X0227951Y0059315D01*
X0228554Y0059622D01*
X0229101Y0060020D01*
X0229565Y0060484D01*
X0230111Y0059165D01*
X0232165Y0057111D01*
X0234848Y0056000D01*
X0237752Y0056000D01*
X0240435Y0057111D01*
X0241300Y0057976D01*
X0242165Y0057111D01*
X0244848Y0056000D01*
X0247752Y0056000D01*
X0250435Y0057111D01*
X0251300Y0057976D01*
X0252165Y0057111D01*
X0254848Y0056000D01*
X0257752Y0056000D01*
X0260435Y0057111D01*
X0262489Y0059165D01*
X0263600Y0061848D01*
X0263600Y0070752D01*
X0262489Y0073435D01*
X0260435Y0075489D01*
X0257752Y0076600D01*
X0254848Y0076600D01*
X0252165Y0075489D01*
X0251300Y0074624D01*
X0250435Y0075489D01*
X0247752Y0076600D01*
X0244848Y0076600D01*
X0242165Y0075489D01*
X0241300Y0074624D01*
X0240435Y0075489D01*
X0237752Y0076600D01*
X0234848Y0076600D01*
X0232165Y0075489D01*
X0232091Y0075415D02*
X0190009Y0075415D01*
X0190607Y0074817D02*
X0231493Y0074817D01*
X0230894Y0074218D02*
X0191206Y0074218D01*
X0191619Y0073620D02*
X0230296Y0073620D01*
X0229940Y0073021D02*
X0228468Y0073021D01*
X0229259Y0072423D02*
X0229692Y0072423D01*
X0226600Y0072423D02*
X0226000Y0072423D01*
X0226000Y0073021D02*
X0226600Y0073021D01*
X0226600Y0071824D02*
X0226000Y0071824D01*
X0226000Y0071226D02*
X0226600Y0071226D01*
X0226600Y0070627D02*
X0226000Y0070627D01*
X0226000Y0070029D02*
X0226600Y0070029D01*
X0226600Y0069430D02*
X0226000Y0069430D01*
X0226000Y0068832D02*
X0226600Y0068832D01*
X0226600Y0068233D02*
X0226000Y0068233D01*
X0226000Y0067634D02*
X0226600Y0067634D01*
X0226600Y0067036D02*
X0226000Y0067036D01*
X0226000Y0066437D02*
X0192600Y0066437D01*
X0192600Y0065839D02*
X0222000Y0065839D01*
X0222000Y0065240D02*
X0192600Y0065240D01*
X0192600Y0064642D02*
X0222000Y0064642D01*
X0222000Y0064043D02*
X0192600Y0064043D01*
X0192600Y0063445D02*
X0222000Y0063445D01*
X0222018Y0062846D02*
X0192600Y0062846D01*
X0192559Y0062248D02*
X0222121Y0062248D01*
X0222315Y0061649D02*
X0192311Y0061649D01*
X0192063Y0061051D02*
X0222620Y0061051D01*
X0223067Y0060452D02*
X0191815Y0060452D01*
X0191567Y0059854D02*
X0223728Y0059854D01*
X0224833Y0059255D02*
X0191079Y0059255D01*
X0190481Y0058657D02*
X0230619Y0058657D01*
X0230074Y0059255D02*
X0227767Y0059255D01*
X0226600Y0059255D02*
X0226000Y0059255D01*
X0226000Y0059854D02*
X0226600Y0059854D01*
X0226600Y0060452D02*
X0226000Y0060452D01*
X0226000Y0061051D02*
X0226600Y0061051D01*
X0226600Y0061649D02*
X0226000Y0061649D01*
X0226000Y0062248D02*
X0226600Y0062248D01*
X0226600Y0062846D02*
X0226000Y0062846D01*
X0226000Y0063445D02*
X0226600Y0063445D01*
X0226600Y0064043D02*
X0226000Y0064043D01*
X0226000Y0064642D02*
X0226600Y0064642D01*
X0226600Y0065240D02*
X0226000Y0065240D01*
X0226000Y0065839D02*
X0226600Y0065839D01*
X0222000Y0067036D02*
X0192600Y0067036D01*
X0192600Y0067634D02*
X0222000Y0067634D01*
X0222000Y0068233D02*
X0192600Y0068233D01*
X0192600Y0068832D02*
X0222000Y0068832D01*
X0222000Y0069430D02*
X0192600Y0069430D01*
X0192600Y0070029D02*
X0222062Y0070029D01*
X0222210Y0070627D02*
X0192600Y0070627D01*
X0192600Y0071226D02*
X0222455Y0071226D01*
X0222819Y0071824D02*
X0192363Y0071824D01*
X0192115Y0072423D02*
X0223341Y0072423D01*
X0224132Y0073021D02*
X0191867Y0073021D01*
X0182670Y0076612D02*
X0177930Y0076612D01*
X0179375Y0076014D02*
X0181225Y0076014D01*
X0180591Y0075415D02*
X0180009Y0075415D01*
X0172670Y0076612D02*
X0167930Y0076612D01*
X0169375Y0076014D02*
X0171225Y0076014D01*
X0170591Y0075415D02*
X0170009Y0075415D01*
X0162670Y0076612D02*
X0050600Y0076612D01*
X0050600Y0076014D02*
X0098432Y0076014D01*
X0097165Y0075489D02*
X0095111Y0073435D01*
X0094565Y0072116D01*
X0094101Y0072580D01*
X0093554Y0072978D01*
X0092951Y0073285D01*
X0092307Y0073494D01*
X0091638Y0073600D01*
X0091600Y0073600D01*
X0091600Y0066600D01*
X0091000Y0066600D01*
X0091000Y0073600D01*
X0090962Y0073600D01*
X0090293Y0073494D01*
X0089649Y0073285D01*
X0089046Y0072978D01*
X0088499Y0072580D01*
X0088020Y0072101D01*
X0087622Y0071554D01*
X0087315Y0070951D01*
X0087106Y0070307D01*
X0087000Y0069638D01*
X0087000Y0066600D01*
X0091000Y0066600D01*
X0091000Y0066000D01*
X0087000Y0066000D01*
X0087000Y0062962D01*
X0087106Y0062293D01*
X0087315Y0061649D01*
X0087622Y0061046D01*
X0088020Y0060499D01*
X0088499Y0060020D01*
X0089046Y0059622D01*
X0089649Y0059315D01*
X0090293Y0059106D01*
X0090962Y0059000D01*
X0091000Y0059000D01*
X0091000Y0066000D01*
X0091600Y0066000D01*
X0091600Y0059000D01*
X0091638Y0059000D01*
X0092307Y0059106D01*
X0092951Y0059315D01*
X0093554Y0059622D01*
X0094101Y0060020D01*
X0094565Y0060484D01*
X0095111Y0059165D01*
X0097165Y0057111D01*
X0099848Y0056000D01*
X0102752Y0056000D01*
X0105435Y0057111D01*
X0106300Y0057976D01*
X0107165Y0057111D01*
X0109848Y0056000D01*
X0112752Y0056000D01*
X0115435Y0057111D01*
X0116300Y0057976D01*
X0117165Y0057111D01*
X0119848Y0056000D01*
X0122752Y0056000D01*
X0125435Y0057111D01*
X0127489Y0059165D01*
X0128600Y0061848D01*
X0128600Y0070752D01*
X0127489Y0073435D01*
X0125435Y0075489D01*
X0122752Y0076600D01*
X0119848Y0076600D01*
X0117165Y0075489D01*
X0116300Y0074624D01*
X0115435Y0075489D01*
X0112752Y0076600D01*
X0109848Y0076600D01*
X0107165Y0075489D01*
X0106300Y0074624D01*
X0105435Y0075489D01*
X0102752Y0076600D01*
X0099848Y0076600D01*
X0097165Y0075489D01*
X0097091Y0075415D02*
X0050600Y0075415D01*
X0050600Y0074817D02*
X0096493Y0074817D01*
X0095894Y0074218D02*
X0050600Y0074218D01*
X0050600Y0073620D02*
X0095296Y0073620D01*
X0094940Y0073021D02*
X0093468Y0073021D01*
X0094259Y0072423D02*
X0094692Y0072423D01*
X0091600Y0072423D02*
X0091000Y0072423D01*
X0091000Y0073021D02*
X0091600Y0073021D01*
X0091600Y0071824D02*
X0091000Y0071824D01*
X0091000Y0071226D02*
X0091600Y0071226D01*
X0091600Y0070627D02*
X0091000Y0070627D01*
X0091000Y0070029D02*
X0091600Y0070029D01*
X0091600Y0069430D02*
X0091000Y0069430D01*
X0091000Y0068832D02*
X0091600Y0068832D01*
X0091600Y0068233D02*
X0091000Y0068233D01*
X0091000Y0067634D02*
X0091600Y0067634D01*
X0091600Y0067036D02*
X0091000Y0067036D01*
X0091000Y0066437D02*
X0050600Y0066437D01*
X0050600Y0065839D02*
X0087000Y0065839D01*
X0087000Y0065240D02*
X0050600Y0065240D01*
X0050600Y0064642D02*
X0087000Y0064642D01*
X0087000Y0064043D02*
X0050600Y0064043D01*
X0050600Y0063445D02*
X0087000Y0063445D01*
X0087018Y0062846D02*
X0050600Y0062846D01*
X0050600Y0062248D02*
X0087121Y0062248D01*
X0087315Y0061649D02*
X0050600Y0061649D01*
X0050600Y0061051D02*
X0087620Y0061051D01*
X0088067Y0060452D02*
X0050600Y0060452D01*
X0050600Y0059854D02*
X0088728Y0059854D01*
X0089833Y0059255D02*
X0050600Y0059255D01*
X0050600Y0058657D02*
X0095619Y0058657D01*
X0095074Y0059255D02*
X0092767Y0059255D01*
X0091600Y0059255D02*
X0091000Y0059255D01*
X0091000Y0059854D02*
X0091600Y0059854D01*
X0091600Y0060452D02*
X0091000Y0060452D01*
X0091000Y0061051D02*
X0091600Y0061051D01*
X0091600Y0061649D02*
X0091000Y0061649D01*
X0091000Y0062248D02*
X0091600Y0062248D01*
X0091600Y0062846D02*
X0091000Y0062846D01*
X0091000Y0063445D02*
X0091600Y0063445D01*
X0091600Y0064043D02*
X0091000Y0064043D01*
X0091000Y0064642D02*
X0091600Y0064642D01*
X0091600Y0065240D02*
X0091000Y0065240D01*
X0091000Y0065839D02*
X0091600Y0065839D01*
X0087000Y0067036D02*
X0050600Y0067036D01*
X0050600Y0067634D02*
X0087000Y0067634D01*
X0087000Y0068233D02*
X0050600Y0068233D01*
X0050600Y0068832D02*
X0087000Y0068832D01*
X0087000Y0069430D02*
X0050600Y0069430D01*
X0050600Y0070029D02*
X0087062Y0070029D01*
X0087210Y0070627D02*
X0050600Y0070627D01*
X0050600Y0071226D02*
X0087455Y0071226D01*
X0087819Y0071824D02*
X0050600Y0071824D01*
X0050600Y0072423D02*
X0088341Y0072423D01*
X0089132Y0073021D02*
X0050600Y0073021D01*
X0050600Y0058058D02*
X0096218Y0058058D01*
X0096816Y0057460D02*
X0050600Y0057460D01*
X0050600Y0056861D02*
X0097769Y0056861D01*
X0099214Y0056263D02*
X0050600Y0056263D01*
X0050600Y0055664D02*
X0360701Y0055664D01*
X0360701Y0055066D02*
X0050600Y0055066D01*
X0050600Y0054467D02*
X0360701Y0054467D01*
X0360701Y0053869D02*
X0050600Y0053869D01*
X0050600Y0053270D02*
X0360701Y0053270D01*
X0360701Y0052672D02*
X0050600Y0052672D01*
X0050600Y0052073D02*
X0360701Y0052073D01*
X0360701Y0051475D02*
X0050600Y0051475D01*
X0050600Y0050876D02*
X0360701Y0050876D01*
X0360701Y0050278D02*
X0050600Y0050278D01*
X0050600Y0049679D02*
X0360701Y0049679D01*
X0360701Y0049081D02*
X0050600Y0049081D01*
X0050600Y0048482D02*
X0360701Y0048482D01*
X0360701Y0047884D02*
X0050600Y0047884D01*
X0050600Y0047285D02*
X0360701Y0047285D01*
X0360701Y0046687D02*
X0050600Y0046687D01*
X0050600Y0046088D02*
X0360701Y0046088D01*
X0360701Y0056263D02*
X0323386Y0056263D01*
X0324831Y0056861D02*
X0360701Y0056861D01*
X0360701Y0057460D02*
X0325784Y0057460D01*
X0326382Y0058058D02*
X0360701Y0058058D01*
X0360701Y0058657D02*
X0326981Y0058657D01*
X0327526Y0059255D02*
X0360701Y0059255D01*
X0360701Y0059854D02*
X0327774Y0059854D01*
X0328022Y0060452D02*
X0360701Y0060452D01*
X0360701Y0061051D02*
X0328270Y0061051D01*
X0328518Y0061649D02*
X0360701Y0061649D01*
X0360701Y0062248D02*
X0328600Y0062248D01*
X0328600Y0062846D02*
X0360701Y0062846D01*
X0360701Y0063445D02*
X0328600Y0063445D01*
X0328600Y0064043D02*
X0360701Y0064043D01*
X0360701Y0064642D02*
X0328600Y0064642D01*
X0328600Y0065240D02*
X0360701Y0065240D01*
X0360701Y0065839D02*
X0328600Y0065839D01*
X0328600Y0066437D02*
X0360701Y0066437D01*
X0360701Y0067036D02*
X0328600Y0067036D01*
X0328600Y0067634D02*
X0360701Y0067634D01*
X0360701Y0068233D02*
X0328600Y0068233D01*
X0328600Y0068832D02*
X0360701Y0068832D01*
X0360701Y0069430D02*
X0328600Y0069430D01*
X0328600Y0070029D02*
X0360701Y0070029D01*
X0360701Y0070627D02*
X0328600Y0070627D01*
X0328404Y0071226D02*
X0360701Y0071226D01*
X0360701Y0071824D02*
X0328156Y0071824D01*
X0327908Y0072423D02*
X0360701Y0072423D01*
X0360701Y0073021D02*
X0327660Y0073021D01*
X0327304Y0073620D02*
X0360701Y0073620D01*
X0360701Y0074218D02*
X0326706Y0074218D01*
X0326107Y0074817D02*
X0360701Y0074817D01*
X0360701Y0075415D02*
X0325509Y0075415D01*
X0324168Y0076014D02*
X0360701Y0076014D01*
X0360701Y0076612D02*
X0306483Y0076612D01*
X0307082Y0076014D02*
X0308432Y0076014D01*
X0305885Y0077211D02*
X0360701Y0077211D01*
X0360701Y0077809D02*
X0305286Y0077809D01*
X0304688Y0078408D02*
X0360701Y0078408D01*
X0360701Y0079006D02*
X0304089Y0079006D01*
X0303491Y0079605D02*
X0360701Y0079605D01*
X0360701Y0080203D02*
X0302892Y0080203D01*
X0302294Y0080802D02*
X0360701Y0080802D01*
X0360701Y0081400D02*
X0301695Y0081400D01*
X0301097Y0081999D02*
X0360701Y0081999D01*
X0360701Y0082597D02*
X0300498Y0082597D01*
X0299900Y0083196D02*
X0360701Y0083196D01*
X0360701Y0083794D02*
X0299301Y0083794D01*
X0298702Y0084393D02*
X0360701Y0084393D01*
X0360701Y0084991D02*
X0298104Y0084991D01*
X0297505Y0085590D02*
X0360701Y0085590D01*
X0360701Y0086188D02*
X0296907Y0086188D01*
X0296308Y0086787D02*
X0360701Y0086787D01*
X0360701Y0087385D02*
X0295710Y0087385D01*
X0295111Y0087984D02*
X0360701Y0087984D01*
X0360701Y0088582D02*
X0294513Y0088582D01*
X0293366Y0089181D02*
X0360701Y0089181D01*
X0318432Y0076014D02*
X0314168Y0076014D01*
X0315509Y0075415D02*
X0317091Y0075415D01*
X0316493Y0074817D02*
X0316107Y0074817D01*
X0294940Y0073021D02*
X0293468Y0073021D01*
X0294259Y0072423D02*
X0294692Y0072423D01*
X0294485Y0073620D02*
X0262304Y0073620D01*
X0262660Y0073021D02*
X0289132Y0073021D01*
X0288341Y0072423D02*
X0262908Y0072423D01*
X0263156Y0071824D02*
X0287819Y0071824D01*
X0287455Y0071226D02*
X0263404Y0071226D01*
X0263600Y0070627D02*
X0287210Y0070627D01*
X0287062Y0070029D02*
X0263600Y0070029D01*
X0263600Y0069430D02*
X0287000Y0069430D01*
X0287000Y0068832D02*
X0263600Y0068832D01*
X0263600Y0068233D02*
X0287000Y0068233D01*
X0287000Y0067634D02*
X0263600Y0067634D01*
X0263600Y0067036D02*
X0287000Y0067036D01*
X0287000Y0066000D02*
X0287000Y0062962D01*
X0287106Y0062293D01*
X0287315Y0061649D01*
X0287622Y0061046D01*
X0288020Y0060499D01*
X0288499Y0060020D01*
X0289046Y0059622D01*
X0289649Y0059315D01*
X0290293Y0059106D01*
X0290962Y0059000D01*
X0291000Y0059000D01*
X0291000Y0066000D01*
X0287000Y0066000D01*
X0287000Y0065839D02*
X0263600Y0065839D01*
X0263600Y0066437D02*
X0291000Y0066437D01*
X0291000Y0065839D02*
X0291600Y0065839D01*
X0291600Y0065240D02*
X0291000Y0065240D01*
X0291000Y0064642D02*
X0291600Y0064642D01*
X0291600Y0064043D02*
X0291000Y0064043D01*
X0291000Y0063445D02*
X0291600Y0063445D01*
X0291600Y0062846D02*
X0291000Y0062846D01*
X0291000Y0062248D02*
X0291600Y0062248D01*
X0291600Y0061649D02*
X0291000Y0061649D01*
X0291000Y0061051D02*
X0291600Y0061051D01*
X0291600Y0060452D02*
X0291000Y0060452D01*
X0291000Y0059854D02*
X0291600Y0059854D01*
X0291600Y0059255D02*
X0291000Y0059255D01*
X0289833Y0059255D02*
X0262526Y0059255D01*
X0262774Y0059854D02*
X0288728Y0059854D01*
X0288067Y0060452D02*
X0263022Y0060452D01*
X0263270Y0061051D02*
X0287620Y0061051D01*
X0287315Y0061649D02*
X0263518Y0061649D01*
X0263600Y0062248D02*
X0287121Y0062248D01*
X0287018Y0062846D02*
X0263600Y0062846D01*
X0263600Y0063445D02*
X0287000Y0063445D01*
X0287000Y0064043D02*
X0263600Y0064043D01*
X0263600Y0064642D02*
X0287000Y0064642D01*
X0287000Y0065240D02*
X0263600Y0065240D01*
X0261981Y0058657D02*
X0295619Y0058657D01*
X0295074Y0059255D02*
X0292767Y0059255D01*
X0293872Y0059854D02*
X0294826Y0059854D01*
X0294578Y0060452D02*
X0294533Y0060452D01*
X0296218Y0058058D02*
X0261382Y0058058D01*
X0260784Y0057460D02*
X0296816Y0057460D01*
X0297769Y0056861D02*
X0259831Y0056861D01*
X0258386Y0056263D02*
X0299214Y0056263D01*
X0303386Y0056263D02*
X0309214Y0056263D01*
X0307769Y0056861D02*
X0304831Y0056861D01*
X0305784Y0057460D02*
X0306816Y0057460D01*
X0313386Y0056263D02*
X0319214Y0056263D01*
X0317769Y0056861D02*
X0314831Y0056861D01*
X0315784Y0057460D02*
X0316816Y0057460D01*
X0291600Y0067036D02*
X0291000Y0067036D01*
X0291000Y0067634D02*
X0291600Y0067634D01*
X0291600Y0068233D02*
X0291000Y0068233D01*
X0291000Y0068832D02*
X0291600Y0068832D01*
X0291600Y0069430D02*
X0291000Y0069430D01*
X0291000Y0070029D02*
X0291600Y0070029D01*
X0291600Y0070627D02*
X0291000Y0070627D01*
X0291000Y0071226D02*
X0291600Y0071226D01*
X0291600Y0071824D02*
X0291000Y0071824D01*
X0291000Y0072423D02*
X0291600Y0072423D01*
X0291600Y0073021D02*
X0291000Y0073021D01*
X0293288Y0074817D02*
X0261107Y0074817D01*
X0260509Y0075415D02*
X0292690Y0075415D01*
X0292091Y0076014D02*
X0259168Y0076014D01*
X0261706Y0074218D02*
X0293887Y0074218D01*
X0253432Y0076014D02*
X0249168Y0076014D01*
X0250509Y0075415D02*
X0252091Y0075415D01*
X0251493Y0074817D02*
X0251107Y0074817D01*
X0243432Y0076014D02*
X0239168Y0076014D01*
X0240509Y0075415D02*
X0242091Y0075415D01*
X0241493Y0074817D02*
X0241107Y0074817D01*
X0229578Y0060452D02*
X0229533Y0060452D01*
X0229826Y0059854D02*
X0228872Y0059854D01*
X0231218Y0058058D02*
X0189882Y0058058D01*
X0189069Y0057460D02*
X0231816Y0057460D01*
X0232769Y0056861D02*
X0187624Y0056861D01*
X0182976Y0056861D02*
X0177624Y0056861D01*
X0179069Y0057460D02*
X0181531Y0057460D01*
X0180718Y0058058D02*
X0179882Y0058058D01*
X0172976Y0056861D02*
X0167624Y0056861D01*
X0169069Y0057460D02*
X0171531Y0057460D01*
X0170718Y0058058D02*
X0169882Y0058058D01*
X0162976Y0056861D02*
X0124831Y0056861D01*
X0125784Y0057460D02*
X0161531Y0057460D01*
X0160718Y0058058D02*
X0126382Y0058058D01*
X0126981Y0058657D02*
X0160119Y0058657D01*
X0159521Y0059255D02*
X0127526Y0059255D01*
X0127774Y0059854D02*
X0153573Y0059854D01*
X0152592Y0060452D02*
X0128022Y0060452D01*
X0128270Y0061051D02*
X0151982Y0061051D01*
X0151570Y0061649D02*
X0128518Y0061649D01*
X0128600Y0062248D02*
X0151283Y0062248D01*
X0151097Y0062846D02*
X0128600Y0062846D01*
X0128600Y0063445D02*
X0151003Y0063445D01*
X0151000Y0064043D02*
X0128600Y0064043D01*
X0128600Y0064642D02*
X0151000Y0064642D01*
X0151000Y0065240D02*
X0128600Y0065240D01*
X0128600Y0065839D02*
X0151000Y0065839D01*
X0151000Y0066437D02*
X0128600Y0066437D01*
X0128600Y0067036D02*
X0155000Y0067036D01*
X0155000Y0067634D02*
X0155600Y0067634D01*
X0155600Y0068233D02*
X0155000Y0068233D01*
X0155000Y0068832D02*
X0155600Y0068832D01*
X0155600Y0069430D02*
X0155000Y0069430D01*
X0155000Y0070029D02*
X0155600Y0070029D01*
X0155600Y0070627D02*
X0155000Y0070627D01*
X0155000Y0071226D02*
X0155600Y0071226D01*
X0155600Y0071824D02*
X0155000Y0071824D01*
X0155000Y0072423D02*
X0155600Y0072423D01*
X0155600Y0073021D02*
X0155000Y0073021D01*
X0155000Y0073620D02*
X0155600Y0073620D01*
X0157275Y0073620D02*
X0158981Y0073620D01*
X0158733Y0073021D02*
X0158160Y0073021D01*
X0159394Y0074218D02*
X0126706Y0074218D01*
X0127304Y0073620D02*
X0153325Y0073620D01*
X0152440Y0073021D02*
X0127660Y0073021D01*
X0127908Y0072423D02*
X0151890Y0072423D01*
X0151505Y0071824D02*
X0128156Y0071824D01*
X0128404Y0071226D02*
X0151242Y0071226D01*
X0151077Y0070627D02*
X0128600Y0070627D01*
X0128600Y0070029D02*
X0151000Y0070029D01*
X0151000Y0069430D02*
X0128600Y0069430D01*
X0128600Y0068832D02*
X0151000Y0068832D01*
X0151000Y0068233D02*
X0128600Y0068233D01*
X0128600Y0067634D02*
X0151000Y0067634D01*
X0155000Y0066437D02*
X0155600Y0066437D01*
X0155600Y0065839D02*
X0155000Y0065839D01*
X0155000Y0065240D02*
X0155600Y0065240D01*
X0155600Y0064642D02*
X0155000Y0064642D01*
X0155000Y0064043D02*
X0155600Y0064043D01*
X0155600Y0063445D02*
X0155000Y0063445D01*
X0155000Y0062846D02*
X0155600Y0062846D01*
X0155600Y0062248D02*
X0155000Y0062248D01*
X0155000Y0061649D02*
X0155600Y0061649D01*
X0155600Y0061051D02*
X0155000Y0061051D01*
X0155000Y0060452D02*
X0155600Y0060452D01*
X0155600Y0059854D02*
X0155000Y0059854D01*
X0157027Y0059854D02*
X0159033Y0059854D01*
X0158785Y0060452D02*
X0158008Y0060452D01*
X0159993Y0074817D02*
X0126107Y0074817D01*
X0125509Y0075415D02*
X0160591Y0075415D01*
X0161225Y0076014D02*
X0124168Y0076014D01*
X0118432Y0076014D02*
X0114168Y0076014D01*
X0115509Y0075415D02*
X0117091Y0075415D01*
X0116493Y0074817D02*
X0116107Y0074817D01*
X0108432Y0076014D02*
X0104168Y0076014D01*
X0105509Y0075415D02*
X0107091Y0075415D01*
X0106493Y0074817D02*
X0106107Y0074817D01*
X0094578Y0060452D02*
X0094533Y0060452D01*
X0094826Y0059854D02*
X0093872Y0059854D01*
X0103386Y0056263D02*
X0109214Y0056263D01*
X0107769Y0056861D02*
X0104831Y0056861D01*
X0105784Y0057460D02*
X0106816Y0057460D01*
X0113386Y0056263D02*
X0119214Y0056263D01*
X0117769Y0056861D02*
X0114831Y0056861D01*
X0115784Y0057460D02*
X0116816Y0057460D01*
X0123386Y0056263D02*
X0234214Y0056263D01*
X0238386Y0056263D02*
X0244214Y0056263D01*
X0242769Y0056861D02*
X0239831Y0056861D01*
X0240784Y0057460D02*
X0241816Y0057460D01*
X0248386Y0056263D02*
X0254214Y0056263D01*
X0252769Y0056861D02*
X0249831Y0056861D01*
X0250784Y0057460D02*
X0251816Y0057460D01*
X0293000Y0201103D02*
X0299600Y0201103D01*
X0298155Y0201701D02*
X0294445Y0201701D01*
X0295623Y0202300D02*
X0296977Y0202300D01*
X0296378Y0202898D02*
X0296222Y0202898D01*
X0303000Y0201103D02*
X0304607Y0201103D01*
X0304445Y0201701D02*
X0305206Y0201701D01*
X0305623Y0202300D02*
X0305804Y0202300D01*
X0306222Y0202898D02*
X0306378Y0202898D01*
D14*
X0216300Y0222300D03*
M02*
