%
M48
M72
T01C0.0300
T02C0.0380
T03C0.0400
T04C0.1200
%
T01
X21630Y22230
T02
X21130Y17630
X22130Y17630
X23130Y17630
X24130Y17630
X25130Y17630
X26130Y17630
X27130Y17630
X27130Y16630
X28130Y17630
X29130Y17630
X30130Y17630
X31130Y17630
X32130Y17630
X27130Y15630
X27130Y14630
X27130Y13630
X27130Y12630
X27130Y11630
X26130Y11630
X25130Y11630
X24130Y11630
X23130Y11630
X22130Y11630
X21130Y11630
X20130Y11630
X19130Y11630
X18130Y11630
X17130Y11630
X16130Y11630
X15130Y11630
X14130Y11630
X13130Y11630
X12130Y11630
X11130Y11630
X10130Y11630
X9130Y11630
X11630Y12880
X12630Y12880
X13630Y12880
X14630Y12880
X15630Y12880
X14130Y16630
X14130Y17630
X15130Y17630
X16130Y17630
X17130Y17630
X18130Y17630
X19130Y17630
X20130Y17630
X13130Y17630
X12130Y17630
X12130Y16630
X13130Y16630
X11130Y17630
X10130Y17630
X9130Y17630
X10130Y16630
X28130Y11630
X29130Y11630
X30130Y11630
X31130Y11630
X32130Y11630
T03
X9130Y6630
X10130Y6630
X11130Y6630
X12130Y6630
X15530Y6680
X16530Y6680
X17530Y6680
X18530Y6680
X22630Y6630
X23630Y6630
X24630Y6630
X25630Y6630
X29130Y6630
X30130Y6630
X31130Y6630
X32130Y6630
X34130Y18630
X34130Y19630
X34130Y20630
X32130Y21130
X31130Y21130
X30130Y21130
X29130Y21130
X25630Y21130
X24630Y21130
X23630Y21130
X22630Y21130
X18130Y21130
X17130Y21130
X16130Y21130
X15130Y21130
X12130Y21130
X11130Y21130
X10130Y21130
X9130Y21130
X6630Y20630
X6630Y19630
X6630Y18630
T04
X17630Y14630
X30130Y14630
M30
